<svg xmlns="http://www.w3.org/2000/svg" xmlns:xlink="http://www.w3.org/1999/xlink" viewBox="0 0 628.1 488.55"><defs><style>.cls-1,.cls-9{fill:none;}.cls-2{isolation:isolate;}.cls-3{fill:url(#Áåçûìÿííûé_ãðàäèåíò_305);}.cls-4{fill:url(#Áåçûìÿííûé_ãðàäèåíò_305-2);}.cls-5{fill:#828296;}.cls-6{fill:#8c8c9e;}.cls-7,.cls-8{opacity:0.4;mix-blend-mode:multiply;}.cls-7{fill:url(#Áåçûìÿííûé_ãðàäèåíò_180);}.cls-8{fill:url(#Áåçûìÿííûé_ãðàäèåíò_180-2);}.cls-9{stroke:#b58331;stroke-miterlimit:10;stroke-width:5px;}.cls-10{fill:#9e8652;}.cls-11{fill:#8e744c;}.cls-12{fill:#e2b99a;}.cls-13{fill:#d1aa90;}.cls-14{fill:#ce993c;}.cls-15{fill:#8e7336;}.cls-16{fill:#fbfdfb;}.cls-17{clip-path:url(#clip-path);}.cls-18{fill:#1d4668;}.cls-19{fill:#ffffba;}.cls-20{fill:#1c1c1c;}.cls-21{clip-path:url(#clip-path-2);}.cls-22{fill:#c69073;}.cls-23{fill:#f2f2f0;}</style><linearGradient id="Áåçûìÿííûé_ãðàäèåíò_305" x1="99.14" y1="477.57" x2="99.14" y2="376.05" gradientUnits="userSpaceOnUse"><stop offset="0" stop-color="#6f6f86"/><stop offset="0.99" stop-color="#888481"/></linearGradient><linearGradient id="Áåçûìÿííûé_ãðàäèåíò_305-2" x1="419.1" y1="474.39" x2="419.1" y2="0" xlink:href="#Áåçûìÿííûé_ãðàäèåíò_305"/><linearGradient id="Áåçûìÿííûé_ãðàäèåíò_180" x1="513.71" y1="454.27" x2="513.71" gradientUnits="userSpaceOnUse"><stop offset="0" stop-color="#687c92"/><stop offset="1" stop-color="#febaac"/></linearGradient><linearGradient id="Áåçûìÿííûé_ãðàäèåíò_180-2" x1="348.1" y1="468.3" x2="348.1" y2="306.13" xlink:href="#Áåçûìÿííûé_ãðàäèåíò_180"/><clipPath id="clip-path"><path class="cls-1" d="M431.66,77.45a5.72,5.72,0,0,1,4-4.5c3.43-1.19,4.94-.58,5.5-.46,1.63.36,2.46.92,2.31,1.55s-.44,3.24-2.61,4S431.28,78.83,431.66,77.45Z"/></clipPath><clipPath id="clip-path-2"><path class="cls-1" d="M422.12,78.6a5.58,5.58,0,0,0-3.84-4.45c-3.31-1.22-4-.71-4.5-.6-1.6.32-2.06,1-1.93,1.61s.36,3.16,2.46,3.9S422.46,80,422.12,78.6Z"/></clipPath></defs><title>Andromeda_2</title><g class="cls-2"><g id="Layer_2" data-name="Layer 2"><g id="_1" data-name="1"><path class="cls-3" d="M0,475.84s3.17-21.71,4.43-25.51,36.78-60.53,76.66-74.28c0,0,56.35,32.41,76.62,62.85v30.75s12.67-9.82,19-11.08,21.58,19,21.58,19Z"/><path class="cls-4" d="M628.09,442.1v17.73L368,454.26l-56,14-5.37,1.36s-20.62,2.74-42.81,4.06c-16.47,1-33.85,1.16-44.29-1.22a20.59,20.59,0,0,1-7.35-2.84s-.1-.4-.25-1.11c-1-3.85-3.7-16.72.25-25.59,3.25-7.35,18.24-27.72,27.16-39.57l.1-.1c3.91-5.22,6.64-8.72,6.64-8.72L366.52,266S469.34,12.67,488.34,0c0,0,61.21,80.26,85.73,181.35L542,334.83l10.13,12.87-.81,13.93S618,429.38,628.09,442.1Z"/><path class="cls-5" d="M552.1,347.72S504,366.09,476.94,364.41c0,0,46.44-17.74,65-29.56Z"/><path class="cls-6" d="M81.09,376.05s-48.24,14.8-72.77,67.58c0,0,115.61,14,149.39-4.73C157.71,438.9,122.7,395.29,81.09,376.05Z"/><path class="cls-5" d="M551.25,361.65s-27,13.73-36.73,31.47c0,0,59.53,37.51,86.56,45.78s27,3.18,27,3.18Z"/><path class="cls-5" d="M384,306.13C388.26,296,366.52,266,366.52,266s-113,118.15-127.07,137.26h0l-.1.1c-8.92,11.85-23.91,32.22-27.16,39.57-4,8.87-1.21,21.74-.25,25.59l7.6,3.95,9.78,5.07,34.51-3.85L312,468.3c-9.16-62.48-5.37-65.82-5.37-65.82C314,399.87,379.82,316.27,384,306.13Z"/><path class="cls-7" d="M574.05,181.36C557.16,95.44,488.34,0,488.34,0l-2.11,99.23s-19.43,75.16-18.29,91.34S486.23,266,486.23,266L453.37,454.27c8.12-.9,39.72-10.64,61.15-61.15,22-25.44,36.75-31.48,36.75-31.48l.81-13.94L542,334.85,563,234.2C566.39,233,574.05,181.36,574.05,181.36Z"/><path class="cls-8" d="M384,306.13,390.8,412.7,368,454.26l-56,14s-10-62.08-5.37-65.82C325.56,387.22,384,306.13,384,306.13Z"/><path class="cls-5" d="M467.94,190.57,366.52,266S449.07,54.47,488.34,0l-2.11,99.23Z"/><line class="cls-9" x1="351.68" y1="255.06" x2="323.6" y2="91.19"/><line class="cls-9" x1="537.54" y1="217.89" x2="570.98" y2="209.54"/><path class="cls-10" d="M352.38,158.67c15.85-8.12,9.73-16.58,15.53-33.58,4.88-14.31,13.76-11.91,20.94-17.94,4.27-3.58,11.45-6.66,15.19-28.31,1.47-8.49-5.25-20-.33-28C414.8,32.65,433.8,24,450.32,28.72c13.11,3.78,21.58,14.27,24,20.34,8.47,21.29,16.27,33.09,15.39,49.28-7.91,46.33,3.73,38.07,3.74,59.19,0,21.33,3.1,42.08-4.44,65.28-5,15.31-13.54,27.42-34.51,29.41-12.69,1.2-122.57-12.43-131.8-48.38C318,185.66,324,173.21,352.38,158.67Z"/><path class="cls-11" d="M458.88,75.2s6.77,4.31,3.66,36.7-2.82,58.61-1.19,68.18,7.35,51.81-37,36.35-62.49-28.52-54.84-40.8,39.11-38.08,40.6-47.17,5.74-28.59,4.15-41.52S458.88,75.2,458.88,75.2Z"/><path class="cls-12" d="M455.64,123.16c-3.82-1.11-4-.33-3.74-8.9.18-6.86-.06-13.85,2.36-26.48,1.06-5.54-22.22,18-21.92,20.61.9,7.78-2.77,11.79-4.24,11.65-9.7-1-3,14.65,6.44,16.61S465.91,126.12,455.64,123.16Z"/><path class="cls-12" d="M475.83,202.91c3.84.69,30.37,6.93,39.35,8.65s23,6.59,25.33,7.29,6.52,10.42-12.69,8.25-45.81-4.88-50.84-6-13.08-1.35-16.26-11.35C458.58,203,469.62,201.8,475.83,202.91Z"/><path class="cls-12" d="M367.67,150.57c-2.45-3-7.64-11-11-16.41-2.49-4.06-8.09-13.18-12.11-21.39S334.06,92,332.77,89.87s-14.17-2-7,15.92,17.43,42.62,19.18,47.46c2.05,5.68,2.47,14.89,13,14.71C372.85,167.7,370,153.44,367.67,150.57Z"/><path class="cls-13" d="M453.87,89.89c-.36,2-.65,3.9-.87,5.64-6,8.21-17,13.56-20.52,15.14a20.48,20.48,0,0,0-.14-2.28c-.13-1.08,3.88-5.86,8.52-10.62l12.89-8.69Z"/><path class="cls-12" d="M408.53,59.28c-.09,5.75,2,12.14,3,16.09.59,2.3-1.68,6.73.4,12.12a71,71,0,0,0,12.27,20.4,6.13,6.13,0,0,0,5.68,2h0a20.48,20.48,0,0,0,4-1.47,103.62,103.62,0,0,0,11-9l0,0c3.93-3.55,7.42-6.92,8.32-7.92,3.77-4.22,2.82-15.92,2.35-21.78-1-12.13-10.81-27-24.08-27.3C407.74,41.86,408.59,54.84,408.53,59.28Z"/><path class="cls-12" d="M452.25,91.19c.71,0,6.6-.27,7.72-4.15s2.35-11,.21-13.73-5.38.17-5.91,2S452.25,91.19,452.25,91.19Z"/><path class="cls-12" d="M542.39,220.33s5.23,3.36,6.65,5.27,4.22,15.14,4,15.86-2.65,17.32-5.69,19.75c-2.48,2-14.55-9.95-14.32-12.65.19-2.28,1.88-16.28-.27-18.22a23,23,0,0,0-5.15-3.28C522.35,224.43,542.39,220.33,542.39,220.33Z"/><path class="cls-14" d="M532.21,214.2a19.64,19.64,0,0,0-5.81,8.9c-1.28,4.59-1.37,4.75,1.19,5.6,4.21,1.4,2.41,2.18,6.68-1.38a70.3,70.3,0,0,1,10.36-7.21c1.07-.47-.56-1.55-4-3C533.2,213.88,533.3,213.54,532.21,214.2Z"/><path class="cls-12" d="M326.9,81.14s-4.23-5.18-6.52-5.82-15.58,1.58-16.25,1.91c-1.27.64-13.4,5.45-14.45,7.56-3.28,6.65-6.46,14.17-3.77,13.82,1.89-.25,28.19-8.61,29-8.58,3.55.13,7.6,2,11.78,5.81C331,99.83,326.9,81.14,326.9,81.14Z"/><path class="cls-14" d="M336.63,91.1c.36,1-.59,1.09-9,6.85-5.39,3.68-4.83,4-7.18.39-4.15-6.32-4.26-5-2.31-8.67a101.91,101.91,0,0,1,7.15-11.75c.66-1,.66-1,4,2.76C332.94,84.8,336.1,89.67,336.63,91.1Z"/><path class="cls-12" d="M479.19,176.81c.9-8,2.16-23.31,2.25-30.35.38-7-.36-11.85-5.29-15.64-4-3-14.64-6-14.64-6-2.78-.92-3.63,9.89-3.13,18-.62,3.34-1.2,7.61-1.73,13.08-2.6,26.69,3.34,51.87,4.5,55.3s5.57,8.43,10.91,6.73C476.52,216.5,477.82,189,479.19,176.81Z"/><path class="cls-12" d="M436.45,127.54s-2.18-1.18-5-2.55a3.48,3.48,0,0,0-1.13-.94,50.14,50.14,0,0,0-8-2.89,14.52,14.52,0,0,0-6.76-.86,7.29,7.29,0,0,0-3.44,1c-5.1,3.18-22.74,11.59-38,19.71-8.25,4.39-15.1,8.2-20.63,14.19-11.06,12,3.58,13.48,7.1,12.61a232.73,232.73,0,0,0,55.64-20.4h0a54.69,54.69,0,0,0,9.79-5.31C433.65,137.18,439.65,129.53,436.45,127.54Z"/><path class="cls-13" d="M442,69.29s2.23,5.76,7.49,7.54S460.7,84,460.7,84l.39-2.34s-6.26-7.07-11.52-8.34S442,69.29,442,69.29Z"/><g id="Rostro"><path class="cls-15" d="M448,69.82c-.73-.1-5-.76-6.09-1-1.42-.25-2.55,0-5.31-.28s-4.27-.26-4.89-.84a2.88,2.88,0,0,1-1-2.3c.19-.58,1.44-.14,4.27.4s4.53.67,5.57.9,5.93,1.68,6.17,1.73A8.53,8.53,0,0,1,448,69.82Z"/><path class="cls-15" d="M415.69,66.8a9.32,9.32,0,0,1-2.15.93c-1,.24-3.41,1-3.41,1a18.2,18.2,0,0,0,.28,1.92s2.44-.53,3.64-.83a20.71,20.71,0,0,0,3.85-1c1.39-.6,3-.79,2.53-2s-1.08-1.63-1.53-1.71S416.23,66.47,415.69,66.8Z"/><path class="cls-16" d="M431.66,77.45a5.72,5.72,0,0,1,4-4.5c3.43-1.19,4.94-.58,5.5-.46,1.63.36,2.46.92,2.31,1.55s-.44,3.24-2.61,4S431.28,78.83,431.66,77.45Z"/><g class="cls-17"><path class="cls-18" d="M433,74.77c-.59,2.3,1.77,3.22,3.95,3.21a4.34,4.34,0,0,0,4.66-3.49c.45-1.84-1.53-2.86-3.71-2.85S433.42,73,433,74.77Z"/><ellipse class="cls-19" cx="435.63" cy="75.02" rx="0.95" ry="0.91" transform="translate(269.47 484.64) rotate(-77.69)"/></g><path class="cls-20" d="M445.38,73.47a6.13,6.13,0,0,1-1.95.89,22.42,22.42,0,0,0-3.17-1.19,5.91,5.91,0,0,0-3.52-.34,7.42,7.42,0,0,0-5,4.4,8.07,8.07,0,0,1,.91-3A7,7,0,0,1,439,71.18a12.12,12.12,0,0,1,4.11,1,9.18,9.18,0,0,0,3.08,0C446.33,72.16,446,73,445.38,73.47Z"/><path class="cls-16" d="M422.12,78.6a5.58,5.58,0,0,0-3.84-4.45c-3.31-1.22-4-.71-4.5-.6-1.6.32-2.06,1-1.93,1.61s.36,3.16,2.46,3.9S422.46,80,422.12,78.6Z"/><g class="cls-21"><path class="cls-18" d="M418.22,78c2-1.7.74-4-1.08-4.51-1.12-.33-2.59-1-4.44.51-1.32,1.11-1.23,3.08,1.44,3.93C416,78.52,417.58,78.54,418.22,78Z"/><ellipse class="cls-19" cx="414.38" cy="75.73" rx="0.84" ry="0.87" transform="translate(-6.84 80.52) rotate(-11.01)"/></g><path class="cls-20" d="M410.36,75c.91.74,1.61,1.39,1.79,1.54a2.57,2.57,0,0,1,1.61-2.37,6.12,6.12,0,0,1,3.49-.16,7.22,7.22,0,0,1,4.81,4.37,7.71,7.71,0,0,0-.83-2.89A6.72,6.72,0,0,0,415,72.37a5.26,5.26,0,0,0-3.58,1.46,5.3,5.3,0,0,1-2,0A2.85,2.85,0,0,0,410.36,75Z"/><path class="cls-22" d="M424.38,80.49a31.49,31.49,0,0,1-2.17,6.82c-.61.92.43,1.88,1.42,2.34a9,9,0,0,0,3.39.8,7.52,7.52,0,0,1-3.57-.38,4.1,4.1,0,0,1-1.58-1,2,2,0,0,1-.44-.94,1.79,1.79,0,0,1,.19-1C422.56,84.89,423.31,82.64,424.38,80.49Z"/></g><path class="cls-13" d="M473.9,129.44s-4.47,19.51-8.14,29.84a233.2,233.2,0,0,1-9.37,21.81l-.86-11.47,15.36-41.73Z"/><path class="cls-12" d="M402,146.45c.66,0,5-.3,33.36-2.38,12.08-.88,20.87-18.28,22.25-20.18a9.35,9.35,0,0,0-1.34-.3c-23-3.37-32.88-4.6-41.08-3.22-3.7.63-7.48,8.7-10.51,16.95A84,84,0,0,0,402,146.45Z"/><path class="cls-23" d="M395.32,160.15c-2,6.79-1.18,12,2.24,15.41,0,0-1.17,12.92-2.22,19.24a26.18,26.18,0,0,1-3,9.1,80.42,80.42,0,0,0,40.13,9.87,29.67,29.67,0,0,1,3.26-7.15C445.4,191,456,174.2,456.06,174.14s11.49-23.78,16.69-45.58c0,0-4.94-1.9-15.05-4.81a.63.63,0,0,0-.12.14c-1.38,1.9-10.17,19.3-22.25,20.18-28.37,2.08-32.7,2.35-33.36,2.38h-.12A58.61,58.61,0,0,0,395.32,160.15Z"/><path class="cls-13" d="M431.18,144.38,403,144.07a38.18,38.18,0,0,0-6.42,8c-1.75,2.73-3.22,5.65-3.22,5.65l3.21-1.28,5.19-10Z"/><path class="cls-23" d="M285.45,355.76c-18.87,79.92-19.72,100.42-18.63,110.69.15,1.45,12.49,13.74,34.84,20.49,14.13,4.26,50.2-1.24,63.29-1.7,13.6-.48,67-7.41,67.07-10.24,0-.21,1.85-2,0-6.41-8.23-19.32-14.78-31-14.91-63.58-.07-19.13,19.95-95.77,22.53-104,5.41-17.34,3.94-30.26-.89-46.5-1-4.49-2.42-8.56-3.34-13.09-1.49-7.33-3.89-18.11-3.8-22a21.58,21.58,0,0,1,.88-5.61,80.42,80.42,0,0,1-40.13-9.87,14.47,14.47,0,0,1-2.82,3.45c-1.87,1.65-69.86,83.41-72.57,87C303.14,313,289.73,337.64,285.45,355.76Z"/><path class="cls-10" d="M422.93,50.14c.79,0,2.38-2.5,6.5-2.18,5.13.41,7.84,4.9,8.82,10.58,1.53,8.89,4.57,13.82,10.86,16.62,2.46,1.09,9.61,1.65,14.24,11.75,2.82,6.14,4.67,3.64,6.38-1.07,2.91-8-3.5-24.2-5.05-25.68s-6.75-12.59-15.48-17.27-28.83-3.31-32.61-1.63c-10.32,4.6-11.76,16.23-10.79,21.07,1,5,6.08,14.38,4.66,8.38a33.82,33.82,0,0,1,.29-13.88c.87-3.27,2.3-6.8,5.3-8.06C419.53,47.3,422.06,50.14,422.93,50.14Z"/><path class="cls-23" d="M469.25,74.57c2.82-.16,2.54-.37,2.54-.37a4.61,4.61,0,0,0-.34-1.32c-2.31-6.8-10.29-21.47-20.62-30.8-5.43-4.9-18.56-12.39-22.06-12.47-.94,0-5,1.51-10.66,5.58-6.4,4.63-8.33,7.23-9.83,9.2s-2,2.61-2,2.61a62.94,62.94,0,0,1,8.58-4.84c3.14-1.27,7.54-3,12.63-2.41,8.2,1,16.58,4.34,25.31,12.91C461.87,61.59,469.25,74.57,469.25,74.57Z"/><line class="cls-9" x1="321.27" y1="283.74" x2="544.95" y2="320.54"/><line class="cls-9" x1="275.49" y1="360.13" x2="556.22" y2="282.6"/></g></g></g></svg>