<svg xmlns="http://www.w3.org/2000/svg" xmlns:xlink="http://www.w3.org/1999/xlink" viewBox="0 0 187.08 515.52"><defs><style>.bc7f1309-0a6a-45f1-a367-c35c879bbc7b{fill:none;}.b492ce31-258e-46f4-8200-75fc7eadeb21{fill:#ad9559;}.b3bb63a3-7a66-4156-8cfc-0508a0c6b8d7{fill:#a3844b;}.fdb8732e-465c-4465-bb26-b9e974e1faee{fill:#f4c49d;}.bca67604-b75c-429a-a728-85ebc19a9344{fill:#fbfdfb;}.a402a3ce-8373-4167-9650-535c023fc16f{clip-path:url(#af7912da-57da-4c36-b6c5-44366b2941bf);}.aafa9132-db90-4b07-be2a-2f307b97c710{fill:#1d4668;}.bb285b47-17b0-48c9-9fe9-106f2bf4ac58{fill:#ffffba;}.a68862ac-9257-4af6-af6b-0aa696cbbeb9{fill:#1c1c1c;}.e0cb2e54-6a49-4807-aef9-d398a846e22f{clip-path:url(#e44e2607-23db-456e-8797-aaf324f06b29);}.bd7b1284-ce79-41bd-b233-38401e528a97{fill:#c69073;}.a05df50c-38ac-46ab-a5a2-1c1f0a5073e0{fill:#8e7336;}.e3cf4602-7af3-4122-b5e2-547b49c02323{fill:#e2af8d;}</style><clipPath id="af7912da-57da-4c36-b6c5-44366b2941bf"><path id="b42f442b-9cf1-4fbb-8858-b6fd38b70a8a" data-name="SVGID" class="bc7f1309-0a6a-45f1-a367-c35c879bbc7b" d="M86.11,57.14a6.19,6.19,0,0,0-4.74-4.46c-3.79-1-5.36-.17-6,0-1.72.53-2.56,1.22-2.34,1.88s.77,3.44,3.17,4S86.64,58.59,86.11,57.14Z"/></clipPath><clipPath id="e44e2607-23db-456e-8797-aaf324f06b29"><path id="f259d8ad-846e-42dc-b94c-aa9f16224383" data-name="SVGID" class="bc7f1309-0a6a-45f1-a367-c35c879bbc7b" d="M95.81,57.14a6,6,0,0,1,4.8-4.13c3.73-.77,4.34-.12,4.9.09,1.65.59,2,1.39,1.8,2s-.9,3.31-3.26,3.76S95.23,58.53,95.81,57.14Z"/></clipPath></defs><title>Andromeda_3</title><g id="fcb0b866-e6ef-422c-8538-28227b4e3a09" data-name="Layer 2"><g id="b2a49bc8-4d5c-4c7a-9da4-a5c583b10229" data-name="2"><path class="b492ce31-258e-46f4-8200-75fc7eadeb21" d="M144.87,154.53c-1.52-16.23-12.27-25.9-16.54-40.47-5-17.13.59-24.81-.59-44.9-.55-9.27-7.49-20.53-10.18-32.63-5-22.4-22.47-37.33-41-36.5-14.7.67-26,9-30.07,14.77C32.27,35,33.91,47.81,30.76,65c3.2,50.54-14.69,49.78-16.17,72.51-1.77,27.36-16.46,32-14.39,58.17C1.57,213,7.5,227.83,29,235.18c13,4.45,101.9,21.93,120.62-13.44C159.06,203.86,146.68,173.82,144.87,154.53Z"/><path class="b3bb63a3-7a66-4156-8cfc-0508a0c6b8d7" d="M55.1,66.89s-.82,25.31-7.81,45.7-13.84,70.66-8,87.44S54.4,223.66,73.05,221.3s48.29-2.11,55.33-16.86S109.94,130,109,119.86s-2.71-18.8.31-28.84-3.08-46.44-3.08-46.44Z"/><path class="fdb8732e-465c-4465-bb26-b9e974e1faee" d="M61.75,105.51c4.19-.91,4.28-.06,4.65-9.3.3-7.4,1-14.9-.65-28.66-.74-6,22.63,21,22.12,23.73-1.53,8.31,2.13,12.89,3.73,12.84,10.5-.35,2.14,16-8.11,17.41S50.49,108,61.75,105.51Z"/><path class="fdb8732e-465c-4465-bb26-b9e974e1faee" d="M109.22,36.76c.62,6.17-1,13.23-1.75,17.56-.43,2.52,2.41,7.08.68,13.05a77,77,0,0,1-11.29,23,6.59,6.59,0,0,1-5.92,2.67h0a21.27,21.27,0,0,1-4.46-1.22,110.12,110.12,0,0,1-12.63-8.6l0,0c-4.55-3.44-8.61-6.74-9.67-7.74-4.43-4.18-4.49-16.83-4.53-23.18-.07-13.11,9.13-30,23.35-31.54C108.45,18,108.74,32,109.22,36.76Z"/><path class="fdb8732e-465c-4465-bb26-b9e974e1faee" d="M65.19,75.07c-.77,0-7.11.32-8.67-3.74S53,59.71,55,56.59s5.78-.31,6.54,1.65S65.19,75.07,65.19,75.07Z"/><path class="fdb8732e-465c-4465-bb26-b9e974e1faee" d="M27.86,151.58c.45-8.72,1.79-25.19,2.93-32.69.81-7.47,2.46-12.54,8.37-15.7,4.75-2.54,17.78-2.63,17.78-2.63,3.12-.49,1,10-1,18.49.07,3.66-3.53,8.31-3.93,14.21-1.92,28.86-9.18,54.6-11,58.05s-7.4,8-12.79,5.24C23.73,194.26,27.18,164.76,27.86,151.58Z"/><path class="fdb8732e-465c-4465-bb26-b9e974e1faee" d="M86.52,104.59s12.56.62,16.75,2c3,.81,8.77,4.11,11.09,7.51,5,7.28,12.69,23,21.08,38.77,4.74,8.89,9,16.2,10.56,24.84,3.15,17.28-11.06,10.2-13.75,7.37S112.9,161.88,96.82,133.6l2.26-.48c-1.77-2.34-9.28-4.52-11.5-9.3C83.49,115,82.45,104.55,86.52,104.59Z"/><g id="bc75d99f-e8cf-47b0-918c-a5f292f37be2" data-name="Rostro"><path class="bca67604-b75c-429a-a728-85ebc19a9344" d="M86.11,57.14a6.19,6.19,0,0,0-4.74-4.46c-3.79-1-5.36-.17-6,0-1.72.53-2.56,1.22-2.34,1.88s.77,3.44,3.17,4S86.64,58.59,86.11,57.14Z"/><g class="a402a3ce-8373-4167-9650-535c023fc16f"><path class="aafa9132-db90-4b07-be2a-2f307b97c710" d="M83.93,54.18c.85,2.42-1.08,3.49-3.42,3.68s-4.16-.22-4.75-3c-.42-2,.79-3.17,3.13-3.36S83.29,52.34,83.93,54.18Z"/><ellipse class="bb285b47-17b0-48c9-9fe9-106f2bf4ac58" cx="81.62" cy="54.89" rx="0.99" ry="1.03" transform="translate(-12.59 26.62) rotate(-17.22)"/></g><path class="a68862ac-9257-4af6-af6b-0aa696cbbeb9" d="M71,54.12a6.53,6.53,0,0,0,2.18.78,24.08,24.08,0,0,1,3.29-1.57c2-.8,3-.85,3.74-.69A8,8,0,0,1,86,56.91a8.58,8.58,0,0,0-1.24-3.1,7.49,7.49,0,0,0-7.18-2.72,12.75,12.75,0,0,0-4.32,1.49,9.64,9.64,0,0,1-3.31.24C69.86,52.81,70.26,53.65,71,54.12Z"/><path class="bca67604-b75c-429a-a728-85ebc19a9344" d="M95.81,57.14a6,6,0,0,1,4.8-4.13c3.73-.77,4.34-.12,4.9.09,1.65.59,2,1.39,1.8,2s-.9,3.31-3.26,3.76S95.23,58.53,95.81,57.14Z"/><g class="e0cb2e54-6a49-4807-aef9-d398a846e22f"><path class="aafa9132-db90-4b07-be2a-2f307b97c710" d="M100.15,56.76c-1.89-2.14-.25-4,1.78-4.26,1.25-.17,2.94-.7,4.66,1.25,1.23,1.4.45,3.73-2.52,4.21A4.19,4.19,0,0,1,100.15,56.76Z"/><ellipse class="bb285b47-17b0-48c9-9fe9-106f2bf4ac58" cx="104.51" cy="55.32" rx="0.94" ry="0.9" transform="translate(17.37 135.26) rotate(-70.43)"/></g><path class="a68862ac-9257-4af6-af6b-0aa696cbbeb9" d="M108.91,55.19c-1.08.64-1.93,1.23-2.15,1.35a2.76,2.76,0,0,0-1.33-2.78,6.51,6.51,0,0,0-3.7-.73,7.76,7.76,0,0,0-5.83,3.88A8.37,8.37,0,0,1,97.25,54a7.27,7.27,0,0,1,7.1-2.33,5.82,5.82,0,0,1,3.59,2.13,5.55,5.55,0,0,0,2.17.3C110.22,54.05,109.65,54.76,108.91,55.19Z"/><path class="bd7b1284-ce79-41bd-b233-38401e528a97" d="M94.15,61c.67,1.1,1.24,2.25,1.83,3.39s1.14,2.27,1.73,3.4a1.84,1.84,0,0,1,.3,1.08,2,2,0,0,1-.39,1.05A4.24,4.24,0,0,1,96,71.2a8,8,0,0,1-3.8.75,9.74,9.74,0,0,0,3.58-1.17c1-.59,2-1.71,1.3-2.65a28.55,28.55,0,0,1-1.68-3.48C95,63.45,94.51,62.25,94.15,61Z"/><path class="a05df50c-38ac-46ab-a5a2-1c1f0a5073e0" d="M69.59,49.09a46.8,46.8,0,0,0,6-1.79A15.36,15.36,0,0,1,80.76,47a46.54,46.54,0,0,0,4.81.25c1-.09,1.06-.43.76-1.55-.23-.85-2.62-1.08-3.86-1.1A18.29,18.29,0,0,0,77,45c-1.63.56-4.68,1.89-5.94,2.48S70.36,48.47,69.59,49.09Z"/><path class="a05df50c-38ac-46ab-a5a2-1c1f0a5073e0" d="M102.13,44.85a12.09,12.09,0,0,1,6.25,1.61s.54,1.85,0,1.63a13.71,13.71,0,0,0-3.67-.94,32.36,32.36,0,0,0-4.16.24c-1.1.11-3.5.42-3.43-.58a1.73,1.73,0,0,1,1.2-1.62A14.7,14.7,0,0,1,102.13,44.85Z"/></g><path class="fdb8732e-465c-4465-bb26-b9e974e1faee" d="M110.64,137.51c-.68-.21-5.16-1.57-34.38-10.89C63.82,122.66,59,102.2,58,99.87a9.05,9.05,0,0,1,1.47,0c24.93,2.25,35.63,3.44,43.88,7,3.72,1.58,5.66,11,6.75,20.41A85.69,85.69,0,0,1,110.64,137.51Z"/><path class="bca67604-b75c-429a-a728-85ebc19a9344" d="M114.17,153.54c.35,7.61-1.79,12.91-6.23,15.59,0,0-2,13.84-2.5,20.73a31.29,31.29,0,0,0,.83,10.9c-6,1.64-12.29,3.2-18.84,3.5-9,.4-18.51.27-26.61-1.87-.13-2.72.21-7.49-.72-10.3C53.92,173.25,47,153,47,152.93s-6.2-26.31-6.16-50.47c0,0,5.78-2.26,17.12-2.77l.09.18c1,2.33,5.8,22.79,18.24,26.75,29.22,9.32,33.7,10.68,34.38,10.89l.13,0S113.83,145.94,114.17,153.54Z"/><path class="bca67604-b75c-429a-a728-85ebc19a9344" d="M161.43,374.62c6.7,88.28,28.26,113.9,25.38,124.66-.41,1.52-15.6,12.54-40.53,16-15.77,2.18-53.27-9.73-67.12-12.41-14.42-2.79-70.11-19.12-69.73-22.15,0-.23-1.63-2.47,1.09-6.82,12-19.2,11.94-145.89,12.62-155.2,2.13-29.47,16.33-57.48,24.2-74,1.83-4.61,4-8.7,5.75-13.38,2.82-7.55,7.17-18.63,7.74-22.8a23.3,23.3,0,0,0,0-6.13,86.87,86.87,0,0,0,44.41-3.78,15.43,15.43,0,0,0,2.42,4.15c1.71,2.07,27.2,48.77,29.47,53.1C148.73,278,159.91,354.6,161.43,374.62Z"/><path class="fdb8732e-465c-4465-bb26-b9e974e1faee" d="M42.85,192.27c.44,4.2,3.09,33.54,4,43.35s.08,25.78,0,28.42-8.83,9.88-12.35-10.67-7.55-54-7.85-59.55S23,185,32.43,178.67C38.77,174.43,42.14,185.52,42.85,192.27Z"/><path class="fdb8732e-465c-4465-bb26-b9e974e1faee" d="M145.28,174.16c1.81,3.8,5.58,17.26,7.46,23.88,1.4,4.93,4.56,16.33,7.65,25.69,5.61,16.94,8.57,25.5,9.27,28s-8,10.32-17-8.47-20.27-53-21.74-58.37c-2.09-7.64-.82-6.85-1.35-15.32C128.62,155.15,142.62,168.55,145.28,174.16Z"/><path class="fdb8732e-465c-4465-bb26-b9e974e1faee" d="M154.47,246.75s12-1.56,13.22.7S174.4,256,178.79,263c1.56,2.5-1.83,15-4.21,16.29-4.13,2.3-15.15-9.25-16-12.05-1-3.44-1.78-7.75-2-8.58C155.59,255,154.47,246.75,154.47,246.75Z"/><path class="fdb8732e-465c-4465-bb26-b9e974e1faee" d="M47.27,253.57s-11.56,1-12,3.54-3.66,14.16-5.74,22.18c-.73,2.85,5.73,10.84,8.41,11.39,4.63.95,11.27-12.14,11.24-15.06,0-3.6-.24-9.18-.28-10C48.68,261.76,47.27,253.57,47.27,253.57Z"/><path class="b492ce31-258e-46f4-8200-75fc7eadeb21" d="M92.91,28.27c-.86.08-2.8-2.47-7.19-1.74-5.48.91-8,6-8.5,12.18C76.4,48.39,73.58,54,67.08,57.56,64.54,59,53.39,60.48,54.72,72.39c.28,2.59-6.53,3.45-8.8-1.46C42.05,62.58,47.45,44.61,49,42.88s6.08-14.14,15-20,30.67-6.21,34.88-4.75c11.52,4,14.14,16.35,13.54,21.63-.62,5.51-5.21,16-4.23,9.43a36.53,36.53,0,0,0-1.6-14.88c-1.24-3.44-3.09-7.09-6.43-8.17C96.29,24.9,93.83,28.18,92.91,28.27Z"/><path class="bca67604-b75c-429a-a728-85ebc19a9344" d="M45.4,58.79c-3,.08-2.76-.17-2.76-.17a4.77,4.77,0,0,1,.24-1.45c1.86-7.52,9.07-24,19.31-35C67.56,16.42,81,7.17,84.73,6.76c1-.11,5.55,1.15,12,5,7.3,4.39,9.61,7,11.41,9s2.4,2.61,2.4,2.61a68.28,68.28,0,0,0-9.65-4.4c-3.5-1.08-8.39-2.58-13.8-1.42-8.7,1.86-17.41,6.19-26,16.2C52.13,44.16,45.4,58.79,45.4,58.79Z"/><path class="e3cf4602-7af3-4122-b5e2-547b49c02323" d="M66.81,84.88c3.81,2.42,10.38,6.36,14.55,7.71a35.94,35.94,0,0,0,6.18,1.55,17.31,17.31,0,0,1,.17-1.83l-1.26-.44a109.68,109.68,0,0,1-12.64-8.6l0,0c-2.73-2.06-5.29-4.08-7.13-5.57C66.8,80.32,66.84,82.69,66.81,84.88Z"/><path class="e3cf4602-7af3-4122-b5e2-547b49c02323" d="M38.52,134.6c.56,3.67,4.81,22.86,8.5,34.69.68-3.23,1.34-6.71,2-10.41-1.25-3.69-2-5.93-2-5.95s-6.18-26.28-6.17-50.43a10.94,10.94,0,0,0-1.64.68l-.71.4C38.29,111.17,37.93,130.69,38.52,134.6Z"/><path class="e3cf4602-7af3-4122-b5e2-547b49c02323" d="M55.1,66.89c.35,1.34.76,2.61,1.14,3.7h0S60.68,63.45,66.88,59s9.63-7.82,10.28-19.66c-.89,9.3-3.73,14.71-10.08,18.21C65,58.71,57.14,59.93,55.1,66.89Z"/><path class="e3cf4602-7af3-4122-b5e2-547b49c02323" d="M110.64,137.51l-.87-3.27s-30.08-6.53-32.16-7.19Z"/></g></g></svg>