<svg xmlns="http://www.w3.org/2000/svg" xmlns:xlink="http://www.w3.org/1999/xlink" viewBox="0 0 1064.4 464.24"><defs><style>.a30930d8-6675-4410-b904-ff05d4a3e412{fill:none;}.e484f336-a1ec-4227-ba69-a77490e38ed9{isolation:isolate;}.b7d9effd-3255-4266-a96a-afb113aedeee{fill:#90dee9;opacity:0.25;mix-blend-mode:screen;}.b3a6bb5e-adc5-4129-ab99-6294371707bd{clip-path:url(#a518e43c-1200-4f18-a62b-13183b2c364f);}.b62996ae-137b-4a72-8262-6e6f305e11d2{fill:#0d1c42;}.ac8501d5-1bdd-42b1-bf23-75c4f34fdb26{fill:#283c70;}.e53bdcf9-33a4-458f-b854-9464edc731a7{fill:#90a3d3;}.e81b3c6a-3156-40d1-bd16-2f298bbc4490{fill:#223560;}.e7a851e4-9c75-4f27-907a-6b4f98590821{fill:#294a84;}.eea0f5ca-466a-44a7-affb-2893136f06ee{fill:#050d1e;}.acec36f7-d9a4-489f-a9f5-695a8b308682{fill:#fff;}</style><clipPath id="a518e43c-1200-4f18-a62b-13183b2c364f" transform="translate(0 -61.56)"><rect id="ac568eb9-2dc7-4343-a7fc-6322ae11720c" data-name="SVGID" class="a30930d8-6675-4410-b904-ff05d4a3e412" x="38" width="1142.3" height="339" transform="translate(1218.29 339) rotate(-180)"/></clipPath></defs><title>Cetus_1</title><g class="e484f336-a1ec-4227-ba69-a77490e38ed9"><g id="bf8f37ad-7dc8-45be-b442-456f4560f4ef" data-name="Layer 2"><g id="af132e37-91ab-4080-b554-8c517798c19f" data-name="3"><path class="b7d9effd-3255-4266-a96a-afb113aedeee" d="M0,349.34s344.67,5.53,538.3,2.89c211.9-2.89,406.24-5.45,406.24-5.45l-193-18.95H377.22Z" transform="translate(0 -61.56)"/><g class="b3a6bb5e-adc5-4129-ab99-6294371707bd"><path class="b62996ae-137b-4a72-8262-6e6f305e11d2" d="M452.06,68.68s-7.29,7.74-30.48,11.15c-47.94,7-30.74,50.1-65.13,62.28-30,10.62-55.41,16.94-82.07,39.43S236.13,213,207.27,245.38l170.56-72.45,53.33-28.32,22.49-38.23Z" transform="translate(0 -61.56)"/><path class="ac8501d5-1bdd-42b1-bf23-75c4f34fdb26" d="M960.45,140.67s-64,15.6-78.54,45.18-15.83,39.58-10.41,81.24,5.83,136.64-45,181.21S695.7,542.46,607,470.8,549.47,316.66,490.31,327.91,457,536.21,279.52,525.37c-73.46-4.48-120-43.32-121.65-147.47-.76-47.66,11.67-159.14,184.55-207.46,19.41-5.43,54.86-7.51,81.66-32.08,34.88-32,22.49-82.07,29.57-67.07,22.41,47.45-17.77,96.65-75,114.14C172.46,248.5,194.9,424.32,231.19,436.22,337.84,471.22,342.9,336,359.5,294.58c17.78-44.32,80-100,155.81-85.82,69.39,13,97.48,44.58,118.73,81.24s52.49,67.9,100,28.74,39.48-124,42.91-158.3c2.56-25.57,31.25-78.32,65-80.41s75.82-5.83,105.4,10.42S960.45,140.67,960.45,140.67Z" transform="translate(0 -61.56)"/><path class="e53bdcf9-33a4-458f-b854-9464edc731a7" d="M161.63,420.65c.59,1.71,24.68,70.39,99.35,72.86,75.61,2.49,111.23-25,133.1-63.12s38.74-152.47,99.36-156.22,65.61,43.12,101.23,97.48,100.61,99.36,157.47,75,83.12-77.49,91.24-136.85c5.17-37.79-31.66-209.55,91-161.64l1.13.46c-19.64,7.41-45.08,19.93-53.62,37.24-14.58,29.58-15.83,39.58-10.41,81.24s5.83,136.64-45,181.21S695.7,542.46,607,470.8,549.47,316.66,490.31,327.91,457,536.21,279.52,525.37C217.13,521.57,174.19,493,161.63,420.65Z" transform="translate(0 -61.56)"/><path class="e81b3c6a-3156-40d1-bd16-2f298bbc4490" d="M937.91,147.41s-22.72,5.4-31.27,5.66-6.77-2.81-6.77-4.21,1.79-4.09,2.43-7.79-3.83-8.68-6.51-11.11-5.75-4.47-10.21-3.57a119.42,119.42,0,0,1-20.05,2.42c-9.44.39-15.83-1.91-24.89-6.64a89.15,89.15,0,0,1-17.11-11.87c-.64-.64-1.27-5.23-.25-4.72s11.7,9.51,22.08,11,26-9.45,26-9.45a70.49,70.49,0,0,0-8.42-6c-3.32-1.79-12.26-5.87-27.32-5-10.94.65-23.57,3.39-29.66,4.85,7.24-8.11,15.47-14.71,24.26-18.22l48.68,10.31Z" transform="translate(0 -61.56)"/><path class="e7a851e4-9c75-4f27-907a-6b4f98590821" d="M986.06,128.15c-10.2,8.12-31.87,16-51.66,20s-29.16,3.54-31,1.66,6.66-6.66-1.25-17.28-13.54-9-20-8.55-20.2,7.3-39.78-4.37S825.26,107.32,824,104s4,3.33,6.66,4.16,15.73,7.17,27.71,2.92,16.24-6.67,16.24-6.67A43.41,43.41,0,0,0,843.38,93c-19.37.83-25.41,1.25-50.83,8.54s-94.35,17.29-121.85-4,5.83.63,25.62,2.5,48.95,1.88,88.11-16.66,87.28-18.75,97.28-18.75,15.62.42,18.95,0,23.54-4.79,42.91-2.29,28.33,7.08,31,8.12a20.28,20.28,0,0,1,4.79,2.71,122.86,122.86,0,0,0,30.83,1.25c10-.85,17.28-4,18.33-3.75s23.32,11,26.66,13.54,9,22.5,9.16,24.16-1.66-.41-6.87-1.66a14,14,0,0,1-10,13.33c-10.41,3.54-23.54,4-34.79,3.54S991.35,123.94,986.06,128.15Z" transform="translate(0 -61.56)"/><path class="e81b3c6a-3156-40d1-bd16-2f298bbc4490" d="M978.24,86.06c.39-1.58-5.46-5.6-11.28-7.5-6.84-2.23-18.77-3.32-27-4.26-4.42-.5-1.42,10.37,5.18,13.67,6.17,3.08,11.66,5.35,20.45,4S977.66,88.35,978.24,86.06Z" transform="translate(0 -61.56)"/><g id="fc97a02c-a612-41ef-815d-b1664b2026a9" data-name="Ojo"><path class="eea0f5ca-466a-44a7-affb-2893136f06ee" d="M972.73,85.31c.29-1.14-4-4.07-8.2-5.45-5-1.62-13.64-2.41-19.59-3.09-3.21-.37-1,7.53,3.77,9.93,4.48,2.24,8.47,3.89,14.86,2.92S972.32,87,972.73,85.31Z" transform="translate(0 -61.56)"/><circle class="acec36f7-d9a4-489f-a9f5-695a8b308682" cx="965.01" cy="20.62" r="1.18"/></g><path class="eea0f5ca-466a-44a7-affb-2893136f06ee" d="M1031.89,81c2,.67,5.73,1.84,8.12,5.69s2.19,4.06,1.36,4.06-8.75-4.89-11.15-5.94S1029.43,80.19,1031.89,81Z" transform="translate(0 -61.56)"/><path class="e81b3c6a-3156-40d1-bd16-2f298bbc4490" d="M1057.51,106.7v.16a14,14,0,0,1-10,13.17c-10.41,3.54-23.54,4-34.78,3.54-8.45-.32-16.26.05-21.87,2-2.18-1.33,54.93-24,54.93-24C1050.51,103.41,1057.51,106.7,1057.51,106.7Z" transform="translate(0 -61.56)"/></g></g></g></g></svg>