<svg xmlns="http://www.w3.org/2000/svg" viewBox="0 0 211.14 530.25"><defs><style>.bad16d1c-6a7e-4621-8e82-996992942bc5{fill:#2b2824;}.f51fdab0-ddf4-495c-b28e-da02c5c24f95{fill:#e2b596;}.b75574ef-3312-4346-919c-ced843f60b7f{fill:#cea284;}.edd7ef6c-432b-4283-b5f1-7209d1d9f7f6{fill:#fbfdfb;}.e9a60d74-c848-4d42-980c-97baa5885ea6{fill:#f2f2f2;}.bc637679-a427-4315-b2c8-f1da46015fff{fill:#fff;}.b4f19f64-904c-45af-a6d0-fd63091af7b7{fill:#6d4716;}.b3b65be8-ac25-48c7-9fda-962038ff138f{fill:#e2e2e2;}.ae8b9ff9-ad7e-4bc6-b29d-780446fdc737{fill:#211f1d;}.b10ef26e-b4e4-4878-9f67-5ed6fc820701{fill:#b78b6c;}.ad3479dc-f7c3-46c6-8de4-064d1ebfca1d{fill:#442915;}</style></defs><title>Perseo_2</title><g id="faefb7a2-a982-4984-ad9d-68d25028fd3f" data-name="Layer 2"><g id="b8ad888a-defb-4915-923c-42c3874ab7d7" data-name="2"><path class="bad16d1c-6a7e-4621-8e82-996992942bc5" d="M49.4,24.5c1.2.42,2.72.06,6-1.37s4.8-6.05,5.82-9.06S64.64,9.39,70,9.28s9.81.25,9.81.25c-3.22-2.11-2.19-6.76-1.62-7.7s1.66-3.39,1.63-.37,2,4,7.54,4.64,8.83-2.91,14.72,3.34a6.46,6.46,0,0,1,1.79,5.75c3.36,1.45,6.47,2.94,8.61,4.1,2.7,1.45,4.56,6.79,5.49,12.72a14.92,14.92,0,0,0,.9,2.06A8,8,0,0,0,123.51,38c.43.22-1.48,3.31-4.83,3.56-.05,3.77-.54,7-1.47,8.84-1.91,3.66-.63,14.24-1,16.1-.8,3.76-1.49,5.25-2.54,11.94a2.66,2.66,0,0,1-1.52,1.34c-8.49,1.56-37.28,11.25-48.9-4.06-.29-.38,1-1.67.6-5.42a22.77,22.77,0,0,0-2.73-9.51S57.39,64.63,56,64.1c-.75-.29,3.12-12.24-2.76-21.42-3-4.6-.35-11,3.27-15.94-2.07.52-4.27-.38-5.26-.55C50,26,48.2,24.07,49.4,24.5Z"/><path class="f51fdab0-ddf4-495c-b28e-da02c5c24f95" d="M110.64,58.74s.63,21.93,2.91,28.57,6.79,10.64,9.52,13.38,2,23.79-10.56,25.11S86,127.06,83.82,116.93s1.79-10.49,1.84-17.63a55.34,55.34,0,0,0-1.59-13.23S103,73.57,110.64,58.74Z"/><path class="f51fdab0-ddf4-495c-b28e-da02c5c24f95" d="M50.61,193.32c2.37-.51,16.34,6.4,9.27,23.21S33.5,266.61,21,273.18s-10.51-7.2-9-11.51,6.85-16.58,9.3-28.33S32,197.32,50.61,193.32Z"/><path class="f51fdab0-ddf4-495c-b28e-da02c5c24f95" d="M187.87,179.13c2.06-1.28,17.55.48,16.59,18.69s-7.85,56.06-17.35,66.46-12.33-3.21-12.39-7.77.82-17.92-.86-29.81S171.73,189.19,187.87,179.13Z"/><path class="f51fdab0-ddf4-495c-b28e-da02c5c24f95" d="M111.51,52.33c2.5-1.83,8.09-7,7.71,5.41-.1,3.44-2.06,10.34-4,11.5s-3.74,2-3.74,2Z"/><path class="b75574ef-3312-4346-919c-ced843f60b7f" d="M111.66,77.05c-1.66,2.5-5.47,8.48-11.84,12.82a26.64,26.64,0,0,1-14.16,4.89,29.49,29.49,0,0,1-.59-3.65c4.32-1.62,14.9-5.47,17.7-8.73,3.26-3.79,8.32-10.61,9.42-11.91C112,72.48,111.81,74.75,111.66,77.05Z"/><path class="f51fdab0-ddf4-495c-b28e-da02c5c24f95" d="M109.52,77.41c-1.82,2.55-13,10.81-13,10.81-1.94,1.46-12.68,6.13-16.21,4.54-2.57-1.16-4.86-4.19-6.83-8.81S65.83,70.48,65.6,64.71a48.75,48.75,0,0,0-1.73-13.14,25.88,25.88,0,0,1-.65-4.8h0C62.9,41,64,34.58,65.37,33.13a5.64,5.64,0,0,1,1.55-1c2.37-1.12,7-2.37,13.56-2.8,0,0,0,0,0,0a.11.11,0,0,0,.06,0,80.5,80.5,0,0,1,11.83.14,35.46,35.46,0,0,1,7.22,1.27c13.49,4,12.26,15.32,12.64,20.59C112.59,55.63,113,72.57,109.52,77.41Z"/><path class="b75574ef-3312-4346-919c-ced843f60b7f" d="M63.22,46.76C62.9,41,64,34.58,65.37,33.13a5.64,5.64,0,0,1,1.55-1l1,.21a18,18,0,0,0-2.41,4.68C65,39.2,63.41,45.93,63.22,46.76Z"/><path class="b75574ef-3312-4346-919c-ced843f60b7f" d="M107.37,63.37a13.9,13.9,0,0,1-2.12-4.84c-.37-2.38-2-9.91-2.27-14.2s-.42-6.31-4.1-10.4c-3.51-3.9-17-4.52-18.31-4.57a80.5,80.5,0,0,1,11.83.14,35.46,35.46,0,0,1,7.22,1.27c2.83,1.85,5.13,3.72,5.13,3.72l2.42,11.27Z"/><path class="f51fdab0-ddf4-495c-b28e-da02c5c24f95" d="M13.75,257.28S2.3,279.82.72,284.56s-1.07,5.8,6.68,12.27c8,6.66,10.17,3.87,13.8,1.93a33.3,33.3,0,0,0,6.28-4.6c2.41-2.17,1.35-13.38.88-16.65-1-6.72-.93-7.1-.31-9.94C29,263.17,13.75,257.28,13.75,257.28Z"/><path class="f51fdab0-ddf4-495c-b28e-da02c5c24f95" d="M41.44,119.24c-4.17,18.69-9.82,42.24-7.12,65.54s4.89,30.37,14.31,31.41S65.74,212,68.05,192s5.68-24.1,6.33-40.51,1.77-34.94-8.3-45C62,102.38,44.57,105.23,41.44,119.24Z"/><path class="b75574ef-3312-4346-919c-ced843f60b7f" d="M54.86,108.14S51.15,137.75,58,167.59s8.67,32.47,8.67,32.47l2.87-14.52Z"/><path class="edd7ef6c-432b-4283-b5f1-7209d1d9f7f6" d="M57.57,105c-7.88.77-.19,39.72,1.73,47.36,4.12,16.41,16.31,63.58,21.07,76.56s17.21,9.65,33.6,8.69,34.39.58,40.53-16.49c4.07-11.33,3.73-64.21,4.27-81.71.61-19.57-2.82-42.16-6.49-41.89C129.74,99.17,67.36,104,57.57,105Z"/><path class="edd7ef6c-432b-4283-b5f1-7209d1d9f7f6" d="M77.05,103.35s6.58,9.21,28.83,6.76,23.46-10.86,23.46-10.86l-25.61,1.46Z"/><path class="e9a60d74-c848-4d42-980c-97baa5885ea6" d="M147.67,98.7s-6.91,3.75-7.13,15.13,3.69,31.35,7,38.24,10.78,15.76,10.78,15.76L159.6,125Z"/><path class="f51fdab0-ddf4-495c-b28e-da02c5c24f95" d="M171.92,104.49s23.08,37.91,28,60.84,5.14,30.32-3.44,34.35S179,201.21,170.31,183s-13.13-21-19-36.32-12.92-32.51-6.63-45.29C147.19,96.23,161.15,95,171.92,104.49Z"/><path class="f51fdab0-ddf4-495c-b28e-da02c5c24f95" d="M179.81,395.71a154.77,154.77,0,0,1,.53,18.69c-.62,22.43,2.42,44.7-.81,47.82s-16.21,5.84-18.68-8.94c-1.86-11.2-10.64-34.71-16.08-50.32-1.73-5-3.13-9.15-3.85-11.86-3-11.21-7.37-34.49-4.31-43.75s19.56-8.93,23-6.44c3.89,2.82,7.92,13.42,12.92,25.3A95.62,95.62,0,0,1,179.81,395.71Z"/><path class="bc637679-a427-4315-b2c8-f1da46015fff" d="M175.31,460.23c1.63-12.22,5-28.1,4.4-32.45s19.67-29.39,24.06-34,4.8-6.11,6.72-6.05-.84,6.57-2.25,9c0,0,1.14,4.71,1.57,5.88s-1.13,4.21-6.13,9.24c0,0,4.48,2.93.34,10.32S192.65,442,189.81,443.58s-6.64,2.61-7.16,4.31-2.57,15.73-5.27,18S175.31,460.23,175.31,460.23Z"/><path class="b4f19f64-904c-45af-a6d0-fd63091af7b7" d="M178.78,386.79c2.05,10.8,1.75,20.62,1.56,27.61-.62,22.43,2.42,44.7-.81,47.82s-16.21,5.84-18.68-8.94c-1.86-11.2-13.89-42.1-18.74-58.19,2.24-1.33,15.25-10.59,15.67-11.13a1.57,1.57,0,0,1,2.05-.47C160.91,383.89,172.8,385.63,178.78,386.79Z"/><path class="f51fdab0-ddf4-495c-b28e-da02c5c24f95" d="M106,463.88c-3.67,2.95-17.85,5.05-19.75-9.83-1.77-13.9-8-41.27-10.92-54.05-.21-.9-.4-1.73-.57-2.47-2.64-11.35-13.34-46.79-7.34-54.82,13.72-18.36,20.67-7,23.09-3.37,4.43,6.67,8.16,16.2,13,28.3a90.09,90.09,0,0,1,6.36,31h0a144.65,144.65,0,0,1-.46,17.53C107.5,438.53,109.63,460.92,106,463.88Z"/><path class="bc637679-a427-4315-b2c8-f1da46015fff" d="M93.17,470.07c-1.35-10.28-4.21-23.66-3.65-27.3S71.93,417.87,68,413.94s-4.31-5.18-6-5.15.69,5.53,1.94,7.56c0,0-1.09,3.95-1.49,4.93s1,3.54,5.48,7.82c0,0-4.11,2.42-.42,8.66s10.14,16.81,12.7,18.18,6,2.26,6.47,3.69,2.17,13.24,4.61,15.21S93.17,470.07,93.17,470.07Z"/><path class="b4f19f64-904c-45af-a6d0-fd63091af7b7" d="M106,463.88c-3.67,2.95-17.85,5.05-19.75-9.83-1.77-13.9-8.53-43.74-11.49-56.52a6.68,6.68,0,0,1,1-1.73c1.85-2.56,1.83-3.09,6.71-1.58a169.74,169.74,0,0,0,27.42,5.69,147.5,147.5,0,0,1-.5,16.24C107.5,438.53,109.63,460.92,106,463.88Z"/><path class="f51fdab0-ddf4-495c-b28e-da02c5c24f95" d="M108.8,254.79s7.13,43.72,15.14,73.09c3.79,13.88,8.85,29,14.73,34.33s14.45,9.1,21.36-4.74,4.72-18.44,4.07-39.92-3.55-45.75-5.17-53.29c-3.19-14.85-6.31-23.25-22.2-29.45S107,241.72,108.8,254.79Z"/><path class="f51fdab0-ddf4-495c-b28e-da02c5c24f95" d="M148,242.44S91,304.33,81.08,314.75,61.92,338.2,60.72,346.07s.47,17.07,15.82,15.13,17.95-6.32,35.44-18.8S146.9,317,151.4,310.77s21.67-32.63,18-49.28S153.82,236.16,148,242.44Z"/><path class="b4f19f64-904c-45af-a6d0-fd63091af7b7" d="M161.79,456.94a100.53,100.53,0,0,1-1,18.42c-1.65,11.9-3.56,23.8-4.7,31.89-1.54,10.87,1.52,10.6,10.13,19.49,5.73,5.92,4.88,4.36,20.53-4.77,8.88-5.18,9.44-4.93,4.86-26.23-2.83-13.23-4.85-23.6-7.35-36.79-.32-1.72-.17-5.78-3.58-20.41C180,435.68,161.79,456.94,161.79,456.94Z"/><path class="b4f19f64-904c-45af-a6d0-fd63091af7b7" d="M86.21,454.05S59.11,494,54,501.87c-2.32,3.56-.42,7.6,9.77,18.51,6.24,6.68,4.42,9.42,22.37.2,4.13-2.12,7-4.37,15.1-31.55,3-10.28,7.13-25.2,8.45-30,1.71-6.25.26-14.47-3.17-13C96.6,450.17,86.21,454.05,86.21,454.05Z"/><path class="b75574ef-3312-4346-919c-ced843f60b7f" d="M105.18,372.4S90.56,377,76.05,373.46c-6.7-1.64-7.68-1.86-7.68-1.86l-3.26-17.68L103,366Z"/><path class="b75574ef-3312-4346-919c-ced843f60b7f" d="M135.68,360a57.39,57.39,0,0,0,18.58-4.19c9.22-3.94,11.86-4.64,11.86-4.64L163,344.2l-30.37,8.61s2.72,5.7,3,5.61S135.68,360,135.68,360Z"/><path class="edd7ef6c-432b-4283-b5f1-7209d1d9f7f6" d="M161.22,221.34s16.73,47,35.94,103.48c1.3,3.82-13.48,10.27-16.72,11.52s-7.65,3.2-7.65,3.2l.69,1.79a1.06,1.06,0,0,1-.5,1.31c-3.93,2-21,10.48-35.7,14.29a1.3,1.3,0,0,1-1.54-.8l-.68-1.77s-14.41,6.29-26.64,10.09L109,366a.65.65,0,0,1-.46.87c-4.27,1-26.14,5.49-36.62-.58a.64.64,0,0,1-.24-.84l1-2s-14.16-2.74-21.17-9.1l-.89,1.45a.49.49,0,0,1-.73.13C48,354.37,40.31,348,38.53,343.71c0,0,2.17-13.63,4.8-19.5S55,288.37,56.16,284.3s14.46-50.39,14.46-50.39Z"/><path class="b3b65be8-ac25-48c7-9fda-962038ff138f" d="M161.33,282.43s-3.76,6.92-1.14,11.21,10.58,13.78,12.1,13.78,7.29-2,10.36-6.36a34.14,34.14,0,0,0,4-6.94l-2.87-8.31Z"/><path class="f51fdab0-ddf4-495c-b28e-da02c5c24f95" d="M174.84,249.47c0,1.27-9.26,14.14-13.54,28.92-1.74,6-1.88,7.17-.38,9.88,3.46,6.29,10.88,17,13.14,17,1.75,0,9.65-8.74,13.69-14.66s2.86-21.7,2.16-31.17C189.27,250.85,174.84,249.47,174.84,249.47Z"/><path class="ae8b9ff9-ad7e-4bc6-b29d-780446fdc737" d="M74.66,47.17c.84,1.29,1.81,2.79.82,2.74a70.74,70.74,0,0,0-8.63-.65,15.09,15.09,0,0,0-3.52.23c-.53.15-1-2-.12-2.64a9.49,9.49,0,0,1,1.09-.52c.79-.38,8.5-.08,9,.05C74,46.56,74.31,46.65,74.66,47.17Z"/><path class="ae8b9ff9-ad7e-4bc6-b29d-780446fdc737" d="M85.23,46.53c-.71,1.87-1.3,3.26-.36,3.14A86.9,86.9,0,0,1,94.75,48c4.28-.29,5.35-.1,6.63.52s1.76.79.12-1.12a13.42,13.42,0,0,0-3.89-2.86c-1.2-.65-10.14.76-10.67,1C86.18,45.83,85.42,46,85.23,46.53Z"/><path class="b10ef26e-b4e4-4878-9f67-5ed6fc820701" d="M77.63,52.37a36.2,36.2,0,0,1-.55,5.4A50.68,50.68,0,0,1,75.78,63c-.21.9-.51,1.75-.76,2.61a5.83,5.83,0,0,0-.25,1.23c0,.23.38.61.68.87a9.16,9.16,0,0,0,4.84,2v0a7.54,7.54,0,0,1-5.2-1.57,3.57,3.57,0,0,1-.52-.51,1.24,1.24,0,0,1-.37-.76,5.33,5.33,0,0,1,.29-1.41c.26-.88.57-1.73.78-2.58.5-1.77,1.08-3.45,1.45-5.22s.67-3.54.88-5.33Z"/><path class="bc637679-a427-4315-b2c8-f1da46015fff" d="M99.09,53.92a17.59,17.59,0,0,1-5.45,1.92c-3.25.6-6.27,0-5.9-2s4.11-2.49,4.89-2.54a41.37,41.37,0,0,1,7,1c.56.31.74.49.59.89S99.09,53.92,99.09,53.92Z"/><path class="bc637679-a427-4315-b2c8-f1da46015fff" d="M74.24,54.33a5.25,5.25,0,0,1-4.12,2.08c-2.59-.07-3.28-.22-4-.51a1.84,1.84,0,0,1-.7-2.19A2.45,2.45,0,0,1,68.3,52a22.65,22.65,0,0,1,4.86,1.21A6.94,6.94,0,0,1,74.24,54.33Z"/><path class="ad3479dc-f7c3-46c6-8de4-064d1ebfca1d" d="M71.21,54.66c.07.91-1.7,1.66-2.52,1.71-2.32.13-3.52-1.09-3.39-2.39s1.72-2,4.15-1.55C70.23,52.59,71.17,54.09,71.21,54.66Z"/><ellipse class="bc637679-a427-4315-b2c8-f1da46015fff" cx="66.66" cy="54.44" rx="0.55" ry="0.52" transform="translate(-4.03 103.54) rotate(-74.02)"/><path class="ad3479dc-f7c3-46c6-8de4-064d1ebfca1d" d="M94.19,54.66c-.17.61-.74,1.12-3.18,1.24-1.78.09-2.7-.71-2.45-1.63.85-3.23,2.87-2.44,3.79-2.53C94.06,51.59,94.58,53.21,94.19,54.66Z"/><ellipse class="bc637679-a427-4315-b2c8-f1da46015fff" cx="90.08" cy="53.44" rx="0.55" ry="0.53" transform="translate(29.38 138.8) rotate(-85.26)"/><path class="ae8b9ff9-ad7e-4bc6-b29d-780446fdc737" d="M87.74,53.83a4.49,4.49,0,0,1,3.41-2,23.22,23.22,0,0,1,6.81.49c2.07.54,2.47.52,1.13,1.57a5,5,0,0,0,2.27-1.18c.34-.31-.22-.49-1.25-.81a21.54,21.54,0,0,0-6.89-1.06C89.21,50.77,87.7,52.54,87.74,53.83Z"/><path class="ae8b9ff9-ad7e-4bc6-b29d-780446fdc737" d="M74.24,54.33a4.77,4.77,0,0,0-1.84-1,12.08,12.08,0,0,0-4.3-.85c-1.52.09-1.56.15-2.24,1.12-.47.69-.5.85,0,1.7.33.52,2.34,1.1,2.34,1.1a11.58,11.58,0,0,1-1.71-.26c-1-.25-.91-.35-1.23-.8a8.55,8.55,0,0,1-.46-.74c-.18-.35-.29-.29.4-1.16s1.06-1.71,2.81-1.66,4.45.49,5.54,1.54C74.34,54.05,74.24,54.33,74.24,54.33Z"/><path class="edd7ef6c-432b-4283-b5f1-7209d1d9f7f6" d="M156.7,207.3c3.05,11,14.17,36.74,10.29,56.75-2,10.27-37.2,18.24-60.13,17.34S60.26,283,62.05,268.94s9-36.54,14.14-53.29S151.54,188.63,156.7,207.3Z"/><path class="b4f19f64-904c-45af-a6d0-fd63091af7b7" d="M156.7,207.3s-37.8,12.2-40.42,12.45c-3.16.31-40.09-4.1-40.09-4.1L72,229.5s43.8,10.78,47.5,10,41.77-18.2,41.77-18.2Z"/><path class="bad16d1c-6a7e-4621-8e82-996992942bc5" d="M74.42,16.49c8.86.08,16.55-.08,26.17,10,.41.43,8,5.12,9.71,7.74,1.56,2.45,2.63,11.32,2.63,11.32s-1,9.75-.86,16.22c0,1.13-2.56,2.21-4.14,2.47-1.12.18-2.42-13.21-3.38-17S105.87,42,102.7,36s-10-6.52-10-6.52l.36-.18h0s-1.75-6.21-9.72-5.77S68.81,29.14,70.45,33.73s2.16,4.72,1.2,4.39-5.76-3.56-6.06-7.71S65.55,16.41,74.42,16.49Z"/></g></g></svg>