<svg xmlns="http://www.w3.org/2000/svg" viewBox="0 0 315.82 343.45"><defs><style>.a1acab77-9e4b-4738-9781-bff0de9a539a{fill:#2b2824;}.b1529a12-c5d1-49ae-8bf5-04b760c824b0{fill:#d8a684;}.b26a26cf-dcae-4610-9cad-f539def5fccb{fill:#bf9477;}.aa1c7ba7-d655-4a6e-9a58-e030489a378c{fill:#6d4716;}.ee1cf1b4-95a1-4c73-82fb-174306f8a831{fill:#93a0aa;}.e27a9c68-477c-40d4-a0b5-8a1b479cb0dd{fill:#efefef;}.b30d9abe-e643-4ea9-9c90-3723faf24f1a{fill:#f2f2f0;}.a0fad4d0-fcf3-4ebc-9e7d-44edc3003670{fill:#e2e2e2;}.b932c695-86f2-45dc-aa68-fee568ee2140{fill:#fff;}.b9fee854-0970-4cae-b184-62033dca285d{fill:#211f1d;}.aee25af0-dafe-471c-9283-b7f7cfaa008e{fill:#b78b6c;}.e46d970d-2592-4c61-8c09-8914d547f274{fill:#442915;}.ace52175-d869-4462-a4af-b07821b3d566{fill:#b58331;}</style></defs><title>Perseo_1</title><g id="f870d14d-b6e6-4a9b-868f-ad712c232305" data-name="Layer 2"><g id="a5518e9c-b1d1-40b1-bfb8-34465cd1adf2" data-name="3"><path class="a1acab77-9e4b-4738-9781-bff0de9a539a" d="M126.88,22.45c.87,0,1.77-.56,3.58-2.2s1.76-5,1.76-7.13,1.17-3.77,4.62-5,6.38-2,6.38-2c-2.54-.64-2.9-3.87-2.74-4.6s.32-2.56,1-.61,2.17,2.11,5.89,1.34,5-3.82,10.23-1.09A4.4,4.4,0,0,1,160,4.44c2.49.19,4.82.47,6.46.74,2.07.35,4.44,3.38,6.35,7a9,9,0,0,0,1,1.13,5.48,5.48,0,0,0,3.83,1.49c.33,0-.23,2.46-2.33,3.36a15.35,15.35,0,0,1,1,6c-.43,2.78,2.73,9.33,2.88,10.61.32,2.6.2,3.72,1,8.27a1.8,1.8,0,0,1-.68,1.2c-5.14,2.88-21.58,15.48-32.45,8.15-.27-.18.26-1.28-.81-3.62a15.47,15.47,0,0,0-3.85-5.54s-1.53,3.32-2.55,3.29c-.55,0-.68-8.58-6.5-13.21-2.92-2.32-2.64-7-1.4-11a7.7,7.7,0,0,1-3.52.8C127.59,23.27,126,22.44,126.88,22.45Z"/><path class="b1529a12-c5d1-49ae-8bf5-04b760c824b0" d="M176.78,33.29s3.16,14.62,5.52,18.79,5.87,6.28,8,7.77S194.62,75.56,186.4,78s-17.6,4.15-20.34-2.37,1.4-7.54.54-12.33a38,38,0,0,0-2.71-8.67S173.49,44.18,176.78,33.29Z"/><path class="b1529a12-c5d1-49ae-8bf5-04b760c824b0" d="M153.33,131c1.53-.63,11.76,2.26,9.12,14.4s-11.44,36.87-19,42.83-7.95-3.52-7.49-6.59,2.52-12,2.7-20.15S141.37,136,153.33,131Z"/><path class="b1529a12-c5d1-49ae-8bf5-04b760c824b0" d="M243.58,104.35c1.22-1.12,11.82-1.87,13.45,10.46s1.73,38.56-3.34,46.72-8.66-.62-9.27-3.67-1.69-12.11-4.3-19.87S234,113.11,243.58,104.35Z"/><path class="b1529a12-c5d1-49ae-8bf5-04b760c824b0" d="M173.31,26.31c1.21-1.73,3.67-6.33,6.17,1.79.69,2.24,1,7.13-.09,8.31s-2,2.12-2,2.12Z"/><path class="b26a26cf-dcae-4610-9cad-f539def5fccb" d="M179,42.51a33.49,33.49,0,0,1-5.19,11,18.26,18.26,0,0,1-8.06,6.28c-.24-.85-.49-1.62-.73-2.29,2.43-2,8-6.75,9-9.47,1.27-3.17,3.41-8.81,3.83-9.89C178.23,39.49,178.61,41,179,42.51Z"/><path class="b1529a12-c5d1-49ae-8bf5-04b760c824b0" d="M177.34,43.34c-.61,2-6,9.85-6,9.85-.93,1.37-6.83,6.75-9.46,6.5-1.91-.18-4.06-1.63-6.35-4.18s-7.89-7-9.31-10.68a33.37,33.37,0,0,0-4-8.1,17.65,17.65,0,0,1-1.48-2.95h0c-1.48-3.66-2.21-8-1.62-9.27a4,4,0,0,1,.79-1A27.62,27.62,0,0,1,148,18.74h.06a54.62,54.62,0,0,1,7.66-2.52,24.21,24.21,0,0,1,4.94-.77c9.59-.38,11.29,7.18,12.7,10.5C174.52,28.61,178.49,39.46,177.34,43.34Z"/><path class="b26a26cf-dcae-4610-9cad-f539def5fccb" d="M140.71,33.77c-1.48-3.66-2.21-8-1.62-9.27a4,4,0,0,1,.79-1l.72-.09a12.3,12.3,0,0,0-.52,3.55C140.16,28.51,140.65,33.19,140.71,33.77Z"/><path class="b26a26cf-dcae-4610-9cad-f539def5fccb" d="M172.86,34.76a9.47,9.47,0,0,1-2.44-2.66c-.76-1.45-3.44-6-4.59-8.66s-1.66-4-4.94-5.81c-3.12-1.74-12,.84-12.82,1.09a54.62,54.62,0,0,1,7.66-2.52,24.21,24.21,0,0,1,4.94-.77c2.24.57,4.13,1.27,4.13,1.27l4,6.74Z"/><path class="aa1c7ba7-d655-4a6e-9a58-e030489a378c" d="M125.14,195.26s19.14,3.7,24.29,3.85,5.71,0,5.42-7.3c-.17-4.56-.85-4.74-2.42-5.47-2.82-1.32-28.4-.8-28.4-.8Z"/><path class="ee1cf1b4-95a1-4c73-82fb-174306f8a831" d="M128.27,190.37c-.89,7.66-2.94,11.68-5.37,12.35-1.5.41-4.58-5.75-3.69-13.4s6.27-14.34,8.17-12.69S129.16,182.71,128.27,190.37Z"/><path class="e27a9c68-477c-40d4-a0b5-8a1b479cb0dd" d="M0,136.33s16,15.78,63.24,31.35c.83.28,48.58,13.45,60,16.19,2,.47,1.67.24,1.1,6.09-.58,6-.74,5.49-2.31,5.41-4.4-.2-69.85-14.14-98.28-33.66C-1.25,144.56,0,136.33,0,136.33Z"/><path class="b1529a12-c5d1-49ae-8bf5-04b760c824b0" d="M136.61,178.47s-4.86,16.54-5.33,19.91,0,4,6,7.39c6.19,3.47,7.3,1.33,9.49-.42a22.37,22.37,0,0,0,3.63-3.87c1.35-1.76-.76-9.14-1.49-11.27-1.5-4.39-1.5-4.65-1.44-6.63C147.58,180.51,136.61,178.47,136.61,178.47Z"/><path class="b1529a12-c5d1-49ae-8bf5-04b760c824b0" d="M137.94,82.48c-.46,13-1.31,29.54,3.41,44.82s7.07,19.75,13.51,19.27,10.95-4.95,10-18.66.8-16.86-.82-27.95-3.17-23.64-11.18-29.14C149.64,68.61,138.29,72.7,137.94,82.48Z"/><path class="b26a26cf-dcae-4610-9cad-f539def5fccb" d="M145.55,73.36s1.21,20.31,9.51,39.46,9.87,20.69,9.87,20.69l.11-10.09Z"/><path class="b30d9abe-e643-4ea9-9c90-3723faf24f1a" d="M147,70.92c-5.19,1.5,4.83,26.65,7.07,31.53,4.81,10.48,18.87,40.58,23.67,48.7s12.75,4.31,23.61,1.62,23.13-3.9,25.11-16.11c1.32-8.1-5.51-43.51-7.33-55.3-2-13.2-7.15-27.92-9.58-27.28C194.63,58,153.42,69.05,147,70.92Z"/><path class="b1529a12-c5d1-49ae-8bf5-04b760c824b0" d="M159.83,67.38s5.56,5.35,20.17.93S194.37,58.1,194.37,58.1l-17,4.18Z"/><path class="a0fad4d0-fcf3-4ebc-9e7d-44edc3003670" d="M206.59,55.45s-4.17,3.37-2.89,11,6.38,20.56,9.45,24.77,9.19,9.21,9.19,9.21l-4.47-28.87Z"/><path class="b1529a12-c5d1-49ae-8bf5-04b760c824b0" d="M223.57,56.31s20.2,22.52,26.37,37.28,7.23,19.69,2,23.46-11.57,3.21-19.63-7.92S220.86,96.7,215,87.16,202.28,67,204.9,57.62C206,53.86,215.16,51.29,223.57,56.31Z"/><path class="b1529a12-c5d1-49ae-8bf5-04b760c824b0" d="M280.69,241.79a104.12,104.12,0,0,1,4.38,12c4.46,14.64,11.24,28.38,9.82,31.1s-9.22,7.28-14-1.74c-3.63-6.84-14.39-20.15-21.28-29.06-2.19-2.85-4-5.24-5.05-6.84-4.35-6.61-12.23-20.71-12.26-27.36s10.72-10,13.49-9.14c3.13,1,8,7,13.84,13.56A65.4,65.4,0,0,1,280.69,241.79Z"/><path class="b932c695-86f2-45dc-aa68-fee568ee2140" d="M291.74,284.48c-1.59-8.26-2.87-19.24-4.18-21.93s6.36-23.27,8.2-27.21,1.78-5,3-5.36.87,4.43.49,6.29c0,0,1.75,2.79,2.28,3.46s.18,3-2,7.3c0,0,3.53.92,2.44,6.6s-3.05,15.3-4.54,16.95-3.73,3.12-3.69,4.34,1.74,10.72.49,12.8S291.74,284.48,291.74,284.48Z"/><path class="aa1c7ba7-d655-4a6e-9a58-e030489a378c" d="M278.1,236.24a85.33,85.33,0,0,1,7,17.52c4.46,14.64,11.24,28.38,9.82,31.1s-9.22,7.28-14-1.74c-3.63-6.84-18.09-24.23-24.7-33.58,1.15-1.35,7.57-10.15,7.72-10.58a1.08,1.08,0,0,1,1.23-.76C265.91,238.23,274,236.78,278.1,236.24Z"/><path class="b1529a12-c5d1-49ae-8bf5-04b760c824b0" d="M231.82,295.5c-.71,3-7.16,9.3-14,1.72-6.4-7.09-20.37-20.06-26.92-26.1L189.63,270c-5.83-5.35-25.3-21.17-25.39-27.82-.2-15.21,7.85-11.42,10.52-10.28,4.9,2.1,10.58,6,17.82,11a66,66,0,0,1,15.48,14.91h0a108.28,108.28,0,0,1,6.68,9.92C222.62,280.84,232.54,292.52,231.82,295.5Z"/><path class="b932c695-86f2-45dc-aa68-fee568ee2140" d="M227.71,303.6c-4.75-5.23-11.49-11.63-12.64-13.86s-18.85-7.45-22.42-8.2-4.25-1.32-5.14-.66,2.54,2.82,4,3.5c0,0,1,2.59,1.18,3.28s1.9,1.61,5.89,2.36c0,0-1.15,2.83,3.21,5s11.83,5.67,13.68,5.5,4-.94,4.78-.31,6.33,6.58,8.36,6.79S227.71,303.6,227.71,303.6Z"/><path class="aa1c7ba7-d655-4a6e-9a58-e030489a378c" d="M231.82,295.5c-.71,3-7.16,9.3-14,1.72-6.4-7.09-21.63-21.23-28.19-27.26a4.83,4.83,0,0,1-.18-1.32c0-2.1-.27-2.39,2.83-3.32a99.51,99.51,0,0,0,16.31-6.81,107.56,107.56,0,0,1,6.15,9.21C222.62,280.84,232.54,292.52,231.82,295.5Z"/><path class="b1529a12-c5d1-49ae-8bf5-04b760c824b0" d="M204.29,166s14.07,26.73,25.6,44c5.45,8.15,12,16.81,17,19s11.31,2.75,12.79-7.69-.94-13-6-26.69-12.18-28.82-14.86-33.35c-5.28-8.91-9.12-13.67-20.73-14.24S200.29,158,204.29,166Z"/><path class="b1529a12-c5d1-49ae-8bf5-04b760c824b0" d="M174.17,151.43s-7.33,56.93-8.72,66.63-1.41,20.6,1,25.45,7,9.31,14.77,2.18,7.49-10.6,12.3-24.44S203,193.37,203,188.11s-.81-26.69-9.42-34.51S174.91,145.65,174.17,151.43Z"/><path class="aa1c7ba7-d655-4a6e-9a58-e030489a378c" d="M282.28,285.28a68.23,68.23,0,0,1,3.33,12.13c1.5,8.06,2.84,16.16,3.85,21.64,1.36,7.36,3.28,6.53,10.77,10.41,5,2.59,4.1,1.76,12.25-7.52,4.62-5.27,5-5.23-2.53-18-4.7-7.94-8.25-14.21-12.71-22.2a94.38,94.38,0,0,0-6.73-12.42C289.46,267.59,282.28,285.28,282.28,285.28Z"/><path class="aa1c7ba7-d655-4a6e-9a58-e030489a378c" d="M217.82,297.22s1.85,32.08,2.32,38.32c.22,2.83,2.78,4.38,12.32,6.74,5.83,1.45,6,3.63,11.55-8,1.29-2.68,1.89-5-4.69-23-2.49-6.83-6.28-16.61-7.51-19.78-1.59-4.1-5.57-8.15-6.76-6.09C221.62,291.28,217.82,297.22,217.82,297.22Z"/><path class="b26a26cf-dcae-4610-9cad-f539def5fccb" d="M243.31,226.65a120.27,120.27,0,0,0,17.71-12l-1-.95a41.51,41.51,0,0,0-1.49-6.13l-19.13,15.12Z"/><path class="b26a26cf-dcae-4610-9cad-f539def5fccb" d="M198.42,247.41s-13.67-1.32-23.45-4.63-10.47-5.28-10.47-5.28l.26-4.29,28.09,8.55Z"/><path class="b30d9abe-e643-4ea9-9c90-3723faf24f1a" d="M231,136s17.08,29.44,37,64.88c1.35,2.4-7.75,8.57-9.77,9.81s-4.72,3.11-4.72,3.11l.68,1.11a.7.7,0,0,1-.17.93c-2.38,1.84-12.76,9.65-22.14,14a.9.9,0,0,1-1.14-.34L230,228.4s-8.87,6-16.6,10.1l.6,1a.44.44,0,0,1-.2.64c-2.74,1.18-16.83,6.94-24.62,4.18a.44.44,0,0,1-.27-.53l.42-1.48s-9.84-.07-15.33-3.46l-.42,1.08a.34.34,0,0,1-.47.18c-1.48-.8-7.42-4.13-9.14-6.76,0,0-.25-9.42.78-13.68s3.36-25.48,3.62-28.35,3.4-35.58,3.4-35.58Z"/><path class="a0fad4d0-fcf3-4ebc-9e7d-44edc3003670" d="M238.68,176.91s-1.66,5.11.64,7.66,8.8,7.92,9.83,7.72a11.3,11.3,0,0,0,6.14-5.55,23.63,23.63,0,0,0,1.82-5.15l-3-5.21Z"/><path class="b1529a12-c5d1-49ae-8bf5-04b760c824b0" d="M243.62,153.13c.16.85-4.44,10.63-5.46,21.07-.42,4.26-.37,5.05,1,6.68,3.11,3.78,9.42,10.06,10.94,9.76,1.16-.23,5.37-7.06,7.34-11.53s-.79-14.9-2.44-21.16C253.47,152.25,243.62,153.13,243.62,153.13Z"/><path class="b9fee854-0970-4cae-b184-62033dca285d" d="M148.18,31.52c.83.64,1.78,1.39,1.14,1.58a47.08,47.08,0,0,0-5.72,1.49,10.08,10.08,0,0,0-2.22.92c-.31.21-1.09-1.09-.66-1.68.11-.14.39-.38.59-.58a36.91,36.91,0,0,1,5.8-1.94C147.61,31.27,147.84,31.25,148.18,31.52Z"/><path class="b9fee854-0970-4cae-b184-62033dca285d" d="M154.86,28.77c-.05,1.36-.12,2.39.46,2.11a57.4,57.4,0,0,1,6-3.25c2.7-1.13,3.43-1.24,4.39-1.13s1.31.12-.17-.74a8.82,8.82,0,0,0-3.14-1c-.91-.16-6.37,2.72-6.67,3S154.87,28.42,154.86,28.77Z"/><path class="aee25af0-dafe-471c-9283-b7f7cfaa008e" d="M151.24,34.22a24.74,24.74,0,0,1,.84,3.6,35.57,35.57,0,0,1,.32,3.69c.06.62.06,1.24.09,1.85a3.58,3.58,0,0,0,.11.85,1.26,1.26,0,0,0,.62.41,6.33,6.33,0,0,0,3.56.21h0a5.08,5.08,0,0,1-3.7.13c-.29-.14-.63-.2-.85-.62a3.42,3.42,0,0,1-.13-1c0-.62,0-1.24-.06-1.84-.07-1.25-.07-2.46-.22-3.68s-.35-2.43-.61-3.64Z"/><path class="b932c695-86f2-45dc-aa68-fee568ee2140" d="M165.43,30.49a12,12,0,0,1-3.09,2.44c-2,1.1-4.05,1.37-4.25,0s2.1-2.51,2.59-2.72a28.55,28.55,0,0,1,4.75-.91c.43.08.59.16.58.45S165.43,30.49,165.43,30.49Z"/><path class="b932c695-86f2-45dc-aa68-fee568ee2140" d="M149.49,36.23a3.61,3.61,0,0,1-2.2,2.25,7,7,0,0,1-2.67.54,1.25,1.25,0,0,1-.94-1.26,1.69,1.69,0,0,1,1.47-1.71,14.94,14.94,0,0,1,3.4-.28A4.07,4.07,0,0,1,149.49,36.23Z"/><path class="e46d970d-2592-4c61-8c09-8914d547f274" d="M147.6,37.1c.25.58-.72,1.45-1.24,1.67-1.47.59-2.52.07-2.72-.8s.66-1.7,2.34-1.91A2.29,2.29,0,0,1,147.6,37.1Z"/><ellipse class="b932c695-86f2-45dc-aa68-fee568ee2140" cx="144.62" cy="37.97" rx="0.36" ry="0.37" transform="translate(-1.72 7.3) rotate(-2.88)"/><path class="e46d970d-2592-4c61-8c09-8914d547f274" d="M162.43,32c0,.43-.23.89-1.78,1.51-1.12.44-1.89.13-1.94-.52-.16-2.27,1.32-2.21,1.9-2.46C161.67,30.09,162.37,31,162.43,32Z"/><ellipse class="b932c695-86f2-45dc-aa68-fee568ee2140" cx="159.51" cy="32.16" rx="0.36" ry="0.37" transform="translate(-3.03 39.88) rotate(-14.12)"/><path class="b9fee854-0970-4cae-b184-62033dca285d" d="M158.09,32.93a3.1,3.1,0,0,1,1.76-2,16.27,16.27,0,0,1,4.51-1.18c1.45-.1,1.71-.21,1.07.77-.1.16.78-.51,1.21-1.27.15-.27-.25-.26-1-.24a14.41,14.41,0,0,0-4.68.83C158.36,30.63,157.78,32.1,158.09,32.93Z"/><path class="b9fee854-0970-4cae-b184-62033dca285d" d="M149.49,36.23a3.19,3.19,0,0,0-1.41-.24,8.39,8.39,0,0,0-3,.4c-1,.4-1,.45-1.2,1.22-.15.55-.13.66.4,1.09a4.62,4.62,0,0,0,1.76.19,8,8,0,0,1-1.17.21c-.68,0-.66,0-1-.25-.15-.11-.31-.23-.47-.37s-.24-.12,0-.84.31-1.33,1.44-1.69,3-.66,3.92-.23C149.49,36,149.49,36.23,149.49,36.23Z"/><path class="b30d9abe-e643-4ea9-9c90-3723faf24f1a" d="M226.2,127.12c3.42,7,14.08,22.86,14,36.76,0,7.13-22.66,16.87-38.14,19.13s-31,6.88-31.59-2.76,1.5-25.62,2.83-37.48S220.41,115.25,226.2,127.12Z"/><path class="aa1c7ba7-d655-4a6e-9a58-e030489a378c" d="M226.2,127.12s-23.82,12.9-25.54,13.39c-2.09.6-27.39,2.26-27.39,2.26l-1.12,9.81s30.71,1.76,33.1.8S231,136,231,136Z"/><path class="a1acab77-9e4b-4738-9781-bff0de9a539a" d="M141.26,11.77c5.74-1.9,10.67-3.7,19.1.71.36.18,6.32,1.52,8,2.85s4.18,6.73,4.18,6.73,1.54,6.49,3,10.65c.26.72-1.16,2-2.12,2.51-.68.36-4.48-8-5.94-10.25s-.31-3.69-3.66-6.82-7.9-2-7.9-2l.19-.19h0s-2.5-3.63-7.54-1.58-8.14,6.79-6.07,9.39,2.43,2.57,1.74,2.57-4.49-1-5.61-3.64S135.53,13.67,141.26,11.77Z"/><ellipse class="ace52175-d869-4462-a4af-b07821b3d566" cx="241.47" cy="192.94" rx="40.81" ry="52.43"/></g></g></svg>