<svg width="28" height="45" viewBox="0 0 28 45" fill="none" xmlns="http://www.w3.org/2000/svg">
<path d="M14 8.4C14.3713 8.4 14.7274 8.5475 14.99 8.81005C15.2525 9.0726 15.4 9.4287 15.4 9.8V15.4C15.4 15.7713 15.2525 16.1274 14.99 16.3899C14.7274 16.6525 14.3713 16.8 14 16.8C13.6287 16.8 13.2726 16.6525 13.0101 16.3899C12.7475 16.1274 12.6 15.7713 12.6 15.4V9.8C12.6 9.4287 12.7475 9.0726 13.0101 8.81005C13.2726 8.5475 13.6287 8.4 14 8.4ZM25.2 30.8C25.2 33.7704 24.02 36.6192 21.9196 38.7196C19.8192 40.82 16.9704 42 14 42C11.0296 42 8.18081 40.82 6.0804 38.7196C3.98 36.6192 2.8 33.7704 2.8 30.8V14C2.8 11.0296 3.98 8.18081 6.0804 6.0804C8.18081 3.98 11.0296 2.8 14 2.8C16.9704 2.8 19.8192 3.98 21.9196 6.0804C24.02 8.18081 25.2 11.0296 25.2 14V30.8ZM14 0C10.287 0 6.72601 1.475 4.1005 4.10051C1.475 6.72602 0 10.287 0 14V30.8C0 34.513 1.475 38.074 4.1005 40.6995C6.72601 43.325 10.287 44.8 14 44.8C17.713 44.8 21.274 43.325 23.8995 40.6995C26.525 38.074 28 34.513 28 30.8V14C28 10.287 26.525 6.72602 23.8995 4.10051C21.274 1.475 17.713 0 14 0V0Z" fill="white"/>
</svg>
