<svg xmlns="http://www.w3.org/2000/svg" viewBox="0 0 93.59 29.19"><defs><style>.cls-1{isolation:isolate;}.cls-2{fill:#90dee9;opacity:0.5;mix-blend-mode:screen;}.cls-3{fill:#1d4668;}.cls-4{fill:#89ccbf;}.cls-5{fill:#62afa0;}.cls-6{fill:#183c54;}.cls-7{fill:#103042;}.cls-8{fill:#1c1c1c;}.cls-9{fill:#ffffba;}.cls-10{fill:#fff;}</style></defs><title>Nereida_1</title><g class="cls-1"><g id="Layer_2" data-name="Layer 2"><g id="_2" data-name="2"><path class="cls-2" d="M0,28.47s34.15,1.1,53.34.58c21-.58,40.25-1.08,40.25-1.08L37.38,24.21Z"/><path class="cls-3" d="M70,26.7H23.07c-.18-1.27-.35-2.59-.49-4-.72-7.14,3.86-18.35,13.07-21.32C39,.32,45.24-1.15,51.44,1.46S62.58,10.27,68.74,24C69.11,24.81,69.54,25.72,70,26.7Z"/><path class="cls-4" d="M54.29,22.27c0,.35-.07.75-.12,1.18v.11c-.1,1-.22,2-.4,3.14H30.12a10.34,10.34,0,0,1,.73-4.12,4.38,4.38,0,0,0,.26-1.23s0-.08,0-.12v0c0-.23,0-.46-.07-.72a2.11,2.11,0,0,0,0-.25c0-.3-.05-.62-.09-.95s-.07-.87-.11-1.32v-.07c0-.19,0-.4,0-.6v-.12l0-.61a19,19,0,0,1,.2-3.54,1.77,1.77,0,0,1,0-.32c.43-2.28,1.15-9,13.35-6.62C51.13,7.42,54.87,15.94,54.29,22.27Z"/><path class="cls-5" d="M56.43,26.7H52.32A21,21,0,0,1,53,24.62a2.66,2.66,0,0,1,1.13-1.06.11.11,0,0,0,.06,0,1.42,1.42,0,0,1,2,.58A4.26,4.26,0,0,1,56.43,26.7Z"/><path class="cls-5" d="M37.42,19.89a5.71,5.71,0,0,1,.27,1.75,8.88,8.88,0,0,1-.18,1.78c-.18.57-.27,1.15-.45,1.72a4.2,4.2,0,0,1-.89,1.56c.2-.57.36-1.11.52-1.68s.38-1.1.49-1.68a10,10,0,0,0,.35-1.71A6,6,0,0,0,37.42,19.89Z"/><path class="cls-5" d="M37.6,9.09s5.2-.19,6.78,1.41,3.11,5.83,3.33,6.55,1.35,1.43,1.35,1.43l-1.15-5.8-4-4.32-4.65-.21Z"/><path class="cls-6" d="M45.39,18.42a33.74,33.74,0,0,1-4.15,1.49c-1,.09-.78.13-1.09-.69-.12-.33-.25-.66.18-.74,1.38-.26,2.88-.71,3.92-.88a23.42,23.42,0,0,1,3-.57c.64.07,1.2.64,2.22,1.69.6.6.81,1.2.11.56C47.38,17.3,47.1,17.78,45.39,18.42Z"/><path class="cls-6" d="M36.33,18.58c.21.09.36,1.14.32,1.34s-.74-.08-1.56-.52-2.55-1.26-3-1.45c-.62-.26-1-.23-1.25,0a6.28,6.28,0,0,1-.07-.78C31.73,16.85,32,16.73,36.33,18.58Z"/><path class="cls-7" d="M31.63,20.07c-.58,1-.42,1.71.95,2.27.94.39,1.93-.08,2-.67s.11-.75-.76-1.3S32.13,19.21,31.63,20.07Z"/><path class="cls-8" d="M36.21,23.05s-.52-2.67-2.28-3.24c-1.09-.36-3-.49-3.47-.64a1.67,1.67,0,0,1-1-.59A2.84,2.84,0,0,0,31,20.21a4.61,4.61,0,0,1,2.05.14C35.07,20.71,36.06,23.07,36.21,23.05Z"/><ellipse class="cls-9" cx="32.09" cy="20.9" rx="0.28" ry="0.27" transform="translate(5.28 48.24) rotate(-78.64)"/><path class="cls-7" d="M42.33,22.11c.28.88.89,1,1.94.79a1.94,1.94,0,0,0,1.77-2c-.07-1-1.3-.57-2.25-.54A1.4,1.4,0,0,0,42.33,22.11Z"/><path class="cls-8" d="M49.62,19.59a5.79,5.79,0,0,1-2.34.46c-1.49,0-3.62-.19-4.71.76a3.57,3.57,0,0,0-1.35,2.39c0,.3.14-.19.45-.7A3.63,3.63,0,0,1,44,21c.92,0,4.2.26,5-.4S50.05,19.23,49.62,19.59Z"/><ellipse class="cls-10" cx="43.03" cy="21.64" rx="0.28" ry="0.29" transform="matrix(1, -0.02, 0.02, 1, -0.52, 1.07)"/><path class="cls-3" d="M63,26.7H51.42c-.31-.8-.59-1.64-.87-2.51s-.53-1.72-.78-2.6c0-.1-.07-.2-.1-.31-.09-.35-.19-.69-.29-1l-.14-.5c-.06-.21-.13-.43-.18-.64s-.07-.23-.09-.34h0c0-.12-.08-.25-.11-.37l0-.05c0-.1-.06-.21-.08-.31-.15-.51-.3-1-.44-1.5-.4-1.3-.8-2.55-1.24-3.67C45,7.41,39,8.7,37.62,9.08h0l-.27.08c-3.8-.44-5.59,1.49-6.39,3.84a12.1,12.1,0,0,0-.52,5.83s-4.2-2.87-4-5.38,6.68-7.89,6.68-7.89l9.07-3.15,15.6,5.66Z"/></g></g></g></svg>