<svg xmlns="http://www.w3.org/2000/svg" viewBox="0 0 46.79 14.44"><defs><style>.cls-1{isolation:isolate;}.cls-2{fill:#90dee9;opacity:0.5;mix-blend-mode:screen;}.cls-3{fill:#1d4668;}.cls-4{fill:#89ccbf;}.cls-5{fill:#62afa0;}.cls-6{fill:#183c54;}.cls-7{fill:#103042;}.cls-8{fill:#1c1c1c;}.cls-9{fill:#ffffba;}.cls-10{fill:#fff;}</style></defs><title>Nereida_3</title><g class="cls-1"><g id="Layer_2" data-name="Layer 2"><g id="_2" data-name="2"><path class="cls-2" d="M0,14.08s17.08.55,26.67.29l20.12-.54L18.69,12Z"/><path class="cls-3" d="M32.67,13.19H9.47c-.09-.63-.17-1.27-.24-2C8.87,7.7,11.13,2.17,15.68.7a11.29,11.29,0,0,1,7.81,0C26.55,2,29,5.07,32,11.86,32.22,12.26,32.43,12.71,32.67,13.19Z"/><path class="cls-4" d="M24.9,11c0,.18,0,.38-.06.59v.05c-.05.47-.11,1-.2,1.55H13a5.24,5.24,0,0,1,.36-2,2,2,0,0,0,.13-.61v-.08l0-.36s0-.08,0-.12,0-.31,0-.47,0-.43,0-.65a0,0,0,0,0,0,0c0-.1,0-.2,0-.3V8.18a10.22,10.22,0,0,1,.1-1.75.88.88,0,0,1,0-.16C13.6,5.14,14,1.8,20,3,23.34,3.66,25.19,7.88,24.9,11Z"/><path class="cls-5" d="M26,13.19h-2c.16-.49.3-.89.36-1a1.26,1.26,0,0,1,.56-.53h0a.69.69,0,0,1,1,.28A2,2,0,0,1,26,13.19Z"/><path class="cls-5" d="M16.56,9.83a3.31,3.31,0,0,1,0,1.74c-.08.28-.13.57-.22.85a2,2,0,0,1-.44.77,6,6,0,0,0,.26-.82,8.06,8.06,0,0,0,.24-.84A3.28,3.28,0,0,0,16.56,9.83Z"/><path class="cls-5" d="M16.65,4.49s2.57-.09,3.35.7a10.82,10.82,0,0,1,1.65,3.24c.1.35.66.7.66.7l-.57-2.86-2-2.14L17.45,4Z"/><path class="cls-6" d="M20.5,9.1a17.11,17.11,0,0,1-2.05.74c-.51,0-.39.07-.54-.34-.06-.16-.12-.33.09-.37.68-.12,1.43-.35,1.94-.43a10.5,10.5,0,0,1,1.46-.28c.32,0,.6.31,1.1.83.3.3.4.59.05.28C21.49,8.55,21.35,8.79,20.5,9.1Z"/><path class="cls-6" d="M16,9.18c.11.05.18.56.16.66s-.36,0-.77-.25S14.15,9,13.92,8.87s-.51-.11-.62,0,0-.39,0-.39C13.75,8.33,13.87,8.27,16,9.18Z"/><path class="cls-7" d="M13.7,9.92c-.29.49-.21.84.47,1.12.47.19,1,0,1-.33s.05-.37-.38-.64S14,9.49,13.7,9.92Z"/><path class="cls-8" d="M16,11.39s-.25-1.32-1.12-1.6c-.54-.18-1.47-.24-1.72-.32a.82.82,0,0,1-.48-.29,1.45,1.45,0,0,0,.74.81c.07,0,0-.11,1,.07S15.89,11.4,16,11.39Z"/><ellipse class="cls-9" cx="13.93" cy="10.33" rx="0.14" ry="0.13" transform="translate(1.06 21.94) rotate(-78.64)"/><path class="cls-7" d="M19,10.93c.13.43.44.5,1,.39a1,1,0,0,0,.87-1c0-.49-.64-.28-1.11-.26A.69.69,0,0,0,19,10.93Z"/><path class="cls-8" d="M22.59,9.68a2.75,2.75,0,0,1-1.15.23c-.74,0-1.8-.09-2.33.38a1.72,1.72,0,0,0-.67,1.17c0,.15.07-.09.22-.34a1.8,1.8,0,0,1,1.14-.76c.45,0,2.07.13,2.49-.19S22.8,9.5,22.59,9.68Z"/><ellipse class="cls-10" cx="19.33" cy="10.7" rx="0.14" ry="0.14" transform="translate(-0.26 0.48) rotate(-1.41)"/><path class="cls-3" d="M29.22,13.19H23.48c-.15-.39-.29-.81-.43-1.23l-.39-1.29c0-.05,0-.1,0-.16L22.47,10l-.07-.24-.09-.32c0-.06,0-.11,0-.17h0l-.06-.18v0c0-.05,0-.11,0-.16-.08-.25-.15-.49-.22-.73-.19-.65-.39-1.27-.61-1.82-1-2.69-4-2-4.67-1.86h0l-.13,0a2.67,2.67,0,0,0-3.16,1.9,6.05,6.05,0,0,0-.26,2.88s-2.08-1.42-2-2.66,3.3-3.9,3.3-3.9l4.48-1.56L26.6,4Z"/></g></g></g></svg>