<svg xmlns="http://www.w3.org/2000/svg" viewBox="0 0 54.46 16.92"><defs><style>.cls-1{isolation:isolate;}.cls-2{fill:#90dee9;opacity:0.5;mix-blend-mode:screen;}.cls-3{fill:#1d4668;}.cls-4{fill:#89ccbf;}.cls-5{fill:#62afa0;}.cls-6{fill:#183c54;}.cls-7{fill:#103042;}.cls-8{fill:#1c1c1c;}.cls-9{fill:#ffffba;}.cls-10{fill:#fff;}</style></defs><title>Nereida_2</title><g class="cls-1"><g id="Layer_2" data-name="Layer 2"><g id="_2" data-name="2"><path class="cls-2" d="M0,16.5s19.87.64,31,.34c12.22-.34,23.42-.63,23.42-.63L21.75,14Z"/><path class="cls-3" d="M41.13,15.47H13.92c-.1-.74-.2-1.5-.29-2.3C13.22,9,15.87,2.54,21.21.82a13.19,13.19,0,0,1,9.15,0C34,2.36,36.81,6,40.38,13.91,40.6,14.38,40.84,14.9,41.13,15.47Z"/><path class="cls-4" d="M32,12.9c0,.21,0,.44-.07.69v.06c-.06.55-.13,1.18-.23,1.82H18a6,6,0,0,1,.41-2.39,2.43,2.43,0,0,0,.16-.71s0,0,0-.07v0c0-.13,0-.27,0-.42s0-.1,0-.15,0-.36-.05-.55,0-.5-.06-.76a.08.08,0,0,0,0,0c0-.11,0-.23,0-.34V9.94l0-.35a11.64,11.64,0,0,1,.12-2,.68.68,0,0,1,0-.19c.25-1.32.67-5.23,7.74-3.83C30.18,4.3,32.35,9.24,32,12.9Z"/><path class="cls-5" d="M33.25,15.47H30.87c.18-.58.34-1.05.41-1.2a1.54,1.54,0,0,1,.66-.62h0a.82.82,0,0,1,1.18.33A2.43,2.43,0,0,1,33.25,15.47Z"/><path class="cls-5" d="M22.23,11.52a4,4,0,0,1,.05,2.05,4.12,4.12,0,0,1-.77,1.9c.12-.33.2-.65.3-1a10.09,10.09,0,0,0,.28-1A3.77,3.77,0,0,0,22.23,11.52Z"/><path class="cls-5" d="M22.34,5.27s3-.11,3.93.82A12.83,12.83,0,0,1,28.2,9.88c.12.41.78.83.78.83l-.67-3.36L26,4.84l-2.7-.12Z"/><path class="cls-6" d="M26.85,10.67a20.32,20.32,0,0,1-2.4.87c-.6.05-.46.07-.63-.4-.07-.19-.15-.39.1-.43.8-.15,1.67-.41,2.27-.51a12.41,12.41,0,0,1,1.72-.33c.38,0,.7.37,1.29,1,.34.36.47.7.06.33C28,10,27.85,10.3,26.85,10.67Z"/><path class="cls-6" d="M21.6,10.77c.12.05.21.65.19.77s-.43,0-.9-.3-1.49-.73-1.76-.84-.59-.13-.72,0a3.14,3.14,0,0,1,0-.45C18.94,9.76,19.08,9.69,21.6,10.77Z"/><path class="cls-7" d="M18.88,11.63c-.34.58-.24,1,.55,1.32.55.22,1.12,0,1.18-.39s.06-.44-.44-.75S19.17,11.13,18.88,11.63Z"/><path class="cls-8" d="M21.53,13.36s-.3-1.55-1.32-1.88c-.63-.21-1.71-.28-2-.37a1,1,0,0,1-.56-.34,1.65,1.65,0,0,0,.86.94,2.62,2.62,0,0,1,1.19.08C20.87,12,21.45,13.37,21.53,13.36Z"/><ellipse class="cls-9" cx="19.14" cy="12.11" rx="0.16" ry="0.15" transform="translate(3.5 28.49) rotate(-78.64)"/><path class="cls-7" d="M25.08,12.81c.16.51.52.59,1.12.46a1.12,1.12,0,0,0,1-1.15c0-.58-.75-.33-1.31-.31A.8.8,0,0,0,25.08,12.81Z"/><path class="cls-8" d="M29.31,11.35a3.4,3.4,0,0,1-1.36.27c-.87,0-2.1-.11-2.73.44a2.11,2.11,0,0,0-.79,1.38c0,.18.08-.11.27-.4A2.11,2.11,0,0,1,26,12.15c.53,0,2.43.15,2.92-.23S29.55,11.14,29.31,11.35Z"/><ellipse class="cls-10" cx="25.48" cy="12.54" rx="0.16" ry="0.17" transform="translate(-0.3 0.63) rotate(-1.41)"/><path class="cls-3" d="M37.07,15.47H30.35c-.18-.46-.35-1-.51-1.45s-.31-1-.45-1.51l-.06-.18c0-.2-.11-.4-.16-.6l-.09-.29-.1-.37-.06-.2h0l-.06-.22s0,0,0,0a1.21,1.21,0,0,1-.05-.18c-.09-.29-.17-.58-.25-.87-.24-.75-.47-1.48-.72-2.13C26.6,4.29,23.15,5,22.35,5.26h0l-.16,0a3.13,3.13,0,0,0-3.7,2.23,7,7,0,0,0-.3,3.38S15.74,9.26,15.84,7.8s3.87-4.57,3.87-4.57L25,1.4l9,3.28Z"/></g></g></g></svg>