<svg id="Layer_1" data-name="Layer 1" xmlns="http://www.w3.org/2000/svg" xmlns:xlink="http://www.w3.org/1999/xlink" viewBox="0 0 62.5 29.13"><defs><style>.cls-1{fill:#90dee9;opacity:0.5;isolation:isolate;}.cls-2{fill:url(#linear-gradient);}.cls-3{fill:#d3d6d6;}.cls-4{fill:url(#linear-gradient-2);}</style><linearGradient id="linear-gradient" x1="241.42" y1="-722.36" x2="241.42" y2="-694.84" gradientTransform="matrix(1, 0.06, 0.06, -1, -165.82, -708.3)" gradientUnits="userSpaceOnUse"><stop offset="0" stop-color="#6f6f86"/><stop offset="0.99" stop-color="#888481"/></linearGradient><linearGradient id="linear-gradient-2" x1="34.84" y1="-654.1" x2="44.88" y2="-654.1" gradientTransform="matrix(1, 0, 0, -1, 0, -637.35)" gradientUnits="userSpaceOnUse"><stop offset="0" stop-color="#5b5b75"/><stop offset="0.99" stop-color="#888481"/></linearGradient></defs><path class="cls-1" d="M.6,29s11.1.4,27.5,0l34.4-.7-16.4-2.6H14.5Z"/><path class="cls-2" d="M13.4,26.85S21.1,6.35,29.2.25l12.7,6.4L45,26.85Z"/><path class="cls-3" d="M22.6,7.85c2.6,3.2,7.7,3.7,12.2,3.9a8.83,8.83,0,0,0,2.8-.2c2.8-.8,4.1-5,4.1-5C36.3,4.15,31,1.55,29,.15,29.1.25,22.2,7.35,22.6,7.85Z"/><path class="cls-4" d="M36.1,26.85l-1.3-15.1a7.76,7.76,0,0,1,7-5.1l3.1,20.2Z"/></svg>