<svg id="Layer_1" data-name="Layer 1" xmlns="http://www.w3.org/2000/svg" xmlns:xlink="http://www.w3.org/1999/xlink" viewBox="0 0 222.8 88.57"><defs><style>.cls-1{fill:#90dee9;opacity:0.5;}.cls-1,.cls-5{isolation:isolate;}.cls-2{fill:url(#linear-gradient);}.cls-3{fill:url(#linear-gradient-2);}.cls-4,.cls-5{fill:#9ba1a7;}.cls-5{opacity:0.7;}</style><linearGradient id="linear-gradient" x1="118.93" y1="1782.6" x2="118.93" y2="1715" gradientTransform="translate(0 -1696)" gradientUnits="userSpaceOnUse"><stop offset="0" stop-color="#5b5b75"/><stop offset="0.99" stop-color="#888481"/></linearGradient><linearGradient id="linear-gradient-2" x1="64.75" y1="1783.7" x2="64.75" y2="1696" gradientTransform="translate(0 -1696)" gradientUnits="userSpaceOnUse"><stop offset="0" stop-color="#6f6f86"/><stop offset="0.99" stop-color="#888481"/></linearGradient></defs><path class="cls-1" d="M11.2,87.8s77.2,1.2,120.6.6l91-1.2L95.7,83Z"/><path class="cls-2" d="M163.8,84.9s-1.3-9.7-2.3-12.4S151.4,61.5,149,60s-4.8,7.4-4.6,8.5,0,13,0,13-14.9-29.4-15.7-30.9-16.3-6.8-22.1-6.8V57L97.5,44.3l-4.6-1.8,5.3-.3s-1.3-8.6-2.4-10.6S80.4,19,80.4,19a26.36,26.36,0,0,0-5.5,1.5c-1.9,1,0,16.9,0,16.9l18,39.1,35.5,10.1C128.5,86.5,160.2,85.1,163.8,84.9Z"/><path class="cls-3" d="M128.5,86.5l-77,.8-40.3.4s4.8-7.4,5.6-7.9,5.9,0,5.9,0S10.2,58.9,10,58.2s-1.9-6.9-1.9-6.9L4.2,31.7a26.92,26.92,0,0,1-2.7-3.2c-.1-.3-.5-2.1-.5-2.1S12.9,8.6,31.9,4.5l.2-.2C33,3.4,36.5.2,38.2,0c1.9-.3,30,23.5,33,26.4S97.8,64,97.8,64Z"/><path class="cls-4" d="M75,20.4S86.1,33.4,87.5,34s8.4-2.5,8.4-2.5-5.1-6-15.4-12.6A49.45,49.45,0,0,0,75,20.4Z"/><path class="cls-4" d="M107.1,43.8s3.6,7.7,3.8,8.3,12.3,1.5,12.3,1.5h5.3l.2-2.9C128.8,50.6,124.2,45.7,107.1,43.8Z"/><path class="cls-4" d="M148.6,60c-.9.2-2.6,6.2-2.7,7.3s6,6.6,6,6.6l6.7.8,2.9-2.2S151.8,59.4,148.6,60Z"/><path class="cls-5" d="M62.9,87.3l-51.6.4s4.8-7.4,5.6-7.9,5.9,0,5.9,0S10.2,58.9,10.1,58.2s-1.9-6.9-1.9-6.9L4.3,31.7a26.92,26.92,0,0,1-2.7-3.2c-.1-.3-.5-2.1-.5-2.1S13,8.6,32,4.5l.2-.2C35,9.2,49.7,29,52.9,34.1c5.6,8.7,6.3,21.3,6.5,22.5C59.9,60,61.1,71.6,62.9,87.3Z"/></svg>