<?xml version="1.0" encoding="utf-8"?>
<!-- Generator: Adobe Illustrator 25.1.0, SVG Export Plug-In . SVG Version: 6.00 Build 0)  -->
<svg version="1.1" id="Layer_1" xmlns="http://www.w3.org/2000/svg" xmlns:xlink="http://www.w3.org/1999/xlink" x="0px" y="0px"
	 viewBox="0 0 3813 88.6" style="enable-background:new 0 0 3813 88.6;" xml:space="preserve">
<style type="text/css">
	.st0{opacity:0.5;fill:#90DEE9;enable-background:new    ;}
	.st1{fill:url(#SVGID_1_);}
	.st2{fill:url(#SVGID_2_);}
	.st3{fill:#9BA1A7;}
	.st4{opacity:0.7;fill:#9BA1A7;enable-background:new    ;}
	.st5{fill:url(#SVGID_3_);}
	.st6{fill:url(#SVGID_4_);}
	.st7{fill:url(#SVGID_5_);}
	.st8{fill:url(#SVGID_6_);}
</style>
<g>
	<g>
		<g id="_2">
			<path class="st0" d="M25.3,87.8c0,0,77.2,1.2,120.6,0.6l91-1.2L109.8,83L25.3,87.8z"/>
			
				<linearGradient id="SVGID_1_" gradientUnits="userSpaceOnUse" x1="133.0278" y1="-702.6" x2="133.0278" y2="-635" gradientTransform="matrix(1 0 0 -1 0 -616)">
				<stop  offset="0" style="stop-color:#5B5B75"/>
				<stop  offset="0.99" style="stop-color:#888481"/>
			</linearGradient>
			<path class="st1" d="M177.9,84.9c0,0-1.3-9.7-2.3-12.4s-10.1-11-12.5-12.5s-4.8,7.4-4.6,8.5s0,13,0,13s-14.9-29.4-15.7-30.9
				s-16.3-6.8-22.1-6.8V57l-9.1-12.7l-4.6-1.8l5.3-0.3c0,0-1.3-8.6-2.4-10.6S94.5,19,94.5,19c-1.9,0.3-3.7,0.8-5.5,1.5
				c-1.9,1,0,16.9,0,16.9l18,39.1l35.5,10.1C142.6,86.5,174.3,85.1,177.9,84.9z"/>
			
				<linearGradient id="SVGID_2_" gradientUnits="userSpaceOnUse" x1="78.85" y1="-703.7" x2="78.85" y2="-615.9972" gradientTransform="matrix(1 0 0 -1 0 -616)">
				<stop  offset="0" style="stop-color:#6F6F86"/>
				<stop  offset="0.99" style="stop-color:#888481"/>
			</linearGradient>
			<path class="st2" d="M142.6,86.5l-77,0.8l-40.3,0.4c0,0,4.8-7.4,5.6-7.9s5.9,0,5.9,0S24.3,58.9,24.1,58.2s-1.9-6.9-1.9-6.9
				l-3.9-19.6c-1-1-1.9-2.1-2.7-3.2c-0.1-0.3-0.5-2.1-0.5-2.1S27,8.6,46,4.5l0.2-0.2c0.9-0.9,4.4-4.1,6.1-4.3
				c1.9-0.3,30,23.5,33,26.4S111.9,64,111.9,64L142.6,86.5z"/>
			<path class="st3" d="M89.1,20.4c0,0,11.1,13,12.5,13.6s8.4-2.5,8.4-2.5s-5.1-6-15.4-12.6C92.7,19.3,90.9,19.8,89.1,20.4z"/>
			<path class="st3" d="M121.2,43.8c0,0,3.6,7.7,3.8,8.3s12.3,1.5,12.3,1.5h5.3l0.2-2.9C142.9,50.6,138.3,45.7,121.2,43.8z"/>
			<path class="st3" d="M162.7,60c-0.9,0.2-2.6,6.2-2.7,7.3s6,6.6,6,6.6l6.7,0.8l2.9-2.2C175.6,72.5,165.9,59.4,162.7,60z"/>
			<path class="st4" d="M77,87.3l-51.6,0.4c0,0,4.8-7.4,5.6-7.9s5.9,0,5.9,0S24.3,58.9,24.2,58.2s-1.9-6.9-1.9-6.9l-3.9-19.6
				c-1-1-1.9-2.1-2.7-3.2c-0.1-0.3-0.5-2.1-0.5-2.1S27.1,8.6,46.1,4.5l0.2-0.2C49.1,9.2,63.8,29,67,34.1c5.6,8.7,6.3,21.3,6.5,22.5
				C74,60,75.2,71.6,77,87.3z"/>
			<path class="st0" d="M2370.6,87.8c0,0,77.2,1.2,120.6,0.6l91-1.2L2455.1,83L2370.6,87.8z"/>
			
				<linearGradient id="SVGID_3_" gradientUnits="userSpaceOnUse" x1="2478.3279" y1="-702.6" x2="2478.3279" y2="-635" gradientTransform="matrix(1 0 0 -1 0 -616)">
				<stop  offset="0" style="stop-color:#5B5B75"/>
				<stop  offset="0.99" style="stop-color:#888481"/>
			</linearGradient>
			<path class="st5" d="M2523.2,84.9c0,0-1.3-9.7-2.3-12.4s-10.1-11-12.5-12.5s-4.8,7.4-4.6,8.5s0,13,0,13s-14.9-29.4-15.7-30.9
				s-16.3-6.9-22.1-6.8V57l-9.1-12.7l-4.6-1.8l5.3-0.3c0,0-1.4-8.6-2.4-10.6S2439.8,19,2439.8,19c-1.9,0.3-3.7,0.8-5.5,1.5
				c-1.9,1,0,16.9,0,16.9l18,39.1l35.5,10.1C2487.9,86.5,2519.6,85.1,2523.2,84.9z"/>
			
				<linearGradient id="SVGID_4_" gradientUnits="userSpaceOnUse" x1="2424.1001" y1="-703.7" x2="2424.1001" y2="-615.9972" gradientTransform="matrix(1 0 0 -1 0 -616)">
				<stop  offset="0" style="stop-color:#6F6F86"/>
				<stop  offset="0.99" style="stop-color:#888481"/>
			</linearGradient>
			<path class="st6" d="M2487.8,86.5l-77,0.8l-40.3,0.4c0,0,4.9-7.4,5.6-7.9s5.9,0,5.9,0s-12.5-20.9-12.6-21.6s-1.9-6.9-1.9-6.9
				l-3.9-19.6c-1-1-1.9-2.1-2.7-3.2c-0.1-0.3-0.5-2.1-0.5-2.1s11.9-17.8,30.9-21.9l0.2-0.2c0.9-0.9,4.4-4.1,6.1-4.3
				c1.9-0.3,30,23.5,33,26.4s26.6,37.6,26.6,37.6L2487.8,86.5z"/>
			<path class="st3" d="M2434.4,20.4c0,0,11.1,13,12.5,13.6s8.4-2.5,8.4-2.5s-5.1-6-15.4-12.6C2438,19.3,2436.2,19.8,2434.4,20.4z"
				/>
			<path class="st3" d="M2466.5,43.8c0,0,3.6,7.7,3.9,8.3s12.3,1.5,12.3,1.5h5.3l0.2-2.9C2488.1,50.6,2483.6,45.7,2466.5,43.8z"/>
			<path class="st3" d="M2508,60c-0.9,0.2-2.6,6.2-2.7,7.3s6,6.6,6,6.6l6.7,0.8l2.9-2.2C2520.9,72.5,2511.2,59.4,2508,60z"/>
			<path class="st4" d="M2422.2,87.3l-51.6,0.4c0,0,4.9-7.4,5.6-7.9s5.9,0,5.9,0s-12.6-20.9-12.7-21.6s-1.9-6.9-1.9-6.9l-3.9-19.6
				c-1-1-1.9-2.1-2.7-3.2c-0.1-0.3-0.5-2.1-0.5-2.1s11.9-17.8,30.9-21.9l0.2-0.2c2.8,4.9,17.5,24.7,20.7,29.8
				c5.6,8.7,6.3,21.3,6.5,22.5C2419.2,60,2420.4,71.6,2422.2,87.3z"/>
			<path class="st0" d="M3802.8,87.8c0,0-77.2,1.2-120.6,0.6l-91-1.2l127-4.2L3802.8,87.8z"/>
			
				<linearGradient id="SVGID_5_" gradientUnits="userSpaceOnUse" x1="8672.585" y1="-702.6" x2="8672.585" y2="-635" gradientTransform="matrix(-1 0 0 -1 12367.6572 -616)">
				<stop  offset="0" style="stop-color:#5B5B75"/>
				<stop  offset="0.99" style="stop-color:#888481"/>
			</linearGradient>
			<path class="st7" d="M3650.2,84.9c0,0,1.3-9.7,2.3-12.4s10.1-11,12.5-12.5s4.8,7.4,4.6,8.5s0,13,0,13s14.9-29.4,15.7-30.9
				s16.3-6.9,22.1-6.8V57l9.1-12.7l4.6-1.8l-5.3-0.3c0,0,1.4-8.6,2.4-10.6s15.4-12.6,15.4-12.6c1.9,0.3,3.7,0.8,5.5,1.5
				c1.9,1,0,16.9,0,16.9l-18,39.1l-35.5,10.1C3685.5,86.5,3653.8,85.1,3650.2,84.9z"/>
			
				<linearGradient id="SVGID_6_" gradientUnits="userSpaceOnUse" x1="8618.4072" y1="-703.7" x2="8618.4072" y2="-615.9972" gradientTransform="matrix(-1 0 0 -1 12367.6572 -616)">
				<stop  offset="0" style="stop-color:#6F6F86"/>
				<stop  offset="0.99" style="stop-color:#888481"/>
			</linearGradient>
			<path class="st8" d="M3685.5,86.5l77,0.8l40.3,0.4c0,0-4.9-7.4-5.6-7.9s-5.9,0-5.9,0s12.5-20.9,12.7-21.6s1.9-6.9,1.9-6.9
				l3.9-19.6c1-1,1.9-2.1,2.7-3.2c0.1-0.3,0.5-2.1,0.5-2.1s-11.9-17.8-30.9-21.9l-0.2-0.2c-0.9-0.9-4.4-4.1-6.1-4.3
				c-1.9-0.3-30,23.5-33,26.4S3716.2,64,3716.2,64L3685.5,86.5z"/>
			<path class="st3" d="M3739,20.4c0,0-11.1,13-12.5,13.6s-8.4-2.5-8.4-2.5s5.1-6,15.4-12.6C3735.4,19.3,3737.2,19.8,3739,20.4z"/>
			<path class="st3" d="M3706.9,43.8c0,0-3.6,7.7-3.9,8.3s-12.3,1.5-12.3,1.5h-5.3l-0.2-2.9C3685.3,50.6,3689.8,45.7,3706.9,43.8z"
				/>
			<path class="st3" d="M3665.4,60c0.9,0.2,2.6,6.2,2.7,7.3s-6,6.6-6,6.6l-6.6,0.8l-2.9-2.2C3652.5,72.5,3662.2,59.4,3665.4,60z"/>
			<path class="st4" d="M3751.1,87.3l51.6,0.4c0,0-4.9-7.4-5.6-7.9s-5.9,0-5.9,0s12.5-20.9,12.7-21.6s1.9-6.9,1.9-6.9l3.9-19.6
				c1-1,1.9-2.1,2.7-3.2c0.1-0.3,0.5-2.1,0.5-2.1S3801,8.6,3782,4.5l-0.2-0.2c-2.8,4.9-17.5,24.7-20.7,29.8
				c-5.5,8.7-6.3,21.3-6.5,22.5C3754.1,60,3752.9,71.6,3751.1,87.3z"/>
		</g>
	</g>
</g>
</svg>
