<?xml version="1.0" encoding="utf-8"?>
<!-- Generator: Adobe Illustrator 25.1.0, SVG Export Plug-In . SVG Version: 6.00 Build 0)  -->
<svg version="1.1" id="Layer_1" xmlns="http://www.w3.org/2000/svg" xmlns:xlink="http://www.w3.org/1999/xlink" x="0px" y="0px"
	 viewBox="0 0 4927.6 26.6" style="enable-background:new 0 0 4927.6 26.6;" xml:space="preserve">
<style type="text/css">
	.st0{opacity:0.5;fill:#90DEE9;enable-background:new    ;}
	.st1{fill:url(#SVGID_1_);}
	.st2{fill:#D3D6D6;}
	.st3{fill:url(#SVGID_2_);}
	.st4{fill:url(#SVGID_3_);}
	.st5{fill:url(#SVGID_4_);}
	.st6{fill:url(#SVGID_5_);}
	.st7{fill:url(#SVGID_6_);}
</style>
<g>
	<g>
		<g id="_2">
			<path class="st0" d="M2486.1,28.7c0,0,11.1,0.4,27.5,0L2548,28l-16.4-2.6H2500L2486.1,28.7z"/>
			
				<linearGradient id="SVGID_1_" gradientUnits="userSpaceOnUse" x1="2696.9136" y1="862.2877" x2="2696.9136" y2="834.7676" gradientTransform="matrix(0.998 6.366144e-02 -6.366144e-02 0.998 -121.9975 -1004.5219)">
				<stop  offset="0" style="stop-color:#6F6F86"/>
				<stop  offset="0.99" style="stop-color:#888481"/>
			</linearGradient>
			<path class="st1" d="M2498.9,26.6c0,0,7.7-20.5,15.8-26.6l12.7,6.4l3.1,20.2H2498.9z"/>
			<path class="st2" d="M2508.1,7.6c2.6,3.2,7.7,3.7,12.2,3.9c0.9,0.1,1.9,0,2.8-0.2c2.8-0.8,4.1-5,4.1-5c-5.4-2.4-10.7-5-12.7-6.4
				C2514.6,0,2507.7,7.1,2508.1,7.6z"/>
			
				<linearGradient id="SVGID_2_" gradientUnits="userSpaceOnUse" x1="2520.3401" y1="886.5" x2="2530.3799" y2="886.5" gradientTransform="matrix(1 0 0 1 0 -870)">
				<stop  offset="0" style="stop-color:#5B5B75"/>
				<stop  offset="0.99" style="stop-color:#888481"/>
			</linearGradient>
			<path class="st3" d="M2521.6,26.6l-1.3-15.1c1.1-3,3.9-5,7-5.1l3.1,20.2H2521.6z"/>
			<path class="st0" d="M3239.9,28.7c0,0,11.1,0.4,27.5,0l34.4-0.8l-16.4-2.6h-31.7L3239.9,28.7z"/>
			
				<linearGradient id="SVGID_3_" gradientUnits="userSpaceOnUse" x1="3449.1633" y1="814.3477" x2="3449.1633" y2="786.8276" gradientTransform="matrix(0.998 6.366144e-02 -6.366144e-02 0.998 -121.9975 -1004.5219)">
				<stop  offset="0" style="stop-color:#6F6F86"/>
				<stop  offset="0.99" style="stop-color:#888481"/>
			</linearGradient>
			<path class="st4" d="M3252.7,26.6c0,0,7.7-20.5,15.8-26.6l12.7,6.4l3.1,20.2H3252.7z"/>
			<path class="st2" d="M3261.9,7.6c2.6,3.2,7.7,3.7,12.2,3.9c0.9,0.1,1.9,0,2.8-0.2c2.8-0.8,4.1-5,4.1-5c-5.4-2.4-10.7-5-12.7-6.4
				C3268.4,0,3261.5,7.1,3261.9,7.6z"/>
			
				<linearGradient id="SVGID_4_" gradientUnits="userSpaceOnUse" x1="3274.1499" y1="886.5" x2="3284.1899" y2="886.5" gradientTransform="matrix(1 0 0 1 0 -870)">
				<stop  offset="0" style="stop-color:#5B5B75"/>
				<stop  offset="0.99" style="stop-color:#888481"/>
			</linearGradient>
			<path class="st5" d="M3275.4,26.6l-1.3-15.1c1.1-3,3.9-5,7-5.1l3.1,20.2H3275.4z"/>
			<path class="st0" d="M4865.7,28.7c0,0,11.1,0.4,27.5,0l34.4-0.8l-16.3-2.6h-31.7L4865.7,28.7z"/>
			
				<linearGradient id="SVGID_5_" gradientUnits="userSpaceOnUse" x1="5071.5195" y1="710.9576" x2="5071.5195" y2="683.4382" gradientTransform="matrix(0.998 6.366144e-02 -6.366144e-02 0.998 -121.9975 -1004.5219)">
				<stop  offset="0" style="stop-color:#6F6F86"/>
				<stop  offset="0.99" style="stop-color:#888481"/>
			</linearGradient>
			<path class="st6" d="M4878.4,26.6c0,0,7.7-20.5,15.8-26.6l12.7,6.4l3.1,20.2H4878.4z"/>
			<path class="st2" d="M4887.7,7.6c2.6,3.2,7.7,3.7,12.2,3.9c0.9,0.1,1.9,0,2.8-0.2c2.8-0.8,4.1-5,4.1-5c-5.4-2.4-10.7-5-12.7-6.4
				C4894.2,0,4887.3,7.1,4887.7,7.6z"/>
			
				<linearGradient id="SVGID_6_" gradientUnits="userSpaceOnUse" x1="4899.9004" y1="886.5" x2="4909.9404" y2="886.5" gradientTransform="matrix(1 0 0 1 0 -870)">
				<stop  offset="0" style="stop-color:#5B5B75"/>
				<stop  offset="0.99" style="stop-color:#888481"/>
			</linearGradient>
			<path class="st7" d="M4901.2,26.6l-1.3-15.1c1.1-3,3.9-5,7-5.1l3.1,20.2H4901.2z"/>
		</g>
	</g>
</g>
</svg>
