<?xml version="1.0" encoding="utf-8"?>
<!-- Generator: Adobe Illustrator 25.1.0, SVG Export Plug-In . SVG Version: 6.00 Build 0)  -->
<svg version="1.1" id="Layer_1" xmlns="http://www.w3.org/2000/svg" xmlns:xlink="http://www.w3.org/1999/xlink" x="0px" y="0px"
	 viewBox="0 0 628.1 477.6" style="enable-background:new 0 0 628.1 477.6;" xml:space="preserve">
<style type="text/css">
	.st0{fill:url(#SVGID_1_);}
	.st1{fill:url(#SVGID_2_);}
	.st2{fill:#828296;}
	.st3{fill:#8C8C9E;}
	.st4{opacity:0.4;fill:url(#SVGID_3_);enable-background:new    ;}
	.st5{opacity:0.4;fill:url(#SVGID_4_);enable-background:new    ;}
</style>
<g>
	<g>
		<g id="_2">
			
				<linearGradient id="SVGID_1_" gradientUnits="userSpaceOnUse" x1="99.15" y1="1077.6" x2="99.15" y2="976" gradientTransform="matrix(1 0 0 1 0 -600)">
				<stop  offset="0" style="stop-color:#6F6F86"/>
				<stop  offset="0.99" style="stop-color:#888481"/>
			</linearGradient>
			<path class="st0" d="M0,475.8c0,0,3.2-21.7,4.4-25.5s36.8-60.5,76.7-74.3c0,0,56.4,32.4,76.6,62.9v30.8c0,0,12.7-9.8,19-11.1
				s21.6,19,21.6,19L0,475.8z"/>
			
				<linearGradient id="SVGID_2_" gradientUnits="userSpaceOnUse" x1="419.0892" y1="1074.4033" x2="419.0892" y2="600" gradientTransform="matrix(1 0 0 1 0 -600)">
				<stop  offset="0" style="stop-color:#6F6F86"/>
				<stop  offset="0.99" style="stop-color:#888481"/>
			</linearGradient>
			<path class="st1" d="M628.1,442.1v17.7L368,454.2l-56,14l-5.4,1.4c0,0-20.6,2.7-42.8,4.1c-16.5,1-33.9,1.2-44.3-1.2
				c-2.6-0.5-5.1-1.4-7.3-2.8c0,0-0.1-0.4-0.3-1.1c-1-3.9-3.7-16.7,0.3-25.6c3.2-7.4,18.2-27.7,27.1-39.6l0.1-0.1
				c3.9-5.2,6.6-8.7,6.6-8.7L366.6,266c0,0,102.8-253.3,121.8-266c0,0,61.2,80.3,85.7,181.4L542,334.8l10.1,12.9l-0.8,13.9
				C551.3,361.6,618,429.4,628.1,442.1z"/>
			<path class="st2" d="M552.1,347.7c0,0-48.1,18.4-75.1,16.7c0,0,46.4-17.7,65-29.6L552.1,347.7z"/>
			<path class="st3" d="M81.1,376c0,0-48.2,14.8-72.8,67.6c0,0,115.6,14,149.4-4.7C157.7,438.9,122.7,395.3,81.1,376z"/>
			<path class="st2" d="M551.3,361.6c0,0-27,13.7-36.7,31.5c0,0,59.5,37.5,86.6,45.8s27,3.2,27,3.2L551.3,361.6z"/>
			<path class="st2" d="M384.1,306.1c4.2-10.1-17.5-40.1-17.5-40.1s-113,118.1-127.1,137.3l0,0l-0.1,0.1
				c-8.9,11.9-23.9,32.2-27.1,39.6c-4,8.9-1.2,21.7-0.3,25.6l7.6,4l9.8,5.1l34.5-3.9l48.1-5.4c-9.2-62.5-5.4-65.8-5.4-65.8
				C314,399.9,379.9,316.3,384.1,306.1z"/>
			
				<linearGradient id="SVGID_3_" gradientUnits="userSpaceOnUse" x1="513.75" y1="1054.2" x2="513.75" y2="600" gradientTransform="matrix(1 0 0 1 0 -600)">
				<stop  offset="0" style="stop-color:#687C92"/>
				<stop  offset="1" style="stop-color:#FEBAAC"/>
			</linearGradient>
			<path class="st4" d="M574.1,181.4C557.2,95.4,488.4,0,488.4,0l-2.1,99.2c0,0-19.4,75.2-18.3,91.3s18.3,75.4,18.3,75.4
				l-32.9,188.3c8.1-0.9,39.7-10.6,61.1-61.1c22-25.4,36.8-31.5,36.8-31.5l0.8-13.9L542,334.9l21-100.6
				C566.4,233,574.1,181.4,574.1,181.4z"/>
			
				<linearGradient id="SVGID_4_" gradientUnits="userSpaceOnUse" x1="348.1953" y1="1068.3" x2="348.1953" y2="906.1" gradientTransform="matrix(1 0 0 1 0 -600)">
				<stop  offset="0" style="stop-color:#687C92"/>
				<stop  offset="1" style="stop-color:#FEBAAC"/>
			</linearGradient>
			<path class="st5" d="M384.1,306.1l6.8,106.6l-22.8,41.6l-56,14c0,0-10-62.1-5.4-65.8C325.6,387.2,384.1,306.1,384.1,306.1z"/>
			<path class="st2" d="M468,190.6L366.6,266c0,0,82.6-211.5,121.8-266l-2.1,99.2L468,190.6z"/>
		</g>
	</g>
</g>
</svg>
