<svg id="Layer_1" data-name="Layer 1" xmlns="http://www.w3.org/2000/svg" xmlns:xlink="http://www.w3.org/1999/xlink" viewBox="0 0 208.5 57.57"><defs><style>.cls-1{fill:#90dee9;opacity:0.5;isolation:isolate;}.cls-2{fill:url(#linear-gradient);}.cls-3{fill:#d3d6d6;}</style><linearGradient id="linear-gradient" x1="63.4" y1="-390.28" x2="63.4" y2="-335.21" gradientTransform="matrix(1, -0.01, -0.01, -1, 40.42, -333.54)" gradientUnits="userSpaceOnUse"><stop offset="0" stop-color="#595974"/><stop offset="0.99" stop-color="#787471"/></linearGradient></defs><path class="cls-1" d="M0,56.8s76.1,1.2,118.8.6l89.7-1.2L165.9,52H83.3Z"/><path class="cls-2" d="M49.7,54.8H167.8c3.9-1.2-9.9-49.3-12.9-53.5s-76,2.6-86.4,8.4S49.7,54.8,49.7,54.8Z"/><path class="cls-3" d="M67.5,17.9c6.3,2.9,13.3,4.4,20.3,5.6,11.9,2,24.4,3.2,36.2.5s23-10.1,26.2-20.3c.3-.9.4-2.1-.5-2.5a3.18,3.18,0,0,0-1.4-.2c-17.3.4-34.6,1.6-51.7,3.7-8,1-17.7,1.3-25.3,3.7C66.8,9.9,61,14.8,67.5,17.9Z"/></svg>