<?xml version="1.0" encoding="utf-8"?>
<!-- Generator: Adobe Illustrator 25.1.0, SVG Export Plug-In . SVG Version: 6.00 Build 0)  -->
<svg version="1.1" id="Layer_1" xmlns="http://www.w3.org/2000/svg" xmlns:xlink="http://www.w3.org/1999/xlink" x="0px" y="0px"
	 viewBox="0 0 4680 68" style="enable-background:new 0 0 4680 68;" xml:space="preserve">
<style type="text/css">
	.st0{opacity:0.5;fill:#90DEE9;enable-background:new    ;}
	.st1{fill:url(#SVGID_1_);}
	.st2{fill:#D3D6D6;}
	.st3{fill:url(#SVGID_2_);}
	.st4{fill:url(#SVGID_3_);}
</style>
<g>
	<g>
		<g id="_2">
			<path class="st0" d="M2103.2,67.2c0,0,76.1,1.2,118.8,0.6l89.7-1.2l-42.6-4.2h-82.6L2103.2,67.2z"/>
			
				<linearGradient id="SVGID_1_" gradientUnits="userSpaceOnUse" x1="2169.7087" y1="1004.7047" x2="2169.7087" y2="949.636" gradientTransform="matrix(0.9999 -1.361315e-02 1.361315e-02 0.9999 29.1563 -908.8369)">
				<stop  offset="0" style="stop-color:#595974"/>
				<stop  offset="0.99" style="stop-color:#787471"/>
			</linearGradient>
			<path class="st1" d="M2152.9,65.2H2271c3.9-1.2-9.9-49.3-12.9-53.5s-76,2.6-86.4,8.4S2152.9,65.2,2152.9,65.2z"/>
			<path class="st2" d="M2170.7,28.3c6.3,2.9,13.3,4.4,20.3,5.6c11.9,2,24.4,3.2,36.2,0.5s23-10.1,26.2-20.3
				c0.3-0.9,0.4-2.1-0.5-2.5c-0.4-0.2-0.9-0.2-1.4-0.2c-17.3,0.4-34.6,1.6-51.7,3.7c-8,1-17.7,1.3-25.3,3.7
				C2170,20.3,2164.2,25.2,2170.7,28.3z"/>
			<path class="st0" d="M2808.8,67.2c0,0,76.1,1.2,118.8,0.6l89.7-1.2l-42.6-4.2H2892L2808.8,67.2z"/>
			
				<linearGradient id="SVGID_2_" gradientUnits="userSpaceOnUse" x1="2875.1465" y1="1014.3746" x2="2875.1465" y2="959.3063" gradientTransform="matrix(0.9999 -1.361315e-02 1.361315e-02 0.9999 29.1563 -908.8369)">
				<stop  offset="0" style="stop-color:#595974"/>
				<stop  offset="0.99" style="stop-color:#787471"/>
			</linearGradient>
			<path class="st3" d="M2858.4,65.2h118.1c3.9-1.2-10-49.3-12.9-53.5s-76,2.6-86.4,8.4S2858.4,65.2,2858.4,65.2z"/>
			<path class="st2" d="M2876.3,28.3c6.3,2.9,13.3,4.4,20.3,5.6c11.9,2,24.4,3.2,36.2,0.5s23-10.1,26.2-20.3
				c0.3-0.9,0.4-2.1-0.5-2.5c-0.4-0.2-0.9-0.2-1.4-0.2c-17.3,0.4-34.6,1.6-51.7,3.7c-8,1-17.7,1.3-25.3,3.7
				C2875.5,20.3,2869.8,25.2,2876.3,28.3z"/>
			<path class="st0" d="M4471.5,67.2c0,0,76.1,1.2,118.8,0.6l89.7-1.2l-42.6-4.2h-82.6L4471.5,67.2z"/>
			
				<linearGradient id="SVGID_3_" gradientUnits="userSpaceOnUse" x1="4537.8071" y1="1037.1547" x2="4537.8071" y2="982.0861" gradientTransform="matrix(0.9999 -1.361315e-02 1.361315e-02 0.9999 29.1563 -908.8369)">
				<stop  offset="0" style="stop-color:#595974"/>
				<stop  offset="0.99" style="stop-color:#787471"/>
			</linearGradient>
			<path class="st4" d="M4521.2,65.2h118.1c3.9-1.2-9.9-49.3-12.9-53.5s-76,2.6-86.4,8.4S4521.2,65.2,4521.2,65.2z"/>
			<path class="st2" d="M4539,28.3c6.3,2.9,13.3,4.4,20.3,5.6c11.9,2,24.4,3.2,36.2,0.5s23-10.1,26.2-20.3c0.3-0.9,0.4-2.1-0.5-2.5
				c-0.4-0.2-0.9-0.2-1.4-0.2c-17.3,0.4-34.6,1.6-51.7,3.7c-8,1-17.7,1.3-25.3,3.7C4538.3,20.3,4532.5,25.2,4539,28.3z"/>
		</g>
	</g>
</g>
</svg>
