<svg xmlns="http://www.w3.org/2000/svg" viewBox="0 0 122.89 314.48"><defs><style>.cls-1{fill:#6d3022;}.cls-2{fill:#60261d;}.cls-3{fill:#f4c9a8;}.cls-4{fill:#e5b798;}.cls-5{fill:#e2aa3b;}.cls-6{fill:#d19730;}.cls-7{fill:#d8a380;}.cls-8{fill:#fff;}.cls-9{fill:#1d4668;}.cls-10{fill:#1c1c1c;}.cls-11{fill:#51221a;}.cls-12{fill:#ffffba;}.cls-13{fill:#4c0f0c;}.cls-14{fill:#badcf4;}.cls-15{fill:#def1fc;}.cls-16{fill:#3f0a0a;}</style></defs><title>Cassiopea_1</title><g id="Layer_2" data-name="Layer 2"><g id="_2" data-name="2"><path class="cls-1" d="M61.07,12.73c4.44-.88,12.5-1.83,19.95,2.39S93.8,27.9,99.56,46.17s31.79,71.74-6.66,77.39-55,4.66-66.69-3.2,6.33-43.22,11.39-55,3.65-18.44,3.79-27.57S49,15.12,61.07,12.73Z"/><path class="cls-2" d="M88,63.2s-1,11.71,0,15.37S95.66,106,95.74,108s.85,9.62-14.38,11.66S48.94,123,39.49,117.47,27.83,106.57,39,90.32s12.36-34.41,12.89-42.9,5-15.32,9.15-15.23,13.36-2.7,18,6.22S88,63.2,88,63.2Z"/><path class="cls-3" d="M63.39,83.38C55.8,82,50.08,69.55,57.9,70.14c1,.08,3.22-2.27,3.34-6.77,0-.4,0-.81,0-1.24s-.07-.94-.14-1.44c-.29-2.08,18-21.46,17.25-17A102.7,102.7,0,0,0,77.1,54.24c0,.83-.08,1.63-.11,2.4-.11,3.14,0,5.79,0,8.41,0,6.9.08,7.16,3.17,8C88.43,75.21,71,84.78,63.39,83.38Z"/><path class="cls-3" d="M53.51,26.29c-1.14,3.65-1,8.11-1.12,10.82,0,1.57-2.34,4-2,7.79a47.32,47.32,0,0,0,4,15.32,4.06,4.06,0,0,0,3.24,2.34h0a13.3,13.3,0,0,0,2.84-.19,68.66,68.66,0,0,0,8.7-3.62h0c3.18-1.52,6-3,6.8-3.48,3.19-2,4.8-9.61,5.61-13.43,1.67-7.91-1.79-19.23-10.18-21.94C56.3,15,54.39,23.47,53.51,26.29Z"/><path class="cls-4" d="M77.1,54.24c0,.83-.08,1.63-.11,2.4-3.54,3.23-12.93,6-15.75,6.73,0-.4,0-.81,0-1.24a81.88,81.88,0,0,0,7.89-3.37l0,0c3.17-1.51,6-3,6.79-3.47A4.65,4.65,0,0,0,77.1,54.24Z"/><path class="cls-3" d="M75.34,54.35c.46.12,4.26,1.08,5.7-1.18s3.58-6.58,2.73-8.71-3.46-.91-4.15.18S75.34,54.35,75.34,54.35Z"/><path class="cls-3" d="M107.85,104.23c-.89-5.23-3.75-15.07-5-19.52-1-4.46-1.67-5.57-5.46-7.06a82,82,0,0,0-10.26-2.52c-1.91-.08-.36,6.48,1.42,11.46.22,2.21.63,5,1.28,8.55,3.21,17.28,11.52,32.06,12.87,34s5,4.3,8.1,2.26C113.38,129.7,109.2,112.13,107.85,104.23Z"/><path class="cls-3" d="M50.54,71.61s-5.44-.92-8,0c-4.3,1.17-5.84,3.39-6.14,4.07-1.59,3.65-8,14.87-13.3,25-2.85,5.49-5.15,10.15-5.92,15.5-1.54,10.69,7,6,8.62,4.21a155.07,155.07,0,0,0,22.69-32h0a36.73,36.73,0,0,0,3.34-6.57C54.16,76.26,53,71.5,50.54,71.61Z"/><path class="cls-5" d="M69.33,303.93c-2,.78-14.27,4.72-16.64,5.63s-7.38,2.8-10.57,3.11c-1.9.18-3.72-.65-4-2.36-.13-.85,1-2,2.53-3.23s3.44-2.45,4.83-3.43c2.13-1.51,5.19-3.2,8.45-5.76,1-.77,2-1.61,3-2.55,2.82-2.68,4.47-3.48,5.65-3.08s4.34,1,5.66,2.21C68.23,294.47,71.87,302.93,69.33,303.93Z"/><path class="cls-5" d="M85.36,306.85c-2,.69-14.45,4.14-16.86,4.95s-7.48,2.49-10.69,2.67c-1.9.11-3.68-.8-3.86-2.52-.11-1,1.61-2.43,3.61-3.79,1.36-.91,2.86-1.81,4-2.56,2.2-1.43,5.37-3,8.76-5.47,1-.71,2-1.49,3-2.37,2.93-2.56,4.61-3.3,5.77-2.85s4.3,1.14,5.57,2.43C84.65,297.34,87.93,306,85.36,306.85Z"/><path class="cls-6" d="M56.91,308.11s7.77-7.69,9.47-8l1.52,1.65L58,307.87Z"/><path class="cls-3" d="M63.15,299.17a38.75,38.75,0,0,1-3.66,4c-2.22,2.12-14,6.46-15.49,6.89s-3.32.6-3.32-1.88v-1.1c1.53-1.21,3.44-2.45,4.83-3.43,2.13-1.51,5.19-3.2,8.45-5.76Z"/><path class="cls-3" d="M78.9,303.68s-8.17,4-14.9,6.55-7.23,1-7.06,0a14.35,14.35,0,0,1,.62-2.07c1.36-.91,2.86-1.81,4-2.56,2.2-1.43,5.37-3,8.76-5.47Z"/><path class="cls-7" d="M60.15,36.29a22.31,22.31,0,0,1,.38,4.17,9.71,9.71,0,0,1-1,4.12,5.28,5.28,0,0,1-1.26,1.76,4.24,4.24,0,0,1-.9.62,4.37,4.37,0,0,1-.49.23l-.42.17c-.09,0,0,.45.12.7a3.18,3.18,0,0,0,.61.77,4.93,4.93,0,0,0,1.76,1,4.15,4.15,0,0,1-2-.8,2.87,2.87,0,0,1-.75-.8,2,2,0,0,1-.23-.54A.7.7,0,0,1,56.2,47a1,1,0,0,1,.19-.12l.11,0,.24-.1a3.68,3.68,0,0,0,.44-.23A5,5,0,0,0,58,46a4.81,4.81,0,0,0,1.19-1.58,11.59,11.59,0,0,0,1.07-3.94A21.46,21.46,0,0,0,60.15,36.29Z"/><path class="cls-8" d="M64.57,42a5.88,5.88,0,0,0,3.2,1.3c2.29.35,4.57-.14,4.91-.8.65-1.31.28-1.72-.06-2.21s-3.12-.62-4.06-.73a4.46,4.46,0,0,0-3,1.35A8.58,8.58,0,0,1,64.57,42Z"/><path class="cls-8" d="M58.79,40.9s-3.45.69-6-.61c-1.28-.65-1-1.95-.69-2.82s1.51-.71,2.71-.37a7,7,0,0,1,2.45,1.35A18.5,18.5,0,0,1,58.79,40.9Z"/><path class="cls-9" d="M52.74,37.05c-.74,1.27-.58,2.71,1.22,3.16,1.27.32,2.36-.07,2.49-.82.16-.92.23-1.26-.87-2S53.37,36,52.74,37.05Z"/><path class="cls-10" d="M58.79,40.9s-.66-3.39-2.89-4.12c-1.39-.45-3.77-.62-4.42-.82a2.11,2.11,0,0,1-1.24-.75,3.63,3.63,0,0,0,1.9,2.08c.19.08,0-.29,2.6.18S58.6,40.93,58.79,40.9Z"/><path class="cls-9" d="M66.26,41c.09,1.17.75,1.49,2.09,1.73A2.14,2.14,0,0,0,71.09,41c.19-1.25-1.34-1.52-2.53-1.74A1.77,1.77,0,0,0,66.26,41Z"/><path class="cls-10" d="M76,39.88a7.29,7.29,0,0,1-3-.09c-1.86-.4-4.45-1.25-6.07-.38A4.53,4.53,0,0,0,64.57,42c-.14.36.22-.2.76-.75A4.6,4.6,0,0,1,68.62,40c1.15.2,5.13,1.5,6.35.93S76.65,39.55,76,39.88Z"/><path class="cls-11" d="M70.83,36a29.63,29.63,0,0,1-5.51.45c-1.32,0-1.08-.3-1.35-1.38-.1-.43-.21-.65.33-.52a18.56,18.56,0,0,0,5.2.24,28.47,28.47,0,0,1,3.84-.27c.81.18,1.42,1,2.56,2.45.66.86.85,1.64.06.73C73.51,34.87,73.09,35.44,70.83,36Z"/><path class="cls-11" d="M59.48,33.68c.26.14.29,1.49.22,1.74s-.74-.35-1.72-1-3.12-2-3.7-2.29c-1.07-.54-1.3-.38-1.62-.12l-.1.08.07-.93a1.51,1.51,0,0,1,.22-.11C53.31,30.82,54.26,30.7,59.48,33.68Z"/><ellipse class="cls-12" cx="53.32" cy="38.1" rx="0.35" ry="0.34" transform="translate(5.44 82.84) rotate(-78.61)"/><ellipse class="cls-8" cx="67.25" cy="40.57" rx="0.37" ry="0.36" transform="translate(14.2 98.48) rotate(-78.61)"/><path class="cls-4" d="M59,70.29s3.57,2.88,7.17,3,10.57-1.69,10.57-1.69S73,77.08,67.45,76.83,59.19,75.42,59,74.4A25.93,25.93,0,0,1,59,70.29Z"/><path class="cls-4" d="M93.16,107.85s8.28,5.52,16.69,6.89l-.91-5.4-17.46-7.1S92.46,105.77,93.16,107.85Z"/><path class="cls-4" d="M22.33,102.24s9.68,0,14.18-.94a8.38,8.38,0,0,0,2,3.44l1.2-1.72L38.2,98.38l-14.6,1.4Z"/><path class="cls-13" d="M110,112.18c.39,1.28-5.94-1.63-8.46-2.46-2-.67-6.9-3.28-11.3-5.56l-.07,0-.43-.22a56.15,56.15,0,0,1-1.76,6.24C85,118.52,83,125.29,81.81,129.56c-.91,3.23-1.35,5-1.35,5s-8.59,4.32-14.42,3.34-15-4.69-15-4.69-4-20.34-4.53-21.92S46,109.27,45,108.79a11.24,11.24,0,0,1-6.91-9.17c-2.65.29-5.22.48-6.51.51-2.66.06-9.55,1-8.81-.11S36.27,73,40.42,71.06s10.12-1.5,10.12-1.5v.06c3.23,0,8.22.18,8.22.18s.07.18.22.48c.65,1.3,2.64,4.76,5.69,5.21,2.74.41,8.3-2.12,11.12-3.51,1-.52,1.7-.89,1.7-.89A20.63,20.63,0,0,0,82.6,73c.81.23,1.64.45,2.45.66,1,.26,1.94.49,2.76.68,2.27.33,9.93,1.62,12.82,4.19,3.41,3,3.15,6.89,4,10S109.57,110.9,110,112.18Z"/><path class="cls-3" d="M25.45,111.45c-1.31-2.24-3.94-7.94-5.6-11.83-1.23-2.9-4-9.42-5.86-15.2S9.11,69.75,8.46,68.27-.62,65.55,2.32,78s7.29,29.63,8,33c.8,3.92,3.33,9.56,9.12,11.91C22.35,124.11,26.68,113.55,25.45,111.45Z"/><path class="cls-5" d="M12,68.48l2.45-.09a1,1,0,0,0,1-1l-.19-20.24a1,1,0,0,0-1-1h-1a1,1,0,0,0-1,1L11,67.46A1,1,0,0,0,12,68.48Z"/><ellipse class="cls-5" cx="14.49" cy="34.12" rx="13.91" ry="8.99" transform="translate(-20.48 46.43) rotate(-86.37)"/><ellipse class="cls-14" cx="14.88" cy="34.09" rx="12.7" ry="7.88" transform="translate(-20.08 46.78) rotate(-86.37)"/><path class="cls-15" d="M22.76,32.23,10.21,44.77A14,14,0,0,1,7,36.35L19.75,23.64A14.46,14.46,0,0,1,22.76,32.23Z"/><path class="cls-3" d="M2,76.53S-.34,65.71,0,64.18A42.62,42.62,0,0,1,3.9,56.47C4.69,56,14,49.54,15.59,49.64c4.9.3,3.62,11.51,2.54,12.94-.76,1-7.57,2.82-7.82,3.28-1.09,2.09-1.59,2.84.28,8.31C11.85,77.87,2,76.53,2,76.53Z"/><path class="cls-4" d="M62.4,22.72s6.6.53,8.36,2.79,3.07,7.83,3.24,8.76a4.7,4.7,0,0,0,1.49,2l-.6-7.5-4.47-6.06-5.85-1Z"/><path class="cls-1" d="M62,22.78s9.66-2.06,11.78,6.09,2.46,20.77,6.75,25.6S90.94,71.61,90.94,71.61l3-10.23-6-37L69.1,15,57.18,17.6s-9,5.83-9.61,9,4.29,8.91,4.29,8.91S51,20.17,62,22.78Z"/><path class="cls-2" d="M53.79,15.6l-.68.62a95.55,95.55,0,0,0,19.06,2.69c11.57.6,13.12.35,10.14-1.44Z"/><path class="cls-5" d="M50.25,3.6c.72.77,1.33,1.81,2.42,2.9s3.39,3.31,4.91,1.2a6,6,0,0,0,.88-4h-.22a.93.93,0,1,1,1-.84.91.91,0,0,1-.42.69c.74,1.22,2.15,3.11,4,3.63,2.78.79,4.41-1.52,5.62-3.49a9.17,9.17,0,0,0,.78-1.51A1.1,1.1,0,0,1,68.36,1a1.11,1.11,0,0,1,1-1h.2l.11,0,.1,0a1.08,1.08,0,0,1,.79,1.16,1.1,1.1,0,0,1-1.08,1A9.76,9.76,0,0,0,70,3.83c.81,2.17,2,4.75,4.84,4.52,1.9-.17,3.65-1.75,4.61-2.8a.91.91,0,0,1-.28-.76.93.93,0,1,1,.84,1,.8.8,0,0,1-.21,0,6,6,0,0,0,.09,4.11c1.09,2.36,3.77.62,5.05-.24S87,7.87,87.84,7.26s1-.1,1-.1a22,22,0,0,0-3.29,3.68,24,24,0,0,0-3.46,7.51,97.56,97.56,0,0,1-13.35-.53h0l-1.62-.16h0A97.59,97.59,0,0,1,53.79,15.6a24.11,24.11,0,0,0-1.95-8,22.46,22.46,0,0,0-2.52-4.25S49.64,3,50.25,3.6Z"/><path class="cls-13" d="M108.94,227c3.22,51.28,15.53,66.31,13.78,72.53-.25.88-9.15,7.16-23.64,9-9.17,1.14-30.77-6.42-38.86-7.72-18-2.88-41.83,2.72-41.09-.17,3.62-14.17,9.53-101.73,10-107.12,1.46-17.09,8.82-35,13.51-44.51,1.1-2.66,9.38-21.48,9.25-22.68a49.8,49.8,0,0,0,15,.58,50.53,50.53,0,0,0,10.8-2.43,9.12,9.12,0,0,0,1.37,2.42c1,1.22,15.41,28.51,16.7,31C102.32,170.82,108.22,215.36,108.94,227Z"/><path class="cls-16" d="M71.58,176.37s.59,8,2.25,10.39,1.91,3.19,4.85.9a36.19,36.19,0,0,0,9.51-11.29c3.32-5.82,5.75-11.05,6.13-11.69l2.53-4.32-1.57-4.3L79.13,176.55Z"/><path class="cls-16" d="M48.65,134.87l-.41,1S52,140.1,64.57,140.1s19-5.23,19-5.23l-.61-1.09a48.41,48.41,0,0,1-17.58,3.16A59.45,59.45,0,0,1,48.65,134.87Z"/><path class="cls-5" d="M48.65,134.87a30,30,0,0,0,12.17,4.25c6.69.6,13.3-.43,22.1-5.34-.56-1-1.51-2.81-1.51-2.81s-11.78,3.86-20.33,3.31-10.63-3.8-10.63-3.8Z"/><path class="cls-3" d="M110,134.31c-1.16,2.28-10,17.78-12.79,23.1S88.8,170.61,87.91,172s-7.76,2.15-2.8-9.51,11.62-27.86,13.29-30.8,3.3-8,10.17-8.09C113.2,123.46,111.87,130.62,110,134.31Z"/><path class="cls-3" d="M85.11,162.44a14,14,0,0,1-4,5c-4.65,3.92-9.46,8.09-9.51,8.51-.16,1.55,2.47,10.11,4.39,11.24,1.56.93,7.54-6.08,8.27-7.45,1.36-2.57,5.61-8.86,6.43-10.91a20.28,20.28,0,0,0,1.26-2.76C92.44,164.06,85.11,162.44,85.11,162.44Z"/><path class="cls-16" d="M90.12,104.12l-.43-.22a56.15,56.15,0,0,1-1.76,6.24C85,118.52,83,125.29,81.81,129.56l-.06.17L88.17,103Z"/><path class="cls-16" d="M38.13,99.62s0-7.77,5-13a49.53,49.53,0,0,0-4.54,4.54,17.53,17.53,0,0,0-2.05,8.63Z"/></g></g></svg>