<svg xmlns="http://www.w3.org/2000/svg" viewBox="0 0 120.45 322.5"><defs><style>.cls-1{fill:#e2d4b5;}.cls-2{fill:#f4d0b8;}.cls-3{fill:#eac4b0;}.cls-4{fill:#4c0f0c;}.cls-5{fill:#3f0a0a;}.cls-6{fill:#e2aa3b;}.cls-7{fill:#bcaa91;}.cls-8{fill:#fff;}.cls-9{fill:#1d4668;}.cls-10{fill:#1c1c1c;}.cls-11{fill:#e2b79f;}.cls-12{opacity:0.5;}.cls-13{fill:#182c56;}.cls-14{fill:#d3c7ae;}.cls-15{fill:#ccbfaa;}.cls-16{fill:#c9b799;}</style></defs><title>Cefeo_1</title><g id="Layer_2" data-name="Layer 2"><g id="_2" data-name="2"><path class="cls-1" d="M55.56.79c-1.84.56-9.85,2.79-11.25,9.08-.81,3.61-.43,4.72-.82,8.64-.07.61-2.62,1.38-3.62,4.92-.59,2.13-.33,2.83.7,5.38,1.12,2.79-1.65,2.43-3.33,4.85C34.52,37.6,38,45,38.76,46.23c2.52,4,8.42,9.88,15.44,9.69,3.4-.1,26.16-4.65,29.25-6.22s7.34-5.85,7.29-6.35c0-.27-4-.46-1.72-2.32,5.56-4.47,0-8.74.34-9.11,3.61-4.39-7-7.75-6.73-10.64.23-2.64,1.23-5,.5-7.41-2.78-9.18-9-11.55-12.94-13A13.08,13.08,0,0,0,62.57.33,13,13,0,0,0,55.56.79Z"/><path class="cls-2" d="M21.9,215c2.69,2.31,9.71,10.39,12.41,18.93s2.34,18-.18,33.09-2.27,30.4-5,32.16-12.81,2.21-13.32-8S12.08,259.88,10.86,252s-4.35-29.27-1.18-35.19S19.51,212.93,21.9,215Z"/><path class="cls-2" d="M12.58,308.64a44.57,44.57,0,0,1,6.49-15.83c5-7.15,10.11-1,12.92,9.32s3.88,12.38-3.07,16.21-13,5.16-15.06,3.37S12.58,308.64,12.58,308.64Z"/><path class="cls-2" d="M66.22,215c2.68,2.31,9.7,10.39,12.41,18.93s2.34,18-.18,33.09-2.27,30.4-5,32.16-12.81,2.21-13.32-8S56.4,259.88,55.18,252,50.83,222.74,54,216.82,63.83,212.93,66.22,215Z"/><path class="cls-2" d="M56.9,308.64a44.57,44.57,0,0,1,6.49-15.83c5-7.15,10.11-1,12.91,9.32s3.89,12.38-3.06,16.21-13,5.16-15.06,3.37S56.9,308.64,56.9,308.64Z"/><path class="cls-3" d="M77,36.39s1.17,13.83,3.57,21.35c1,3.17-2.16,1.88-7,4s-12.8,5.88-13.72,1.45C59,59,58.62,56.29,57.81,51.74S77,36.39,77,36.39Z"/><path class="cls-2" d="M43.61,40.87a0,0,0,0,1,0,0c.48,2.22,1,4.3,1.24,5.77,0,.19,0,.36.08.54.45,1.68.9,3.08,1.25,4,1,2.51,5.84,3.16,7.6,3.4l.47.08a16.11,16.11,0,0,0,3.91.06c2.1-.27,12.35-3.12,17.1-7.58,3.25-3.06,4.25-9.06,4.18-15.48,0-3-.22-5.84-.38-8.21-.06-.92-.15-1.8-.28-2.64A15.36,15.36,0,0,0,69.26,8.35C66.13,7,55.43,5.19,49.6,10.4a15.2,15.2,0,0,0-3.12,4,15.4,15.4,0,0,0-2.11,5.1h0A15.48,15.48,0,0,0,44,22.78a33.55,33.55,0,0,1-1,8.88c0,.14-.07.29-.1.44C42.37,34.42,42.94,37.78,43.61,40.87Z"/><path class="cls-2" d="M107.48,64.79s11.19,25.15,12.42,39.65.76,19.06-4.84,20.86-12.78-1.17-16.65-13.06-4.56-13.23-7-23.13-5.38-21-.49-28.39C92.91,57.75,101.6,58.1,107.48,64.79Z"/><path class="cls-4" d="M107.48,64.79S116.05,84,119,98.57a39.56,39.56,0,0,1,1,7.92c-.1,3-5.24,7.72-9.43,11.08-19.94,16-14.63,14.11-19.21.3-4.67-14.1-10.43-21.5-14-30.44C73.69,78,86.06,68.08,91,60.72,92.91,57.75,101.6,58.1,107.48,64.79Z"/><path class="cls-2" d="M25.9,62.47s-15,23-18.55,37.17S3.58,118.35,8.82,121s12.81.87,18.52-10.26S33.93,98.41,37.88,89s8.64-19.91,5-27.95C41.4,57.83,32.77,56.8,25.9,62.47Z"/><path class="cls-4" d="M25.9,62.47S14.39,80.12,9.16,94c-.17.45-1.35,3.57-1.7,4.52C6.93,100,5.17,102,14.71,113.35c10.81,12.92,9.6,20.4,13.42,8.49C32.76,107.39,44.5,96.4,48.45,87s-1.93-17.9-5.58-25.94C41.4,57.83,32.77,56.8,25.9,62.47Z"/><path class="cls-5" d="M23.3,87c-.44,3.76-1.84,28.67-2.2,35.21a77,77,0,0,0-5.78-8.13c.48-5.46,1.77-17.91,2.93-21C19.7,89.25,23.81,82.68,23.3,87Z"/><path class="cls-4" d="M18.38,97.25c.24,9.09,1.81,17.07,4.62,45.93.45,4.58,36.46,5.45,47.37,5.54,11.43.09,18.34.51,21.27-8.2s11.66-50.67,12.92-61.83c1.35-11.93,2.23-16.3-3.61-19.1-1.5-.72-5.61-.39-9.72-.84-2.27-.24-4.84.55-7.6.37-14.57-.92-34.38.13-43.2.62C39,59.83,37.82,57.92,37,58s-6.51.59-6.68.7C15.91,68.35,17.94,80.35,18.38,97.25Z"/><path class="cls-3" d="M40.43,57.74a3.8,3.8,0,0,0,0,4.34c2.77,3.88,5.41,4.68,21.48,4.68,12.06,0,19-5.77,21.72-8.64C69.06,57.2,49.25,57.25,40.43,57.74Z"/><path class="cls-6" d="M32.36,66.23c2.5,4.38,8.8,10.34,24.23,10.16s28.69-2.68,32.83-5.17C94,68.43,101.67,62.6,101,59.38c-1.69-.29-14.6-1.08-17.36-1.26C80.92,61,74.1,64.78,62,64.78c-13.31,0-16.72-.49-19.27-2.59a6,6,0,0,1-2.33-4.45c-1.46.09-2.61.18-3.4.28s-5.73.11-6.71.53A14.59,14.59,0,0,0,32.36,66.23Z"/><path class="cls-5" d="M24.82,176.65s.85,5.86-.33,8-5.54,7.53-9.17,5.48S7,184.67,7,184.67l1.13-4.45Z"/><path class="cls-5" d="M63.18,172.17a27.06,27.06,0,0,0-1.39,6.77c-.32,4,5.3,13.4,7.22,13.4s13.77-7.81,14.23-10.29,2.23-14,2.23-17.54L97.8,149.85l-2.24-4Z"/><path class="cls-4" d="M1.52,270c1.2,1.66,10.12-1.41,22.32-2S20.83,252,37,257.86s31.29,10,36.87,7.88,25.56,11.83,26.73,8.52,11.22-90.51,1.58-114.6c-4-10.13-8.13-16.89-9.83-21.3.07,1.72-3.72,3.83-12.63,4.82s-29.49-3.25-38.07-2-18.21,1.45-18.67,1.26C-6.44,195.45.31,268.3,1.52,270Z"/><path class="cls-5" d="M22.16,146.26A58.9,58.9,0,0,0,49,151.75c14.94-.64,31.29-5.49,31.29-5.49l1.81-2.39s-22,2.9-34.24,1.88-25.58-3.45-25.58-3.45Z"/><path class="cls-6" d="M22,133.43l-.21,9.76s7,6.68,29.86,6.66c14.13,0,41.48-9.48,41.48-9.48s1.07-9.53,1.54-11.48c0,0-26.24,6.68-47.83,6.46C37.42,135.25,22,133.43,22,133.43Z"/><path class="cls-2" d="M20.23,166.25c-1.44,9.32-9.34-.4-10-3.37s-2.34-15.48-3.95-25.1c-1.34-7.91-2.41-21-.13-32.06.08-.42,1-.94,2.24-1.17a56.24,56.24,0,0,0,6.35,8.8,78.37,78.37,0,0,1,6,8.32C21.37,127.26,24.05,141.54,20.23,166.25Z"/><path class="cls-2" d="M10,159.47s-3.5,16.17-3.72,19.43.29,3.85,6.27,6.66c6.17,2.88,7.08.76,9.06-1.07a21.9,21.9,0,0,0,3.2-4c1.17-1.78-1.36-8.7-2.21-10.69-1.74-4.09-1.76-4.34-1.84-6.24C20.67,160.67,10,159.47,10,159.47Z"/><path class="cls-2" d="M120.41,119.16c-4.86,10.2-13.59,20-19.44,25.51C93.88,151.36,85,160.35,82.68,162.3s-10.22,5.29-9.06-4.07c.92-7.49,20.95-29.34,21.79-29.34,1.79,0,5.52-3.55,15.22-11.32,1.22-1,2.53-2.07,3.77-3.22C118.71,115,120.79,118.35,120.41,119.16Z"/><path class="cls-2" d="M76,152.65c-.14.82-7.55,8.26-11.92,17.46-1.77,3.75-2,4.49-1.3,6.42,1.6,4.47,5.31,12.29,6.79,12.51,1.14.18,7.23-4.68,10.5-8.12s4.17-13.88,4.72-20.14C85.33,155.08,76,152.65,76,152.65Z"/><g id="Rostro"><path class="cls-7" d="M59,25a1.81,1.81,0,0,1-.86-1.9c0-.25,4.22-.66,6.65-1.07,2.15-.37,4-.65,4.73-.18a27.86,27.86,0,0,1,3.22,2.63c.22.21-2.39-.55-3.35-.61a17.3,17.3,0,0,0-3.31.13C64.56,24.15,59.15,25,59,25Z"/><path class="cls-7" d="M43.69,23.73c-.43.14,0-.42.44-.86,1.22-1.16,1.2-1.27,2.23-1.23a47.07,47.07,0,0,1,6.25,1.23c.6.26.68,1.2.69,1.67s0,.55-1.15.23-4.35-1-5.35-1.15A5.27,5.27,0,0,0,43.69,23.73Z"/><path class="cls-8" d="M61.81,26.9a.56.56,0,0,0-.27.3c-.07.19.11.89,2.32,1.15a12.91,12.91,0,0,0,4.51-.2c.36-.15,1-.61.53-1.12a4.27,4.27,0,0,0-2.66-1.28,7.29,7.29,0,0,0-3.36.59A7.65,7.65,0,0,0,61.81,26.9Z"/><path class="cls-9" d="M66.06,27.31c0,.76-.82,1-1.86,1s-1.83-.28-1.84-.94-.39-.9,2-1.56C65.39,25.53,66.11,26.27,66.06,27.31Z"/><ellipse class="cls-8" cx="63.19" cy="26.9" rx="0.34" ry="0.33" transform="translate(26.16 84.74) rotate(-80.42)"/><path class="cls-10" d="M62.07,26.8a8.13,8.13,0,0,1,3.9-.93,5.1,5.1,0,0,1,3.25,1.49c.52.07.56.09-.13-.62A4.44,4.44,0,0,0,65,25.31C63.8,25.39,60.94,27.29,62.07,26.8Z"/><path class="cls-8" d="M48.4,27.79c-2,0-3-.54-3.1-1.3S46.71,24.9,47.45,25a14.93,14.93,0,0,1,3,1.18,3,3,0,0,1,1,.72A5.14,5.14,0,0,1,48.4,27.79Z"/><path class="cls-9" d="M48.65,26.08c.05.81-.38,1.29-1.3,1.3-.6,0-2.14-.38-2.05-.89A1.52,1.52,0,0,1,46.78,25C47.69,24.9,48.62,25.41,48.65,26.08Z"/><ellipse class="cls-8" cx="46.2" cy="25.88" rx="0.27" ry="0.26" transform="translate(2.95 56.45) rotate(-64.52)"/><path class="cls-10" d="M51.31,26.81a9.37,9.37,0,0,0-3.86-1.53c-1.19-.14-1.48-.22-1.91.52-.1.18-.06.29-.25.07s-.18-.22.6-1c.32-.3.85-.38,2-.16C49.84,25.13,52.33,27.4,51.31,26.81Z"/><path class="cls-11" d="M54.69,23.08a5.22,5.22,0,0,1,.25,2.42,13.69,13.69,0,0,1-.64,2.38c-.25.77-.58,1.53-.76,2.29-.11.39,0,.74-.16,1.22a5.46,5.46,0,0,1-.55,1.14,21.86,21.86,0,0,1-1.42,2l-.74,1a.89.89,0,0,0-.07,1A3.6,3.6,0,0,0,52.32,38a9.48,9.48,0,0,0,2.29.76,9.48,9.48,0,0,1-2.37-.6,3.76,3.76,0,0,1-1.9-1.58,1.16,1.16,0,0,1,.07-1.3l.73-1a22.64,22.64,0,0,0,1.37-2,5,5,0,0,0,.5-1c.1-.31.06-.79.18-1.19A23.48,23.48,0,0,1,54,27.77,7.28,7.28,0,0,0,54.69,23.08Z"/></g><g class="cls-12"><path class="cls-11" d="M52.08,27.62a2,2,0,0,1-1.49,1.13,1.12,1.12,0,0,1-.63-.1A4.52,4.52,0,0,0,52.08,27.62Z"/></g><g class="cls-12"><path class="cls-11" d="M60.24,27.7l.55.4a4.81,4.81,0,0,0,.55.37,3.55,3.55,0,0,0,1.21.52,1.55,1.55,0,0,1-.71,0,2.73,2.73,0,0,1-.66-.28A2.56,2.56,0,0,1,60.24,27.7Z"/></g><g class="cls-12"><path class="cls-11" d="M64.58,18.76A18.71,18.71,0,0,0,61,18a8.51,8.51,0,0,0-1.82,0,7.62,7.62,0,0,0-1.76.5,8.82,8.82,0,0,1-3.71.43,8.69,8.69,0,0,1-1.83-.42c-.59-.2-1.14-.48-1.73-.66a19,19,0,0,0,3.58.85,9.36,9.36,0,0,0,3.6-.47,8.26,8.26,0,0,1,1.82-.49,7.3,7.3,0,0,1,1.87,0A14.66,14.66,0,0,1,64.58,18.76Z"/></g><g class="cls-12"><path class="cls-13" d="M63.46,14.55a5.46,5.46,0,0,0-3.25-.23,19.88,19.88,0,0,0-3.19,1,8.28,8.28,0,0,1-3.36.33,6.09,6.09,0,0,1-3.1-1.24,6.86,6.86,0,0,0,3.13,1A8.72,8.72,0,0,0,56.94,15l1.59-.54a10.26,10.26,0,0,1,1.64-.38A5.16,5.16,0,0,1,63.46,14.55Z"/></g><path class="cls-1" d="M59.88,4a14.65,14.65,0,0,1,17.24,7.44c6.16,11.1,1.48,12.58,3.36,14.91s0,3.24-.24,4.83S80,33.42,83,33.73s3.68,6.7-.61,9.47-5,1.74-5,1.74,6-2.68,2.75-5.24S76,36.39,75.66,33s1.31-4.32-.42-6.8-2.77-6.39-3.38-10S65.53,10.21,57.63,11c0,0-8.69-.94-10.27,2.2-2.2,4.42-1.39,5.13-2.67,7.36S42,24.19,42.28,25.7s1.1,1.93,1.49,3.9-.44,6.85-1.48,9.21-.54,4,.83,5-2.82,1.57-4.24-.62-3-6.66-.38-9.34,4.46-3.59,3.31-6-2.48-4.44-.07-7.35,3.66-3.59,3.49-7.29S51.17,4.93,55,3.93,59.88,4,59.88,4Z"/><path class="cls-14" d="M74.21,24.34s1.34,7.3,1.41,8.13-.94,3.67-2.32,5.65-6,4-6,4-3.72,1.62-11.24,1.55-9.24-1.92-10-2.4a8.1,8.1,0,0,1-1.78-2.48s-.95-5.82-1-7.23c0,0-.73,10.56-1.16,12.41s-1.84,4.59-1.93,7.58,1,8,5.22,9.29,9.91,3.09,12.56,2.75S73,61.22,76,58.14a17.68,17.68,0,0,0,4.82-9c.47-2.62,1.07-9.39-.78-14A77.76,77.76,0,0,0,74.21,24.34Z"/><path class="cls-15" d="M71.38,48c-.71.64-3.39.75-8.55-.11s-7.22-3.31-8.49-3.24a6.06,6.06,0,0,0-3.44,1.15c-2.66,1.59-6.64,1.18-8.53.79-.37-.08-.72-.16-1-.26.14-.43.29-.83.41-1.21,1.61-.37,1.94-1.28,3-3a4.64,4.64,0,0,1,1-1.13,6.94,6.94,0,0,1,4.71-1.52c1.25.13,3.78.72,4.18.76a37.06,37.06,0,0,0,5.33,0c2.65-.24,3.82,1.06,5.17,2.35l.18.17a27.51,27.51,0,0,0,5.88,3.88C72.75,47.26,72.09,47.34,71.38,48Z"/><path class="cls-16" d="M54.63,39.2c-.41,0-2.94-.63-4.19-.76a6.6,6.6,0,0,0-5.71,2.65C43.56,43,43.3,43.9,41.06,44.17s-.66.93,1.31,1.34,5.87.8,8.53-.79a6.06,6.06,0,0,1,3.45-1.15c1.26-.07,3.31,2.38,8.48,3.24s7.84.75,8.55.11-.44,0-2-.61-2.9-3.51-4.25-4.8S62.6,38.92,60,39.16A36.9,36.9,0,0,1,54.63,39.2Z"/><path class="cls-6" d="M42.89,13.48c0,2.14.09,4.84.11,4.95s.58.08.88,0a34.47,34.47,0,0,1,7-1.42,98.23,98.23,0,0,1,13.18-.55c7.54.4,9.52,1.53,13.13,2.43a32.59,32.59,0,0,1,5.5,1.8s.28.23.46-.47c.12-.5.51-3.77.72-5.58h0S85,8.8,86.12,6.94s.94-1.86.77-1.83a5.29,5.29,0,0,0-2.13,1.54S84.69,5.49,84,5.27s-.75-.2-.77.52a11,11,0,0,0,0,1.13A3.78,3.78,0,0,0,80.77,8,7.75,7.75,0,0,0,80,11.32c0,.45,0,.77,0,.77s-.42.32-1.67.1a5.51,5.51,0,0,1-3.55-2,7,7,0,0,1-1.21-2.47.67.67,0,0,0,.5-.77.68.68,0,1,0-1.34.24.67.67,0,0,0,.36.48,8.34,8.34,0,0,1-1.71,2.16,3.74,3.74,0,0,1-3.39,1,8.55,8.55,0,0,1-1.45-.45,5.21,5.21,0,0,1-2.12-1.65,6.83,6.83,0,0,1-1.35-2.52.7.7,0,0,0-.26-1.36.69.69,0,0,0-.14,1.35,10,10,0,0,1-1,2.58,5.69,5.69,0,0,1-.84,1.18h0a3.7,3.7,0,0,1-2.66.73,5.25,5.25,0,0,1-3.12-1.41,7.33,7.33,0,0,1-1.83-2.69.67.67,0,0,0,.44-.75.68.68,0,1,0-.83.77,11.52,11.52,0,0,1-.94,2.94,4.38,4.38,0,0,1-.66.94h0c-.36.38-.65.68-2.64.93-1.26.16-1.66-.2-1.66-.2s0-.12,0-.32,0-.41,0-.67a7.29,7.29,0,0,0-.56-3.14A3.79,3.79,0,0,0,44,5.86s0-.42.06-1.13S44,4,43.27,4.17s-.82,1.34-.82,1.34a5.38,5.38,0,0,0-2-1.65c-.18,0-.33,0,.66,1.86S42.84,13.12,42.89,13.48Z"/><path class="cls-5" d="M94.69,128.88l-2.53.61s-7.71-16.3-10.1-21.66c-1.62-3.63-1.88-10.4-1.88-14.4,3.39,6.68,7.64,13.57,11.24,24.43,2,6,2.12,9.74,3.25,10.75Z"/></g></g></svg>