<svg xmlns="http://www.w3.org/2000/svg" viewBox="0 0 3422.08 207.43"><defs><style>.cls-1{fill:#eac0a9;}</style></defs><title>E2_Capa_3</title><g id="Layer_2" data-name="Layer 2"><g id="Layer_1-2" data-name="Layer 1"><path class="cls-1" d="M441.94,123.63V44.91H433.6v77.16h-16V107.59L391.56,97.36V70.77H361.89v-9H326.33V26.82h16L319.79,0H189L171.09,26.82H189v34.9l-21.14-4.91v-18H114.08V58.33L93.63,72.75V32.89H76.36v47H65.57V61.72H25.14V87.1L0,120.24v87.19H482.89V148.15ZM220.24,60.68H210.9v-24a4.67,4.67,0,0,1,9.34,0Zm27.09,0H238v-24a4.67,4.67,0,0,1,9.34,0Zm28.09,0h-9.34v-24a4.67,4.67,0,0,1,9.34,0Zm27.09,0h-9.34v-24a4.67,4.67,0,0,1,9.34,0Z"/><path class="cls-1" d="M746.41,160.78V146.36l-19.1-16.71-15.79,18.42H697.64V107.23h-6.77v40.84h-8.94V126.28H667.87v21.79h-7.64V118.14H631.62l-.33,27.2-23,22.1v40H773.35V160.78Zm-95.95-13.49H641.6V128h8.86Z"/><path class="cls-1" d="M1720.57,123.63V44.91h-8.33v77.16h-16V107.59L1670.2,97.36V70.77h-29.67v-9H1605V26.82h16L1598.42,0h-130.8l-17.89,26.82h17.89v34.9l-21.14-4.91v-18h-53.77V58.33l-20.45,14.42V32.89H1355v47h-10.79V61.72h-40.43V87.1l-25.14,33.14v87.19h482.89V148.15ZM1498.88,60.68h-9.34v-24a4.67,4.67,0,0,1,9.34,0Zm27.09,0h-9.34v-24a4.67,4.67,0,0,1,9.34,0Zm28.08,0h-9.33v-24a4.67,4.67,0,1,1,9.33,0Zm27.1,0h-9.34v-24a4.67,4.67,0,0,1,9.34,0Z"/><path class="cls-1" d="M2025.05,160.78V146.36L2006,129.65l-15.79,18.42h-13.89V107.23h-6.76v40.84h-8.94V126.28h-14.06v21.79h-7.65V118.14h-28.6l-.33,27.2-23,22.1v40H2052V160.78Zm-96-13.49h-8.85V128h8.85Z"/><path class="cls-1" d="M2782.42,142.4V122.48L2756,99.4l-21.81,25.44H2715V68.43h-9.34v56.41h-12.36V94.74h-19.42v30.1h-10.56V83.5h-39.52l-.45,37.57-31.8,30.53v55.83h331.94v-65Zm-132.56-18.64h-12.23V97.13h12.23Z"/><path class="cls-1" d="M3396.94,87.1V61.72H3356.5V79.86h-10.78v-47h-17.27V72.75L3308,58.33V38.82h-53.76v18l-21.14,4.91V26.82H3251L3233.1,0H3102.29l-22.54,26.82h16v34.9h-35.55v9h-29.67V97.36l-26.09,10.23v14.48h-15.95V44.91h-8.34v78.72l-40.95,24.52v59.28h482.89V120.24Zm-268-26.42h-9.33v-24a4.67,4.67,0,1,1,9.33,0Zm27.1,0h-9.34v-24a4.67,4.67,0,1,1,9.34,0Zm28.08,0h-9.34v-24a4.67,4.67,0,1,1,9.34,0Zm27.1,0h-9.34v-24a4.67,4.67,0,1,1,9.34,0Z"/></g></g></svg>