<svg xmlns="http://www.w3.org/2000/svg" viewBox="0 0 3296.43 317.69"><defs><style>.cls-1{fill:#916646;}</style></defs><title>E2_Capa_6</title><g id="Layer_2" data-name="Layer 2"><g id="Layer_1-2" data-name="Layer 1"><path class="cls-1" d="M2947.7,292.14l3.22-26.53a3.88,3.88,0,0,0-3.38-4.32l-17.88-2.17h0l27.89-247.43c.21-1.71-1.17-2.65-3.7-3l-67-8.72a3.1,3.1,0,0,0-3,2L2876,43l-30.79-1c-3,.47-3.75.74-4,2.6l-31.28,200h0L2792,242.38a3.89,3.89,0,0,0-4.32,3.38l-5.64,46.38H2373V242.68H2349.9l-3.86-83.5c0-3-.17-4.42-2.85-4.53l-114-.47c-2,0-3,0-2.73,3v85.5h-21.88v49.46H1782.26l-8.54-57.87a4.51,4.51,0,0,0-5.12-3.8l-16,2.36h0L1707,9.15a7.42,7.42,0,0,0-8.23-6.48l-90.83,16.26a7.42,7.42,0,0,0-6,8.58l27.14,223.54h0l-16.33,2.41a4.51,4.51,0,0,0-3.81,5.12l4.95,33.56H861.12V243.81a3.88,3.88,0,0,0-3.88-3.88H838.52L829.58,64.54c0-1.72-1.48-2.49-4-2.49L758,61.48a3.08,3.08,0,0,0-2.69,2.38l-2.87,41.56-30.69,2.7c-2.91.83-3.64,1.19-3.64,3.06V239.93H700.6a3.88,3.88,0,0,0-3.88,3.88v49.33h0c-23,2.14-46.23,3.25-69.58,3.25H415.55V242.68H392.49l-3.87-83.5c0-3-.16-4.42-2.84-4.53l-114-.47c-2,0-3,0-2.73,3v85.5H247.17v53.71H0v21.3H3296.2c.07-7.77.15-16.26.23-25.55Z"/></g></g></svg>