<svg xmlns="http://www.w3.org/2000/svg" viewBox="0 0 3397.09 161.73"><defs><style>.cls-1{fill:#caeab5;fill-rule:evenodd;}</style></defs><title>E2_Capa_2</title><g id="Layer_2" data-name="Layer 2"><g id="Layer_1-2" data-name="Layer 1"><polygon class="cls-1" points="0 61.69 463.76 0 579.7 47.74 591.21 46.12 900.5 149.43 953.4 138.09 960.98 138.09 1050.42 101.1 1212.18 155.45 1440.09 138.09 1439.73 161.73 0 161.73 0 61.69"/><polygon class="cls-1" points="2879.09 150.18 2415.32 0 2299.39 47.74 2287.88 46.12 1978.59 149.43 1925.68 138.09 1918.1 138.09 1828.66 101.1 1666.9 155.45 1439 138.09 1439.35 161.73 2879.09 161.73 2879.09 150.18"/><polygon class="cls-1" points="1957 153.18 2420.76 0 2536.7 47.74 2548.21 46.12 2857.5 149.43 2910.4 138.09 2917.98 138.09 3007.42 101.1 3169.18 155.45 3397.09 138.09 3396.73 161.73 1957 161.73 1957 153.18"/></g></g></svg>