<?xml version="1.0" encoding="utf-8"?>
<!-- Generator: Adobe Illustrator 23.1.0, SVG Export Plug-In . SVG Version: 6.00 Build 0)  -->
<svg version="1.1" id="Layer_1" xmlns="http://www.w3.org/2000/svg" xmlns:xlink="http://www.w3.org/1999/xlink" x="0px" y="0px"
	 viewBox="0 0 3010.8 151.7" style="enable-background:new 0 0 3010.8 151.7;" xml:space="preserve">
<style type="text/css">
	.st0{fill:#D8B871;}
	.st1{fill:#CCA860;}
</style>
<title>E2_Capa_3</title>
<g>
	<g id="_2">
		<path class="st0" d="M1825,136v-12.2l-16.2-14.1l-13.4,15.6h-11.7V90.7h-5.8v34.5h-7.6v-18.4h-11.9v18.4h-6.5V99.9h-24.2l-0.3,23
			l-19.5,18.7v10.1h139.6V136H1825z M1743.8,124.6h-7.5v-16.3h7.5V124.6z"/>
		<polygon class="st1" points="1808.8,109.6 1814.3,125.5 1814.4,151.7 1847.8,151.7 1847.8,136 1825,136 1825,123.8 		"/>
		<polygon class="st1" points="1725.9,124.6 1796,124.6 1793.1,127.9 1722.4,127.9 		"/>
		<path class="st0" d="M632,136v-12.2l-16.1-14.2l-13.3,15.6h-11.8V90.7h-5.7v34.5h-7.6v-18.4h-11.9v18.4h-6.5V99.9H535l-0.3,23
			l-19.5,18.7v10.1h139.6V136H632z M550.9,124.6h-7.5v-16.3h7.5V124.6z"/>
		<polygon class="st1" points="615.9,109.6 621.4,125.5 621.4,151.7 654.8,151.7 654.8,136 632,136 632,123.8 		"/>
		<polygon class="st1" points="533,124.6 603.1,124.6 600.2,127.9 529.5,127.9 		"/>
		<path class="st0" d="M373.7,104.6V38h-7v65.3h-13.5V91l-22.1-8.7V59.8H306v-7.6h-30V22.7h13.5L270.4,0H159.8l-15.1,22.7h15.1v29.5
			L141.9,48V32.8H96.5v16.5L79.2,61.5V27.8H64.6v39.7h-9.1V52.2H21.3v21.5L0,101.7v50h408.4v-26.4L373.7,104.6z M186.3,52.3h-7.9V31
			c-0.3-2.2,1.1-4.2,3.3-4.6s4.2,1.1,4.6,3.3c0.1,0.4,0.1,0.8,0,1.3V52.3z M209.2,52.3h-7.9V31c-0.3-2.2,1.1-4.2,3.3-4.6
			s4.2,1.1,4.6,3.3c0.1,0.4,0.1,0.8,0,1.3V52.3z M232.9,52.3H225V31c0-2.2,1.8-4,3.9-4c2.2,0,4,1.8,4,3.9c0,0,0,0,0,0L232.9,52.3z
			 M255.8,52.3h-7.9V31c0.3-2.2,2.4-3.7,4.6-3.3c1.7,0.3,3,1.6,3.3,3.3V52.3z"/>
		<polygon class="st1" points="144.7,22.7 289.5,22.7 284.9,17.2 148.3,17.2 		"/>
		<polygon class="st1" points="159.8,52.2 306,52.2 306,59.8 187.8,59.8 		"/>
		<polygon class="st1" points="366.7,103.2 366.7,118.4 0,151.7 366.7,151.7 408.4,151.7 408.4,125.3 373.7,104.6 373.7,38 
			366.7,38 		"/>
		<path class="st0" d="M1455.1,104.6V38h-7v65.3h-13.5V91l-22.1-8.7V59.8h-25.1v-7.6h-30.1V22.7h13.5L1351.8,0h-110.6L1226,22.7
			h15.1v29.5l-17.9-4.2V32.8h-45.5v16.5l-17.3,12.2V27.8h-14.6v39.7h-9.1V52.2h-34.2v21.5l-21.3,28v50h408.4v-26.4L1455.1,104.6z
			 M1267.6,52.3h-7.9V31c0-2.2,1.8-4,3.9-4c2.2,0,4,1.8,4,4V52.3z M1290.5,52.3h-7.9V31c0.3-2.2,2.4-3.7,4.6-3.3
			c1.7,0.3,3,1.6,3.3,3.3V52.3z M1314.2,52.3h-7.9V31c-0.3-2.2,1.1-4.2,3.3-4.6s4.2,1.1,4.6,3.3c0.1,0.4,0.1,0.8,0,1.3V52.3z
			 M1337.2,52.3h-7.9V31c0.3-2.2,2.4-3.7,4.6-3.3c1.7,0.3,3,1.6,3.3,3.3V52.3z"/>
		<polygon class="st1" points="1226,22.7 1370.8,22.7 1366.2,17.2 1229.7,17.2 		"/>
		<polygon class="st1" points="1241.1,52.2 1387.4,52.2 1387.4,59.8 1269.1,59.8 		"/>
		<polygon class="st1" points="1448,103.2 1448,118.4 1081.3,151.7 1448,151.7 1489.7,151.7 1489.7,125.3 1455.1,104.6 1455.1,38 
			1448,38 		"/>
		<path class="st0" d="M2989.6,73.7V52.2h-34.2v15.3h-9.1V27.8h-14.6v33.7l-17.3-12.2V32.8h-45.5v19.5l-17.9-0.1V22.7h15.1L2851,0
			h-110.6l-19.1,22.7h13.5v29.5h-30.1v7.7h-25.1v22.5l-22.1,8.7v12.2h-13.5V38h-7v66.6l-26.5,15.9H2353v-16.9l-22.3-19.5l-18.4,21.5
			H2296V57.9h-7.9v47.7h-10.4V80.1h-16.4v25.5h-8.9v-35h-33.4l-0.4,31.8l-26.9,25.8v23.5h819.1v-50L2989.6,73.7z M2240.9,104.7
			h-10.3V82.1h10.3L2240.9,104.7z M2762.9,52.3h-7.9V31c-0.1-2.2,1.6-4,3.7-4.1s4,1.6,4.1,3.7c0,0.1,0,0.3,0,0.4L2762.9,52.3z
			 M2785.8,52.3h-7.9V31c-0.3-2.2,1.1-4.2,3.3-4.6c2.2-0.3,4.2,1.1,4.6,3.3c0.1,0.4,0.1,0.8,0,1.3V52.3z M2809.5,52.3h-7.9V31
			c-0.3-2.2,1.1-4.2,3.3-4.6c2.2-0.3,4.2,1.1,4.6,3.3c0.1,0.4,0.1,0.8,0,1.3V52.3z M2832.5,52.3h-7.9V31c-0.3-2.2,1.1-4.2,3.3-4.6
			c2.2-0.3,4.2,1.1,4.6,3.3c0.1,0.4,0.1,0.8,0,1.3V52.3z"/>
		<polygon class="st1" points="2866.1,22.7 2721.3,22.7 2725.9,17.2 2862.5,17.2 		"/>
		<polygon class="st1" points="2920.1,52.2 2704.8,52.2 2704.8,59.8 2930.7,59.8 		"/>
		<polygon class="st1" points="2644.1,103.2 2657.6,103.2 2671.8,124.3 2671.8,151.7 2602.4,151.7 2602.4,125.3 2637.1,104.6 
			2637.1,38 2644.1,38 		"/>
		<polygon class="st1" points="2299.8,120.4 2199.8,120.4 2215.9,105 2313.1,105 		"/>
	</g>
</g>
</svg>
