<svg xmlns="http://www.w3.org/2000/svg" viewBox="0 0 2536.69 125.2"><defs><style>.cls-1{fill:#ba906e;}</style></defs><title>E2_Capa_4</title><g id="Layer_2" data-name="Layer 2"><g id="Layer_1-2" data-name="Layer 1"><path class="cls-1" d="M233.68,85.64H188.81V32.31L131.71,0,67.57,32.31V85.64H0V125.2H256.34V111.92ZM104.7,80H84.58V55a10.06,10.06,0,0,1,20.12,0Zm35.08,0H119.66V55a10.06,10.06,0,0,1,20.12,0Zm33.52,0H153.17V55a10.07,10.07,0,0,1,20.13,0Z"/><path class="cls-1" d="M922,85.64H877.15V32.31L820.05,0,755.91,32.31V85.64H688.34V125.2H944.68V111.92ZM793,80H772.92V55A10.06,10.06,0,1,1,793,55Zm35.08,0H808V55a10.06,10.06,0,0,1,20.12,0Zm33.52,0H841.51V55a10.07,10.07,0,0,1,20.13,0Z"/><path class="cls-1" d="M2515.73,91.71h-41.5V42.39l-52.81-29.88L2362.1,42.39V91.71h-62.49V125.2h237.08V116Zm-119.29-5.26h-18.61V63.33a9.31,9.31,0,1,1,18.61,0Zm32.44,0h-18.61V63.33a9.31,9.31,0,1,1,18.61,0Zm31,0h-18.61V63.33a9.31,9.31,0,1,1,18.61,0Z"/><path class="cls-1" d="M1518.05,91.71h-41.5V42.39l-52.81-29.88-59.32,29.88V91.71h-62.48V125.2H1539V116Zm-119.28-5.26h-18.62V63.33a9.31,9.31,0,1,1,18.62,0Zm32.44,0H1412.6V63.33a9.31,9.31,0,1,1,18.61,0Zm31,0h-18.62V63.33a9.31,9.31,0,1,1,18.62,0Z"/></g></g></svg>