<?xml version="1.0" encoding="utf-8"?>
<!-- Generator: Adobe Illustrator 23.1.0, SVG Export Plug-In . SVG Version: 6.00 Build 0)  -->
<svg preserveAspectRatio="none" version="1.1" id="Layer_1" xmlns="http://www.w3.org/2000/svg" xmlns:xlink="http://www.w3.org/1999/xlink" x="0px" y="0px"
	 viewBox="0 0 2300.9 104.7" style="enable-background:new 0 0 2300.9 104.7;" xml:space="preserve">
<style type="text/css">
	.st0{fill:#BC9548;}
</style>
<title>E2_Capa_4</title>
<g>
	<g id="_2">
		<path class="st0" d="M208.7,76.5h-40.1V28.9L117.7,0L60.4,28.9v47.6H19.6L0,104.7h229V100L208.7,76.5z M93.5,71.4h-18V49.1
			c0-5,4-9,9-9s9,4,9,9V71.4z M124.9,71.4h-18V49.1c0-5,4-9,9-9s9,4,9,9V71.4z M154.8,71.4h-18V49.1c0-5,4-9,9-9s9,4,9,9V71.4z"/>
		<path class="st0" d="M763.7,76.5h-40.1V28.9L672.6,0l-57.3,28.9v47.6h-40.7L555,104.7h229V100L763.7,76.5z M648.5,71.4h-18V49.1
			c0-5,4-9,9-9s9,4,9,9V71.4z M679.8,71.4h-18V49.1c0-5,4-9,9-9s9,4,9,9V71.4z M709.8,71.4h-18V49.1c0-5,4-9,9-9s9,4,9,9V71.4z"/>
		<path class="st0" d="M2282.2,81.9h-37.1v-44l-47.2-26.7l-53,26.7v44h-36.2l-19.6,22.8h211.8v-1L2282.2,81.9z M2175.6,77.2H2159
			V56.6c0-4.6,3.7-8.3,8.3-8.3s8.3,3.7,8.3,8.3L2175.6,77.2z M2204.6,77.2H2188V56.6c0-4.6,3.7-8.3,8.3-8.3s8.3,3.7,8.3,8.3
			L2204.6,77.2z M2232.3,77.2h-16.6V56.6c0-4.6,3.7-8.3,8.3-8.3s8.3,3.7,8.3,8.3V77.2z"/>
		<path class="st0" d="M1257.2,81.9h-37.1v-44L1173,11.2l-53,26.7v44h-36.2l-19.7,22.8H1276v-1L1257.2,81.9z M1150.6,77.2H1134V56.6
			c-0.2-4.6,3.4-8.4,8-8.6c4.6-0.2,8.4,3.4,8.6,8c0,0.2,0,0.4,0,0.6L1150.6,77.2z M1179.6,77.2H1163V56.6c0-4.6,3.7-8.3,8.3-8.3
			s8.3,3.7,8.3,8.3c0,0,0,0,0,0L1179.6,77.2z M1207.3,77.2h-16.6V56.6c-0.2-4.6,3.4-8.4,8-8.6c4.6-0.2,8.4,3.4,8.6,8
			c0,0.2,0,0.4,0,0.6V77.2z"/>
	</g>
</g>
</svg>
