<svg preserveAspectRatio="none" xmlns="http://www.w3.org/2000/svg" viewBox="0 0 3185.6 165.28"><defs><style>.cls-1{fill:#addd8e;}.cls-1,.cls-2{fill-rule:evenodd;}.cls-2{fill:#9ec675;}</style></defs><title>E2_Capa_2_1</title><g id="Layer_2" data-name="Layer 2"><g id="_2" data-name="2"><polygon class="cls-1" points="3007.42 102.71 2867.15 147.92 2516.91 34.51 2420.49 0 2263.71 53.48 1973.41 149.37 1828.66 102.71 1666.9 157.06 1440.08 139.78 1440.09 139.7 1439.54 139.74 1439 139.7 1439 139.78 1212.18 157.06 1050.42 102.71 900.5 151.03 463.76 1.61 0 63.3 0 165.28 3185.6 165.28 3007.42 102.71"/><polygon class="cls-2" points="463.76 1.61 356.13 165.28 0 165.28 0 63.3 463.76 1.61"/><polygon class="cls-2" points="1050.42 102.71 856.23 165.28 1024.06 165.28 1050.42 102.71"/><polygon class="cls-2" points="2420.49 0 2319.03 165.28 1927.89 165.28 2420.49 0"/><polygon class="cls-2" points="3007.31 102.71 2812.45 165.28 2972.79 165.28 3007.31 102.71"/><polygon class="cls-2" points="1828.78 102.71 1643.09 165.28 1794.26 165.28 1828.78 102.71"/><polygon class="cls-2" points="1439 139.78 1429.85 165.28 1108.15 165.28 1439 139.78"/></g></g></svg>