<svg xmlns="http://www.w3.org/2000/svg" viewBox="0 0 2648.68 289.18"><defs><style>.cls-1{fill:#75552a;}.cls-2{fill:#63431c;}</style></defs><title>E2_Capa_6</title><g id="Layer_2" data-name="Layer 2"><g id="_2" data-name="2"><path class="cls-1" d="M180.34,239.38v49.8H0v-49.8H23.44V147.8c-.29-3.21.78-3.21,2.92-3.21l63.81.26,58.29.24c2.87.12,3,1.64,3,4.86l4.15,89.43Z"/><path class="cls-2" d="M90.17,144.85V289.18H0v-49.8H23.44V147.8c-.29-3.21.78-3.21,2.92-3.21Z"/><path class="cls-1" d="M1472.93,289.18h-168.4l-4.51-30.6a4.51,4.51,0,0,1,3.81-5.12l16.33-2.41L1293,27.51a7.42,7.42,0,0,1,6-8.58l50.47-9,40.36-7.22a7.42,7.42,0,0,1,8.23,6.47l45.61,223.68,16-2.36a4.51,4.51,0,0,1,5.12,3.8Z"/><path class="cls-2" d="M1395,289.18h-90.5l-4.51-30.6a4.51,4.51,0,0,1,3.81-5.12l16.33-2.41L1293,27.51a7.42,7.42,0,0,1,6-8.58l50.47-9Z"/><path class="cls-1" d="M2057.35,239.38v49.8H1877v-49.8h23.43V147.8c-.29-3.21.78-3.21,2.92-3.21l69,.28,53.12.22c2.87.12,3,1.64,3,4.86l4.14,89.43Z"/><path class="cls-2" d="M1972.33,144.87V289.18H1877v-49.8h23.43V147.8c-.29-3.21.78-3.21,2.92-3.21Z"/><path class="cls-1" d="M689.46,243.82v45.36H525.06V243.82a3.88,3.88,0,0,1,3.88-3.88h17.48V111.18c0-1.87.73-2.23,3.64-3.06l30.69-2.69,2.87-41.56a3.07,3.07,0,0,1,2.69-2.38l21,.18,46.63.39c2.55,0,4,.76,4,2.49l8.94,175.39h18.72A3.88,3.88,0,0,1,689.46,243.82Z"/><path class="cls-2" d="M607.26,61.67V289.18h-82.2V243.82a3.88,3.88,0,0,1,3.88-3.88h17.48V111.18c0-1.87.73-2.23,3.64-3.06l30.69-2.69,2.87-41.56a3.07,3.07,0,0,1,2.69-2.38Z"/><path class="cls-1" d="M2648.66,11.69l-27.89,247.43,17.88,2.17a3.88,3.88,0,0,1,3.38,4.32l-2.86,23.57H2473.55l5.28-43.42a3.89,3.89,0,0,1,4.32-3.38l17.92,2.18,31.28-200c.23-1.86,1-2.13,4-2.6l30.79,1L2575,2.05a3.1,3.1,0,0,1,3-2l28.9,3.76,38.11,5C2647.49,9,2648.87,10,2648.66,11.69Z"/><path class="cls-2" d="M2606.85,3.77l-55.51,285.41h-77.79l5.28-43.42a3.89,3.89,0,0,1,4.32-3.38l17.92,2.18,31.28-200c.23-1.86,1-2.13,4-2.6l30.79,1L2575,2.05a3.1,3.1,0,0,1,3-2Z"/></g></g></svg>