<svg preserveAspectRatio="none" xmlns="http://www.w3.org/2000/svg" xmlns:xlink="http://www.w3.org/1999/xlink" viewBox="0 0 1432.97 706.55"><defs><style>.cls-1{fill:none;}.cls-2{clip-path:url(#clip-path);}.cls-3{fill:#6dcaff;}.cls-4{fill:#475293;}</style><clipPath id="clip-path" transform="translate(-4.55)"><rect class="cls-1" y="1.09" width="1440" height="684"/></clipPath></defs><title>E1_Estrellas</title><g id="Layer_2" data-name="Layer 2"><g id="Layer_1-2" data-name="Layer 1"><g class="cls-2"><path class="cls-3" d="M513.29,43.07a1.73,1.73,0,0,0,0-3.46A1.73,1.73,0,0,0,513.29,43.07Z" transform="translate(-4.55)"/><path class="cls-3" d="M770,186.84a1.73,1.73,0,0,0,0-3.45A1.73,1.73,0,0,0,770,186.84Z" transform="translate(-4.55)"/><path class="cls-3" d="M1142.68,59.21a1.73,1.73,0,0,0,0-3.46A1.73,1.73,0,0,0,1142.68,59.21Z" transform="translate(-4.55)"/><path class="cls-3" d="M309.37,287.34a1.73,1.73,0,0,0,0-3.46A1.73,1.73,0,0,0,309.37,287.34Z" transform="translate(-4.55)"/><path class="cls-3" d="M1354.67,293.94a1.73,1.73,0,0,0,0-3.45A1.73,1.73,0,0,0,1354.67,293.94Z" transform="translate(-4.55)"/><path class="cls-3" d="M985,454.59a1.73,1.73,0,0,0,0-3.46A1.73,1.73,0,0,0,985,454.59Z" transform="translate(-4.55)"/><path class="cls-3" d="M919,569a1.73,1.73,0,0,0,0-3.45A1.73,1.73,0,0,0,919,569Z" transform="translate(-4.55)"/><path class="cls-3" d="M456.81,538.22a1.73,1.73,0,0,0,0-3.46A1.73,1.73,0,0,0,456.81,538.22Z" transform="translate(-4.55)"/><path class="cls-3" d="M155.32,364.36a1.73,1.73,0,0,0,0-3.45A1.73,1.73,0,0,0,155.32,364.36Z" transform="translate(-4.55)"/><path class="cls-3" d="M47.49,419.38a1.73,1.73,0,0,0,0-3.46A1.73,1.73,0,0,0,47.49,419.38Z" transform="translate(-4.55)"/><path class="cls-3" d="M124.51,551.42a1.73,1.73,0,0,0,0-3.46A1.73,1.73,0,0,0,124.51,551.42Z" transform="translate(-4.55)"/><path class="cls-3" d="M432.6,536a1.73,1.73,0,0,0,0-3.45A1.73,1.73,0,0,0,432.6,536Z" transform="translate(-4.55)"/><path class="cls-3" d="M397.39,391.26a0,0,0,0,0,0,0A0,0,0,0,0,397.39,391.26Z" transform="translate(-4.55)"/><path class="cls-3" d="M586.65,476.6a1.73,1.73,0,0,0,0-3.46A1.73,1.73,0,0,0,586.65,476.6Z" transform="translate(-4.55)"/><path class="cls-3" d="M1088.14,535.1a1.73,1.73,0,0,0,0-3.46A1.73,1.73,0,0,0,1088.14,535.1Z" transform="translate(-4.55)"/><path class="cls-3" d="M723.09,423.78a1.73,1.73,0,0,0,0-3.46A1.73,1.73,0,0,0,723.09,423.78Z" transform="translate(-4.55)"/><path class="cls-3" d="M560.24,98.09a1.73,1.73,0,0,0,0-3.46A1.73,1.73,0,0,0,560.24,98.09Z" transform="translate(-4.55)"/><path class="cls-3" d="M1356.87,12.26a1.73,1.73,0,0,0,0-3.46A1.73,1.73,0,0,0,1356.87,12.26Z" transform="translate(-4.55)"/><path class="cls-3" d="M1257.85,144.3a1.73,1.73,0,0,0,0-3.46A1.73,1.73,0,0,0,1257.85,144.3Z" transform="translate(-4.55)"/><path class="cls-3" d="M1042.18,122.29a1.73,1.73,0,0,0,0-3.45A1.73,1.73,0,0,0,1042.18,122.29Z" transform="translate(-4.55)"/><path class="cls-3" d="M1385.48,522.81a1.73,1.73,0,0,0,0-3.46A1.73,1.73,0,0,0,1385.48,522.81Z" transform="translate(-4.55)"/><path class="cls-3" d="M1099.4,333.55a1.73,1.73,0,0,0,0-3.45A1.73,1.73,0,0,0,1099.4,333.55Z" transform="translate(-4.55)"/><path class="cls-3" d="M905.74,216.92a1.73,1.73,0,0,0,0-3.46A1.73,1.73,0,0,0,905.74,216.92Z" transform="translate(-4.55)"/><path class="cls-3" d="M593.25,252.13a1.73,1.73,0,0,0,0-3.46A1.73,1.73,0,0,0,593.25,252.13Z" transform="translate(-4.55)"/><path class="cls-3" d="M461.21,146.5a1.73,1.73,0,0,0,0-3.46A1.73,1.73,0,0,0,461.21,146.5Z" transform="translate(-4.55)"/><path class="cls-3" d="M531.63,324.75a1.73,1.73,0,0,0,0-3.46A1.73,1.73,0,0,0,531.63,324.75Z" transform="translate(-4.55)"/><path class="cls-3" d="M540.43,227.92a1.73,1.73,0,0,0,0-3.45A1.73,1.73,0,0,0,540.43,227.92Z" transform="translate(-4.55)"/><path class="cls-3" d="M375.38,474.4a1.73,1.73,0,0,0,0-3.46A1.73,1.73,0,0,0,375.38,474.4Z" transform="translate(-4.55)"/><path class="cls-3" d="M472.21,463.39a1.73,1.73,0,0,0,0-3.45A1.73,1.73,0,0,0,472.21,463.39Z" transform="translate(-4.55)"/><path class="cls-3" d="M296.16,183.91a1.73,1.73,0,0,0,0-3.46A1.73,1.73,0,0,0,296.16,183.91Z" transform="translate(-4.55)"/><path class="cls-3" d="M183.93,181.71a1.73,1.73,0,0,0,0-3.46A1.73,1.73,0,0,0,183.93,181.71Z" transform="translate(-4.55)"/><path class="cls-3" d="M716.49,51.87a1.73,1.73,0,0,0,0-3.46A1.73,1.73,0,0,0,716.49,51.87Z" transform="translate(-4.55)"/><path class="cls-3" d="M818.82,86a1.73,1.73,0,0,0,0-3.46A1.73,1.73,0,0,0,818.82,86Z" transform="translate(-4.55)"/><path class="cls-3" d="M799,114.59a1.73,1.73,0,0,0,0-3.46A1.73,1.73,0,0,0,799,114.59Z" transform="translate(-4.55)"/><path class="cls-3" d="M807.81,84.88a1.73,1.73,0,0,0,0-3.46A1.73,1.73,0,0,0,807.81,84.88Z" transform="translate(-4.55)"/><path class="cls-3" d="M766,112.39a1.73,1.73,0,0,0,0-3.46A1.73,1.73,0,0,0,766,112.39Z" transform="translate(-4.55)"/><path class="cls-3" d="M723.09,154.2a1.73,1.73,0,0,0,0-3.46A1.73,1.73,0,0,0,723.09,154.2Z" transform="translate(-4.55)"/><path class="cls-3" d="M719.79,104.69a1.73,1.73,0,0,0,0-3.46A1.73,1.73,0,0,0,719.79,104.69Z" transform="translate(-4.55)"/><path class="cls-3" d="M768.2,138.8a1.73,1.73,0,0,0,0-3.46A1.73,1.73,0,0,0,768.2,138.8Z" transform="translate(-4.55)"/><path class="cls-3" d="M746.19,159.7a1.73,1.73,0,0,0,0-3.45A1.73,1.73,0,0,0,746.19,159.7Z" transform="translate(-4.55)"/><path class="cls-3" d="M738.49,137.7a1.73,1.73,0,0,0,0-3.46A1.73,1.73,0,0,0,738.49,137.7Z" transform="translate(-4.55)"/><path class="cls-3" d="M701.08,194.91a1.73,1.73,0,0,0,0-3.45A1.73,1.73,0,0,0,701.08,194.91Z" transform="translate(-4.55)"/><path class="cls-3" d="M640.56,238.93a1.73,1.73,0,0,0,0-3.46A1.73,1.73,0,0,0,640.56,238.93Z" transform="translate(-4.55)"/><path class="cls-3" d="M522.83,309.35a1.73,1.73,0,0,0,0-3.46A1.73,1.73,0,0,0,522.83,309.35Z" transform="translate(-4.55)"/><path class="cls-3" d="M542.63,275.24a1.73,1.73,0,0,0,0-3.46A1.73,1.73,0,0,0,542.63,275.24Z" transform="translate(-4.55)"/><path class="cls-3" d="M503,293.94a1.73,1.73,0,0,0,0-3.45A1.73,1.73,0,0,0,503,293.94Z" transform="translate(-4.55)"/><path class="cls-3" d="M482.12,324.75a1.73,1.73,0,0,0,0-3.46A1.73,1.73,0,0,0,482.12,324.75Z" transform="translate(-4.55)"/><path class="cls-3" d="M442.5,331.35a1.73,1.73,0,0,0,0-3.45A1.73,1.73,0,0,0,442.5,331.35Z" transform="translate(-4.55)"/><path class="cls-3" d="M432.6,352.26a1.73,1.73,0,0,0,0-3.46A1.73,1.73,0,0,0,432.6,352.26Z" transform="translate(-4.55)"/><path class="cls-3" d="M443.6,364.36a1.73,1.73,0,0,0,0-3.45A1.73,1.73,0,0,0,443.6,364.36Z" transform="translate(-4.55)"/><path class="cls-3" d="M456.81,351.16a1.73,1.73,0,0,0,0-3.46A1.73,1.73,0,0,0,456.81,351.16Z" transform="translate(-4.55)"/><path class="cls-3" d="M446.91,345.66a1.73,1.73,0,0,0,0-3.46A1.73,1.73,0,0,0,446.91,345.66Z" transform="translate(-4.55)"/><path class="cls-3" d="M412.8,384.17a1.73,1.73,0,0,0,0-3.46A1.73,1.73,0,0,0,412.8,384.17Z" transform="translate(-4.55)"/><path class="cls-3" d="M373.18,385.27a1.73,1.73,0,0,0,0-3.46A1.73,1.73,0,0,0,373.18,385.27Z" transform="translate(-4.55)"/><path class="cls-3" d="M353.38,417.18a1.73,1.73,0,0,0,0-3.46A1.73,1.73,0,0,0,353.38,417.18Z" transform="translate(-4.55)"/><path class="cls-3" d="M285.16,448a1.73,1.73,0,0,0,0-3.46A1.73,1.73,0,0,0,285.16,448Z" transform="translate(-4.55)"/><path class="cls-3" d="M232.34,517.31a1.73,1.73,0,0,0,0-3.46A1.73,1.73,0,0,0,232.34,517.31Z" transform="translate(-4.55)"/><path class="cls-3" d="M219.14,496.4a1.73,1.73,0,0,0,0-3.45A1.73,1.73,0,0,0,219.14,496.4Z" transform="translate(-4.55)"/><path class="cls-3" d="M185,515.11a1.73,1.73,0,0,0,0-3.46A1.73,1.73,0,0,0,185,515.11Z" transform="translate(-4.55)"/><path class="cls-3" d="M199.33,560.22a1.73,1.73,0,0,0,0-3.46A1.73,1.73,0,0,0,199.33,560.22Z" transform="translate(-4.55)"/><path class="cls-3" d="M306.06,500.8a1.73,1.73,0,0,0,0-3.45A1.73,1.73,0,0,0,306.06,500.8Z" transform="translate(-4.55)"/><path class="cls-3" d="M295.06,397.37a1.73,1.73,0,0,0,0-3.45A1.73,1.73,0,0,0,295.06,397.37Z" transform="translate(-4.55)"/><path class="cls-3" d="M257.65,431.48a1.73,1.73,0,0,0,0-3.45A1.73,1.73,0,0,0,257.65,431.48Z" transform="translate(-4.55)"/><path class="cls-3" d="M323.67,413.88a1.73,1.73,0,0,0,0-3.46A1.73,1.73,0,0,0,323.67,413.88Z" transform="translate(-4.55)"/><path class="cls-3" d="M894.74,3.46a1.73,1.73,0,0,0,0-3.46A1.73,1.73,0,0,0,894.74,3.46Z" transform="translate(-4.55)"/><path class="cls-3" d="M849.62,12.26a1.73,1.73,0,0,0,0-3.46A1.73,1.73,0,0,0,849.62,12.26Z" transform="translate(-4.55)"/><path class="cls-3" d="M882.63,65.08a1.73,1.73,0,0,0,0-3.46A1.73,1.73,0,0,0,882.63,65.08Z" transform="translate(-4.55)"/><path class="cls-3" d="M926.65,23.26a1.73,1.73,0,0,0,0-3.45A1.73,1.73,0,0,0,926.65,23.26Z" transform="translate(-4.55)"/><path class="cls-3" d="M884.84,28.76a1.73,1.73,0,0,0,0-3.45A1.73,1.73,0,0,0,884.84,28.76Z" transform="translate(-4.55)"/><path class="cls-3" d="M859.53,29.87a1.73,1.73,0,0,0,0-3.46A1.73,1.73,0,0,0,859.53,29.87Z" transform="translate(-4.55)"/><path class="cls-3" d="M980.56,14.46a1.73,1.73,0,0,0,0-3.46A1.73,1.73,0,0,0,980.56,14.46Z" transform="translate(-4.55)"/><path class="cls-3" d="M963,54.07a1.73,1.73,0,0,0,0-3.45A1.73,1.73,0,0,0,963,54.07Z" transform="translate(-4.55)"/><path class="cls-3" d="M922.25,54.07a1.73,1.73,0,0,0,0-3.45A1.73,1.73,0,0,0,922.25,54.07Z" transform="translate(-4.55)"/><path class="cls-3" d="M907.94,105.79a1.73,1.73,0,0,0,0-3.46A1.73,1.73,0,0,0,907.94,105.79Z" transform="translate(-4.55)"/><path class="cls-3" d="M854,109.09a1.73,1.73,0,0,0,0-3.46A1.73,1.73,0,0,0,854,109.09Z" transform="translate(-4.55)"/><path class="cls-3" d="M846.32,89.28a1.73,1.73,0,0,0,0-3.45A1.73,1.73,0,0,0,846.32,89.28Z" transform="translate(-4.55)"/><path class="cls-3" d="M748.39,7.86a1.73,1.73,0,0,0,0-3.46A1.73,1.73,0,0,0,748.39,7.86Z" transform="translate(-4.55)"/><path class="cls-3" d="M706.58,9a1.73,1.73,0,0,0,0-3.46A1.73,1.73,0,0,0,706.58,9Z" transform="translate(-4.55)"/><path class="cls-3" d="M665.87,17.76a1.73,1.73,0,0,0,0-3.46A1.73,1.73,0,0,0,665.87,17.76Z" transform="translate(-4.55)"/><path class="cls-3" d="M682.38,82.07s0,0,0,0A0,0,0,1,0,682.38,82.07Z" transform="translate(-4.55)"/><path class="cls-3" d="M696.68,101.39a1.73,1.73,0,0,0,0-3.46A1.73,1.73,0,0,0,696.68,101.39Z" transform="translate(-4.55)"/><path class="cls-3" d="M670.27,124.49a1.73,1.73,0,0,0,0-3.45A1.73,1.73,0,0,0,670.27,124.49Z" transform="translate(-4.55)"/><path class="cls-3" d="M637.26,101.39a1.73,1.73,0,0,0,0-3.46A1.73,1.73,0,0,0,637.26,101.39Z" transform="translate(-4.55)"/><path class="cls-3" d="M664.77,62.87a1.73,1.73,0,0,0,0-3.45A1.73,1.73,0,0,0,664.77,62.87Z" transform="translate(-4.55)"/><path class="cls-3" d="M768.2,183.91a1.73,1.73,0,0,0,0-3.46A1.73,1.73,0,0,0,768.2,183.91Z" transform="translate(-4.55)"/><path class="cls-3" d="M730.79,179.51a1.73,1.73,0,0,0,0-3.46A1.73,1.73,0,0,0,730.79,179.51Z" transform="translate(-4.55)"/><path class="cls-3" d="M804.51,203.72a1.73,1.73,0,0,0,0-3.46A1.73,1.73,0,0,0,804.51,203.72Z" transform="translate(-4.55)"/><path class="cls-3" d="M821,143.2a1.73,1.73,0,0,0,0-3.46A1.73,1.73,0,0,0,821,143.2Z" transform="translate(-4.55)"/><path class="cls-3" d="M931.05,152a1.73,1.73,0,0,0,0-3.46A1.73,1.73,0,0,0,931.05,152Z" transform="translate(-4.55)"/><path class="cls-3" d="M795.71,235.63a1.73,1.73,0,0,0,0-3.46A1.73,1.73,0,0,0,795.71,235.63Z" transform="translate(-4.55)"/><path class="cls-3" d="M737.39,258.73a1.73,1.73,0,0,0,0-3.45A1.73,1.73,0,0,0,737.39,258.73Z" transform="translate(-4.55)"/><path class="cls-3" d="M742.89,300.54a1.73,1.73,0,0,0,0-3.45A1.73,1.73,0,0,0,742.89,300.54Z" transform="translate(-4.55)"/><path class="cls-3" d="M788,301.65a1.73,1.73,0,0,0,0-3.46A1.73,1.73,0,0,0,788,301.65Z" transform="translate(-4.55)"/><path class="cls-3" d="M861.73,189.41a1.73,1.73,0,0,0,0-3.46A1.73,1.73,0,0,0,861.73,189.41Z" transform="translate(-4.55)"/><path class="cls-3" d="M1428.76,12.26a1.73,1.73,0,0,0,0-3.46A1.73,1.73,0,0,0,1428.76,12.26Z" transform="translate(-4.55)"/><path class="cls-3" d="M1374.48,138.43a1.73,1.73,0,0,0,0-3.46A1.73,1.73,0,0,0,1374.48,138.43Z" transform="translate(-4.55)"/><path class="cls-3" d="M1317.26,88.55a1.73,1.73,0,0,0,0-3.46A1.73,1.73,0,0,0,1317.26,88.55Z" transform="translate(-4.55)"/><path class="cls-3" d="M1380.35,163.37a1.73,1.73,0,0,0,0-3.46A1.73,1.73,0,0,0,1380.35,163.37Z" transform="translate(-4.55)"/><path class="cls-3" d="M1395,138.43a1.73,1.73,0,0,0,0-3.46A1.73,1.73,0,0,0,1395,138.43Z" transform="translate(-4.55)"/><path class="cls-3" d="M1422.89,166.31a1.73,1.73,0,0,0,0-3.46A1.73,1.73,0,0,0,1422.89,166.31Z" transform="translate(-4.55)"/><path class="cls-3" d="M1418.49,379a1.73,1.73,0,0,0,0-3.45A1.73,1.73,0,0,0,1418.49,379Z" transform="translate(-4.55)"/><path class="cls-3" d="M1302.59,313a1.73,1.73,0,0,0,0-3.46A1.73,1.73,0,0,0,1302.59,313Z" transform="translate(-4.55)"/><path class="cls-3" d="M1189.63,345.29a1.73,1.73,0,0,0,0-3.46A1.73,1.73,0,0,0,1189.63,345.29Z" transform="translate(-4.55)"/><path class="cls-3" d="M1205.76,402.51a1.73,1.73,0,0,0,0-3.46A1.73,1.73,0,0,0,1205.76,402.51Z" transform="translate(-4.55)"/><path class="cls-3" d="M1166.15,423.05a1.73,1.73,0,0,0,0-3.46A1.73,1.73,0,0,0,1166.15,423.05Z" transform="translate(-4.55)"/><path class="cls-3" d="M1188.16,471.46a1.73,1.73,0,0,0,0-3.45A1.73,1.73,0,0,0,1188.16,471.46Z" transform="translate(-4.55)"/><path class="cls-3" d="M1185.22,499.34a1.73,1.73,0,0,0,0-3.46A1.73,1.73,0,0,0,1185.22,499.34Z" transform="translate(-4.55)"/><path class="cls-3" d="M1302.59,393.71a1.73,1.73,0,0,0,0-3.46A1.73,1.73,0,0,0,1302.59,393.71Z" transform="translate(-4.55)"/><path class="cls-3" d="M1254.18,261.67a1.73,1.73,0,0,0,0-3.46A1.73,1.73,0,0,0,1254.18,261.67Z" transform="translate(-4.55)"/><path class="cls-3" d="M1166.15,181a1.73,1.73,0,0,0,0-3.46A1.73,1.73,0,0,0,1166.15,181Z" transform="translate(-4.55)"/><path class="cls-3" d="M1106,233.79a1.73,1.73,0,0,0,0-3.46A1.73,1.73,0,0,0,1106,233.79Z" transform="translate(-4.55)"/><path class="cls-3" d="M1141.21,242.59a1.73,1.73,0,0,0,0-3.45A1.73,1.73,0,0,0,1141.21,242.59Z" transform="translate(-4.55)"/><path class="cls-3" d="M1009.17,326.22a1.73,1.73,0,0,0,0-3.46A1.73,1.73,0,0,0,1009.17,326.22Z" transform="translate(-4.55)"/><path class="cls-3" d="M954.89,313a1.73,1.73,0,0,0,0-3.46A1.73,1.73,0,0,0,954.89,313Z" transform="translate(-4.55)"/><path class="cls-3" d="M852.19,326.22a1.73,1.73,0,0,0,0-3.46A1.73,1.73,0,0,0,852.19,326.22Z" transform="translate(-4.55)"/><path class="cls-3" d="M877.13,383.44a1.73,1.73,0,0,0,0-3.46A1.73,1.73,0,0,0,877.13,383.44Z" transform="translate(-4.55)"/><path class="cls-3" d="M814.05,364.36a1.73,1.73,0,0,0,0-3.45A1.73,1.73,0,0,0,814.05,364.36Z" transform="translate(-4.55)"/><path class="cls-3" d="M693.75,321.82a1.73,1.73,0,0,0,0-3.46A1.73,1.73,0,0,0,693.75,321.82Z" transform="translate(-4.55)"/><path class="cls-3" d="M799.38,424.52a1.73,1.73,0,0,0,0-3.46A1.73,1.73,0,0,0,799.38,424.52Z" transform="translate(-4.55)"/><path class="cls-3" d="M856.59,436.25a1.73,1.73,0,0,0,0-3.46A1.73,1.73,0,0,0,856.59,436.25Z" transform="translate(-4.55)"/><path class="cls-3" d="M962.22,436.25a1.73,1.73,0,0,0,0-3.46A1.73,1.73,0,0,0,962.22,436.25Z" transform="translate(-4.55)"/><path class="cls-3" d="M877.13,515.48a1.73,1.73,0,0,0,0-3.46A1.73,1.73,0,0,0,877.13,515.48Z" transform="translate(-4.55)"/><path class="cls-3" d="M988.63,563.89a1.73,1.73,0,0,0,0-3.46A1.73,1.73,0,0,0,988.63,563.89Z" transform="translate(-4.55)"/><path class="cls-3" d="M1091.33,484.67a1.73,1.73,0,0,0,0-3.46A1.73,1.73,0,0,0,1091.33,484.67Z" transform="translate(-4.55)"/><path class="cls-3" d="M1070.79,402.51a1.73,1.73,0,0,0,0-3.46A1.73,1.73,0,0,0,1070.79,402.51Z" transform="translate(-4.55)"/><path class="cls-3" d="M230.14,293.94a1.73,1.73,0,0,0,0-3.45A1.73,1.73,0,0,0,230.14,293.94Z" transform="translate(-4.55)"/><path class="cls-3" d="M250,340.16a1.73,1.73,0,0,0,0-3.46A1.73,1.73,0,0,0,250,340.16Z" transform="translate(-4.55)"/><path class="cls-3" d="M150.92,276.34a1.73,1.73,0,0,0,0-3.46A1.73,1.73,0,0,0,150.92,276.34Z" transform="translate(-4.55)"/><path class="cls-3" d="M192.73,379.77a1.73,1.73,0,0,0,0-3.46A1.73,1.73,0,0,0,192.73,379.77Z" transform="translate(-4.55)"/><path class="cls-3" d="M344.58,265.33a1.73,1.73,0,0,0,0-3.45A1.73,1.73,0,0,0,344.58,265.33Z" transform="translate(-4.55)"/><path class="cls-3" d="M408.39,188.31a1.73,1.73,0,0,0,0-3.46A1.73,1.73,0,0,0,408.39,188.31Z" transform="translate(-4.55)"/><path class="cls-3" d="M36.48,153.1a1.73,1.73,0,0,0,0-3.46A1.73,1.73,0,0,0,36.48,153.1Z" transform="translate(-4.55)"/><path class="cls-3" d="M371,56.27a1.73,1.73,0,0,0,0-3.45A1.73,1.73,0,0,0,371,56.27Z" transform="translate(-4.55)"/><path class="cls-3" d="M153.12,60.67a1.73,1.73,0,0,0,0-3.45A1.73,1.73,0,0,0,153.12,60.67Z" transform="translate(-4.55)"/><path class="cls-3" d="M199.33,84.88a1.73,1.73,0,0,0,0-3.46A1.73,1.73,0,0,0,199.33,84.88Z" transform="translate(-4.55)"/><path class="cls-3" d="M1422.89,62.87a1.73,1.73,0,0,0,0-3.45A1.73,1.73,0,0,0,1422.89,62.87Z" transform="translate(-4.55)"/><path class="cls-4" d="M1320.4,83.77a1.73,1.73,0,0,0,0-3.45A1.73,1.73,0,0,0,1320.4,83.77Z" transform="translate(-4.55)"/><path class="cls-4" d="M715.84,90.46a1.73,1.73,0,0,0,0-3.46A1.73,1.73,0,0,0,715.84,90.46Z" transform="translate(-4.55)"/><path class="cls-4" d="M415.07,75.87a1.73,1.73,0,0,0,0-3.45A1.73,1.73,0,0,0,415.07,75.87Z" transform="translate(-4.55)"/><path class="cls-4" d="M836.14,172.48a1.73,1.73,0,0,0,0-3.45A1.73,1.73,0,0,0,836.14,172.48Z" transform="translate(-4.55)"/><path class="cls-4" d="M1142.37,305.55a1.73,1.73,0,0,0,0-3.46A1.73,1.73,0,0,0,1142.37,305.55Z" transform="translate(-4.55)"/><path class="cls-4" d="M1197.06,400.33a1.73,1.73,0,0,0,0-3.45A1.73,1.73,0,0,0,1197.06,400.33Z" transform="translate(-4.55)"/><path class="cls-4" d="M1435.85,393a1.73,1.73,0,0,0,0-3.45A1.73,1.73,0,0,0,1435.85,393Z" transform="translate(-4.55)"/><path class="cls-4" d="M1359.29,280a1.73,1.73,0,0,0,0-3.46A1.73,1.73,0,0,0,1359.29,280Z" transform="translate(-4.55)"/><path class="cls-4" d="M916.34,48.53a1.73,1.73,0,0,0,0-3.46A1.73,1.73,0,0,0,916.34,48.53Z" transform="translate(-4.55)"/><path class="cls-4" d="M1095,30.3a1.73,1.73,0,0,0,0-3.45A1.73,1.73,0,0,0,1095,30.3Z" transform="translate(-4.55)"/><path class="cls-4" d="M557.25,41.24a1.73,1.73,0,0,0,0-3.46A1.73,1.73,0,0,0,557.25,41.24Z" transform="translate(-4.55)"/><path class="cls-4" d="M427.83,152.43a1.73,1.73,0,0,0,0-3.46A1.73,1.73,0,0,0,427.83,152.43Z" transform="translate(-4.55)"/><path class="cls-4" d="M311.17,110.51a1.73,1.73,0,0,0,0-3.46A1.73,1.73,0,0,0,311.17,110.51Z" transform="translate(-4.55)"/><path class="cls-4" d="M539,174.31a1.73,1.73,0,0,0,0-3.46A1.73,1.73,0,0,0,539,174.31Z" transform="translate(-4.55)"/><path class="cls-4" d="M704.9,292.79a1.73,1.73,0,0,0,0-3.46A1.73,1.73,0,0,0,704.9,292.79Z" transform="translate(-4.55)"/><path class="cls-4" d="M695.78,362.06a1.73,1.73,0,0,0,0-3.46A1.73,1.73,0,0,0,695.78,362.06Z" transform="translate(-4.55)"/><path class="cls-4" d="M581,323.88s0,0,0,0S580.93,323.88,581,323.88Z" transform="translate(-4.55)"/><path class="cls-4" d="M810.62,362.06a1.73,1.73,0,0,0,0-3.46A1.73,1.73,0,0,0,810.62,362.06Z" transform="translate(-4.55)"/><path class="cls-4" d="M1047.59,205.29a1.73,1.73,0,0,0,0-3.45A1.73,1.73,0,0,0,1047.59,205.29Z" transform="translate(-4.55)"/><path class="cls-4" d="M1208,108.68a1.73,1.73,0,0,0,0-3.45A1.73,1.73,0,0,0,1208,108.68Z" transform="translate(-4.55)"/><path class="cls-4" d="M174.12,64.08a1.73,1.73,0,0,0,0-3.46A1.73,1.73,0,0,0,174.12,64.08Z" transform="translate(-4.55)"/><path class="cls-4" d="M294.42,146.1a1.73,1.73,0,0,0,0-3.45A1.73,1.73,0,0,0,294.42,146.1Z" transform="translate(-4.55)"/><path class="cls-4" d="M600.65,279.17a1.73,1.73,0,0,0,0-3.46A1.73,1.73,0,0,0,600.65,279.17Z" transform="translate(-4.55)"/><path class="cls-4" d="M655.34,374a1.73,1.73,0,0,0,0-3.46A1.73,1.73,0,0,0,655.34,374Z" transform="translate(-4.55)"/><path class="cls-4" d="M374.63,22.15a1.73,1.73,0,0,0,0-3.45A1.73,1.73,0,0,0,374.63,22.15Z" transform="translate(-4.55)"/><path class="cls-4" d="M553.26,3.92a1.73,1.73,0,0,0,0-3.45A1.73,1.73,0,0,0,553.26,3.92Z" transform="translate(-4.55)"/><path class="cls-4" d="M15.53,14.86a1.73,1.73,0,0,0,0-3.46A1.73,1.73,0,0,0,15.53,14.86Z" transform="translate(-4.55)"/><path class="cls-4" d="M163.18,266.41a1.73,1.73,0,0,0,0-3.46A1.73,1.73,0,0,0,163.18,266.41Z" transform="translate(-4.55)"/><path class="cls-4" d="M154.07,335.68a1.73,1.73,0,0,0,0-3.46A1.73,1.73,0,0,0,154.07,335.68Z" transform="translate(-4.55)"/><path class="cls-4" d="M39.23,297.51a0,0,0,1,0,0,0A0,0,0,0,0,39.23,297.51Z" transform="translate(-4.55)"/><path class="cls-4" d="M268.9,335.68a1.73,1.73,0,0,0,0-3.46A1.73,1.73,0,0,0,268.9,335.68Z" transform="translate(-4.55)"/><path class="cls-4" d="M505.87,178.91a1.73,1.73,0,0,0,0-3.45A1.73,1.73,0,0,0,505.87,178.91Z" transform="translate(-4.55)"/><path class="cls-4" d="M666.28,82.31a1.73,1.73,0,0,0,0-3.46A1.73,1.73,0,0,0,666.28,82.31Z" transform="translate(-4.55)"/><path class="cls-4" d="M128.23,61.34a1.73,1.73,0,0,0,0-3.45A1.73,1.73,0,0,0,128.23,61.34Z" transform="translate(-4.55)"/><path class="cls-4" d="M6.22,139.5a1.73,1.73,0,0,0,0-3.46A1.73,1.73,0,0,0,6.22,139.5Z" transform="translate(-4.55)"/><path class="cls-4" d="M236.58,404.77a1.73,1.73,0,0,0,0-3.46A1.73,1.73,0,0,0,236.58,404.77Z" transform="translate(-4.55)"/><path class="cls-4" d="M245.69,257.12a1.73,1.73,0,0,0,0-3.46A1.73,1.73,0,0,0,245.69,257.12Z" transform="translate(-4.55)"/><path class="cls-4" d="M223.82,315.45a1.73,1.73,0,0,0,0-3.46A1.73,1.73,0,0,0,223.82,315.45Z" transform="translate(-4.55)"/><path class="cls-4" d="M147.26,191.5a1.73,1.73,0,0,0,0-3.46A1.73,1.73,0,0,0,147.26,191.5Z" transform="translate(-4.55)"/><path class="cls-4" d="M36.07,288.11a1.73,1.73,0,0,0,0-3.46A1.73,1.73,0,0,0,36.07,288.11Z" transform="translate(-4.55)"/><path class="cls-4" d="M92.58,382.89a1.73,1.73,0,0,0,0-3.45A1.73,1.73,0,0,0,92.58,382.89Z" transform="translate(-4.55)"/><path class="cls-4" d="M178.25,160.51a1.73,1.73,0,0,0,0-3.46A1.73,1.73,0,0,0,178.25,160.51Z" transform="translate(-4.55)"/><path class="cls-4" d="M21,17.48A1.73,1.73,0,0,0,21,14,1.73,1.73,0,0,0,21,17.48Z" transform="translate(-4.55)"/><path class="cls-4" d="M157.57,483.27a1.73,1.73,0,0,0,0-3.45A1.73,1.73,0,0,0,157.57,483.27Z" transform="translate(-4.55)"/><path class="cls-4" d="M166.68,335.62a1.73,1.73,0,0,0,0-3.45A1.73,1.73,0,0,0,166.68,335.62Z" transform="translate(-4.55)"/><path class="cls-4" d="M144.81,394a1.73,1.73,0,0,0,0-3.45A1.73,1.73,0,0,0,144.81,394Z" transform="translate(-4.55)"/><path class="cls-4" d="M68.25,270a1.73,1.73,0,0,0,0-3.45A1.73,1.73,0,0,0,68.25,270Z" transform="translate(-4.55)"/><path class="cls-4" d="M13.56,461.4a1.73,1.73,0,0,0,0-3.46A1.73,1.73,0,0,0,13.56,461.4Z" transform="translate(-4.55)"/><path class="cls-4" d="M99.24,239a1.73,1.73,0,0,0,0-3.46A1.73,1.73,0,0,0,99.24,239Z" transform="translate(-4.55)"/><path class="cls-4" d="M558,116.39a0,0,0,0,0,0,0A0,0,0,1,0,558,116.39Z" transform="translate(-4.55)"/><path class="cls-4" d="M576.21,218.47a0,0,0,0,0,0,0A0,0,0,1,0,576.21,218.47Z" transform="translate(-4.55)"/><path class="cls-4" d="M632.11,283.37a1.73,1.73,0,0,0,0-3.46A1.73,1.73,0,0,0,632.11,283.37Z" transform="translate(-4.55)"/><path class="cls-4" d="M296.1,191.62a1.73,1.73,0,0,0,0-3.45A1.73,1.73,0,0,0,296.1,191.62Z" transform="translate(-4.55)"/><path class="cls-4" d="M336.2,395.78a1.73,1.73,0,0,0,0-3.46A1.73,1.73,0,0,0,336.2,395.78Z" transform="translate(-4.55)"/><path class="cls-4" d="M819.25,38.51a1.73,1.73,0,0,0,0-3.46A1.73,1.73,0,0,0,819.25,38.51Z" transform="translate(-4.55)"/><path class="cls-4" d="M766.39,82.25a1.73,1.73,0,0,0,0-3.45A1.73,1.73,0,0,0,766.39,82.25Z" transform="translate(-4.55)"/><path class="cls-4" d="M8.1,129.76a0,0,0,1,0,0,0A0,0,0,0,0,8.1,129.76Z" transform="translate(-4.55)"/><path class="cls-4" d="M35.44,381.19a1.73,1.73,0,0,0,0-3.45A1.73,1.73,0,0,0,35.44,381.19Z" transform="translate(-4.55)"/><path class="cls-4" d="M456.51,477.8a1.73,1.73,0,0,0,0-3.45A1.73,1.73,0,0,0,456.51,477.8Z" transform="translate(-4.55)"/><path class="cls-4" d="M762.74,610.87a1.73,1.73,0,0,0,0-3.46A1.73,1.73,0,0,0,762.74,610.87Z" transform="translate(-4.55)"/><path class="cls-4" d="M480.2,126a1.73,1.73,0,0,0,0-3.46A1.73,1.73,0,0,0,480.2,126Z" transform="translate(-4.55)"/><path class="cls-4" d="M454.69,244.48a1.73,1.73,0,0,0,0-3.45A1.73,1.73,0,0,0,454.69,244.48Z" transform="translate(-4.55)"/><path class="cls-4" d="M536.71,353.85a1.73,1.73,0,0,0,0-3.45A1.73,1.73,0,0,0,536.71,353.85Z" transform="translate(-4.55)"/><path class="cls-4" d="M715.35,335.62a1.73,1.73,0,0,0,0-3.45A1.73,1.73,0,0,0,715.35,335.62Z" transform="translate(-4.55)"/><path class="cls-4" d="M742.69,204.38a1.73,1.73,0,0,0,0-3.46A1.73,1.73,0,0,0,742.69,204.38Z" transform="translate(-4.55)"/><path class="cls-4" d="M620.56,96.84a1.73,1.73,0,0,0,0-3.46A1.73,1.73,0,0,0,620.56,96.84Z" transform="translate(-4.55)"/><path class="cls-4" d="M580.46,11.16a1.73,1.73,0,0,0,0-3.45A1.73,1.73,0,0,0,580.46,11.16Z" transform="translate(-4.55)"/><path class="cls-4" d="M305.21,44a1.73,1.73,0,0,0,0-3.45A1.73,1.73,0,0,0,305.21,44Z" transform="translate(-4.55)"/><path class="cls-4" d="M358.08,188a1.73,1.73,0,0,0,0-3.46A1.73,1.73,0,0,0,358.08,188Z" transform="translate(-4.55)"/><path class="cls-4" d="M283.34,102.3a1.73,1.73,0,0,0,0-3.45A1.73,1.73,0,0,0,283.34,102.3Z" transform="translate(-4.55)"/><path class="cls-4" d="M95.59,75a1.73,1.73,0,0,0,0-3.46A1.73,1.73,0,0,0,95.59,75Z" transform="translate(-4.55)"/><path class="cls-4" d="M152.1,169.75a1.73,1.73,0,0,0,0-3.46A1.73,1.73,0,0,0,152.1,169.75Z" transform="translate(-4.55)"/><path class="cls-4" d="M177.62,346.56a1.73,1.73,0,0,0,0-3.46A1.73,1.73,0,0,0,177.62,346.56Z" transform="translate(-4.55)"/><path class="cls-4" d="M48.2,457.75a1.73,1.73,0,0,0,0-3.45A1.73,1.73,0,0,0,48.2,457.75Z" transform="translate(-4.55)"/><path class="cls-4" d="M8.1,284.59a1.73,1.73,0,0,0,0-3.46A1.73,1.73,0,0,0,8.1,284.59Z" transform="translate(-4.55)"/><path class="cls-4" d="M53.67,219a1.73,1.73,0,0,0,0-3.45A1.73,1.73,0,0,0,53.67,219Z" transform="translate(-4.55)"/><path class="cls-4" d="M159.39,479.63a1.73,1.73,0,0,0,0-3.46A1.73,1.73,0,0,0,159.39,479.63Z" transform="translate(-4.55)"/><path class="cls-4" d="M325.27,598.11a1.73,1.73,0,0,0,0-3.46A1.73,1.73,0,0,0,325.27,598.11Z" transform="translate(-4.55)"/><path class="cls-4" d="M316.15,667.38a1.73,1.73,0,0,0,0-3.46A1.73,1.73,0,0,0,316.15,667.38Z" transform="translate(-4.55)"/><path class="cls-4" d="M201.31,629.21a0,0,0,1,0,0,0S201.3,629.21,201.31,629.21Z" transform="translate(-4.55)"/><path class="cls-4" d="M431,667.38a1.73,1.73,0,0,0,0-3.46A1.73,1.73,0,0,0,431,667.38Z" transform="translate(-4.55)"/><path class="cls-4" d="M668,510.61a1.73,1.73,0,0,0,0-3.45A1.73,1.73,0,0,0,668,510.61Z" transform="translate(-4.55)"/><path class="cls-4" d="M828.36,414a1.73,1.73,0,0,0,0-3.46A1.73,1.73,0,0,0,828.36,414Z" transform="translate(-4.55)"/><path class="cls-4" d="M801,206.2a1.73,1.73,0,0,0,0-3.45A1.73,1.73,0,0,0,801,206.2Z" transform="translate(-4.55)"/><path class="cls-4" d="M538.53,160.63a1.73,1.73,0,0,0,0-3.45A1.73,1.73,0,0,0,538.53,160.63Z" transform="translate(-4.55)"/><path class="cls-4" d="M1156,141.36a0,0,0,0,0,0,0S1156,141.36,1156,141.36Z" transform="translate(-4.55)"/><path class="cls-4" d="M1183.39,392.8a1.73,1.73,0,0,0,0-3.46A1.73,1.73,0,0,0,1183.39,392.8Z" transform="translate(-4.55)"/><path class="cls-4" d="M1431.29,113.91a1.73,1.73,0,0,0,0-3.46A1.73,1.73,0,0,0,1431.29,113.91Z" transform="translate(-4.55)"/><path class="cls-4" d="M1243.54,86.56a1.73,1.73,0,0,0,0-3.45A1.73,1.73,0,0,0,1243.54,86.56Z" transform="translate(-4.55)"/><path class="cls-4" d="M1300.05,181.35a1.73,1.73,0,0,0,0-3.46A1.73,1.73,0,0,0,1300.05,181.35Z" transform="translate(-4.55)"/><path class="cls-4" d="M1325.57,358.16a1.73,1.73,0,0,0,0-3.45A1.73,1.73,0,0,0,1325.57,358.16Z" transform="translate(-4.55)"/><path class="cls-4" d="M1196.15,469.35a1.73,1.73,0,0,0,0-3.45A1.73,1.73,0,0,0,1196.15,469.35Z" transform="translate(-4.55)"/><path class="cls-4" d="M1079.49,427.43a1.73,1.73,0,0,0,0-3.46A1.73,1.73,0,0,0,1079.49,427.43Z" transform="translate(-4.55)"/><path class="cls-4" d="M1054,219.63a1.73,1.73,0,0,0,0-3.46A1.73,1.73,0,0,0,1054,219.63Z" transform="translate(-4.55)"/><path class="cls-4" d="M1156,296.19a1.73,1.73,0,0,0,0-3.46A1.73,1.73,0,0,0,1156,296.19Z" transform="translate(-4.55)"/><path class="cls-4" d="M1201.61,230.57a1.73,1.73,0,0,0,0-3.46A1.73,1.73,0,0,0,1201.61,230.57Z" transform="translate(-4.55)"/><path class="cls-4" d="M1125.06,170.41a1.73,1.73,0,0,0,0-3.45A1.73,1.73,0,0,0,1125.06,170.41Z" transform="translate(-4.55)"/><path class="cls-4" d="M1013.87,86.67s0,0,0,0A0,0,0,1,0,1013.87,86.67Z" transform="translate(-4.55)"/><path class="cls-4" d="M1307.34,491.23a1.73,1.73,0,0,0,0-3.46A1.73,1.73,0,0,0,1307.34,491.23Z" transform="translate(-4.55)"/><path class="cls-4" d="M1349.26,640.81a0,0,0,1,0,0,0A0,0,0,0,0,1349.26,640.81Z" transform="translate(-4.55)"/><path class="cls-4" d="M1143.89,22.57a0,0,0,1,0,0,0A0,0,0,0,0,1143.89,22.57Z" transform="translate(-4.55)"/><path class="cls-4" d="M1199.79,87.47a1.73,1.73,0,0,0,0-3.46A1.73,1.73,0,0,0,1199.79,87.47Z" transform="translate(-4.55)"/><path class="cls-4" d="M903.89,199.88a1.73,1.73,0,0,0,0-3.46A1.73,1.73,0,0,0,903.89,199.88Z" transform="translate(-4.55)"/><path class="cls-4" d="M603.12,185.29a1.73,1.73,0,0,0,0-3.45A1.73,1.73,0,0,0,603.12,185.29Z" transform="translate(-4.55)"/><path class="cls-4" d="M1024.19,281.9a1.73,1.73,0,0,0,0-3.45A1.73,1.73,0,0,0,1024.19,281.9Z" transform="translate(-4.55)"/><path class="cls-4" d="M1330.43,415a1.73,1.73,0,0,0,0-3.46A1.73,1.73,0,0,0,1330.43,415Z" transform="translate(-4.55)"/><path class="cls-4" d="M1385.11,509.75a1.73,1.73,0,0,0,0-3.45A1.73,1.73,0,0,0,1385.11,509.75Z" transform="translate(-4.55)"/><path class="cls-4" d="M1022.37,48.58a1.73,1.73,0,0,0,0-3.45A1.73,1.73,0,0,0,1022.37,48.58Z" transform="translate(-4.55)"/><path class="cls-4" d="M1104.4,158a1.73,1.73,0,0,0,0-3.46A1.73,1.73,0,0,0,1104.4,158Z" transform="translate(-4.55)"/><path class="cls-4" d="M1283,139.72a1.73,1.73,0,0,0,0-3.45A1.73,1.73,0,0,0,1283,139.72Z" transform="translate(-4.55)"/><path class="cls-4" d="M1310.38,8.48a1.73,1.73,0,0,0,0-3.46A1.73,1.73,0,0,0,1310.38,8.48Z" transform="translate(-4.55)"/><path class="cls-4" d="M745.3,150.66a1.73,1.73,0,0,0,0-3.46A1.73,1.73,0,0,0,745.3,150.66Z" transform="translate(-4.55)"/><path class="cls-4" d="M615.88,261.85a1.73,1.73,0,0,0,0-3.45A1.73,1.73,0,0,0,615.88,261.85Z" transform="translate(-4.55)"/><path class="cls-4" d="M499.22,219.93a1.73,1.73,0,0,0,0-3.46A1.73,1.73,0,0,0,499.22,219.93Z" transform="translate(-4.55)"/><path class="cls-4" d="M473.71,12.13a1.73,1.73,0,0,0,0-3.46A1.73,1.73,0,0,0,473.71,12.13Z" transform="translate(-4.55)"/><path class="cls-4" d="M575.78,88.69a1.73,1.73,0,0,0,0-3.46A1.73,1.73,0,0,0,575.78,88.69Z" transform="translate(-4.55)"/><path class="cls-4" d="M621.35,23.06a1.73,1.73,0,0,0,0-3.45A1.73,1.73,0,0,0,621.35,23.06Z" transform="translate(-4.55)"/><path class="cls-4" d="M727.08,283.73a1.73,1.73,0,0,0,0-3.46A1.73,1.73,0,0,0,727.08,283.73Z" transform="translate(-4.55)"/><path class="cls-4" d="M893,402.21a1.73,1.73,0,0,0,0-3.46A1.73,1.73,0,0,0,893,402.21Z" transform="translate(-4.55)"/><path class="cls-4" d="M883.84,471.48a1.73,1.73,0,0,0,0-3.46A1.73,1.73,0,0,0,883.84,471.48Z" transform="translate(-4.55)"/><path class="cls-4" d="M769,433.31a0,0,0,1,0,0,0A0,0,0,0,0,769,433.31Z" transform="translate(-4.55)"/><path class="cls-4" d="M998.68,471.48a1.73,1.73,0,0,0,0-3.46A1.73,1.73,0,0,0,998.68,471.48Z" transform="translate(-4.55)"/><path class="cls-4" d="M1235.64,314.71a1.73,1.73,0,0,0,0-3.45A1.73,1.73,0,0,0,1235.64,314.71Z" transform="translate(-4.55)"/><path class="cls-4" d="M1396.05,218.1a1.73,1.73,0,0,0,0-3.45A1.73,1.73,0,0,0,1396.05,218.1Z" transform="translate(-4.55)"/><path class="cls-4" d="M1368.71,10.3a1.73,1.73,0,0,0,0-3.45A1.73,1.73,0,0,0,1368.71,10.3Z" transform="translate(-4.55)"/><path class="cls-4" d="M897.6,16.19a0,0,0,0,0,0,0A0,0,0,1,0,897.6,16.19Z" transform="translate(-4.55)"/><path class="cls-4" d="M1262.16,186.82a1.73,1.73,0,0,0,0-3.46A1.73,1.73,0,0,0,1262.16,186.82Z" transform="translate(-4.55)"/><path class="cls-4" d="M953.5,81.1a1.73,1.73,0,0,0,0-3.46A1.73,1.73,0,0,0,953.5,81.1Z" transform="translate(-4.55)"/><path class="cls-4" d="M777.9,275.53a1.73,1.73,0,0,0,0-3.46A1.73,1.73,0,0,0,777.9,275.53Z" transform="translate(-4.55)"/><path class="cls-4" d="M1084.14,408.59a1.73,1.73,0,0,0,0-3.45A1.73,1.73,0,0,0,1084.14,408.59Z" transform="translate(-4.55)"/><path class="cls-4" d="M1138.82,503.38a1.73,1.73,0,0,0,0-3.46A1.73,1.73,0,0,0,1138.82,503.38Z" transform="translate(-4.55)"/><path class="cls-4" d="M1301.05,383.07a1.73,1.73,0,0,0,0-3.45A1.73,1.73,0,0,0,1301.05,383.07Z" transform="translate(-4.55)"/><path class="cls-4" d="M1304.7,16.69a1.73,1.73,0,0,0,0-3.46A1.73,1.73,0,0,0,1304.7,16.69Z" transform="translate(-4.55)"/><path class="cls-4" d="M776.08,42.21a1.73,1.73,0,0,0,0-3.46A1.73,1.73,0,0,0,776.08,42.21Z" transform="translate(-4.55)"/><path class="cls-4" d="M858.11,151.58a1.73,1.73,0,0,0,0-3.46A1.73,1.73,0,0,0,858.11,151.58Z" transform="translate(-4.55)"/><path class="cls-4" d="M1036.74,133.35a1.73,1.73,0,0,0,0-3.46A1.73,1.73,0,0,0,1036.74,133.35Z" transform="translate(-4.55)"/><path class="cls-4" d="M989.35,308.34a1.73,1.73,0,0,0,0-3.46A1.73,1.73,0,0,0,989.35,308.34Z" transform="translate(-4.55)"/><path class="cls-4" d="M1149.76,211.73a1.73,1.73,0,0,0,0-3.46A1.73,1.73,0,0,0,1149.76,211.73Z" transform="translate(-4.55)"/><path class="cls-4" d="M1306.52,75a1.73,1.73,0,0,0,0-3.46A1.73,1.73,0,0,0,1306.52,75Z" transform="translate(-4.55)"/><path class="cls-4" d="M1122.41,3.93a1.73,1.73,0,0,0,0-3.46A1.73,1.73,0,0,0,1122.41,3.93Z" transform="translate(-4.55)"/><path class="cls-4" d="M770.12,517.05a1.73,1.73,0,0,0,0-3.46A1.73,1.73,0,0,0,770.12,517.05Z" transform="translate(-4.55)"/><path class="cls-4" d="M815.69,79.58a1.73,1.73,0,0,0,0-3.46A1.73,1.73,0,0,0,815.69,79.58Z" transform="translate(-4.55)"/><path class="cls-4" d="M1139.73,82.06a1.73,1.73,0,0,0,0-3.45A1.73,1.73,0,0,0,1139.73,82.06Z" transform="translate(-4.55)"/><path class="cls-4" d="M1097.81,244.4a0,0,0,0,0,0,0A0,0,0,1,0,1097.81,244.4Z" transform="translate(-4.55)"/><path class="cls-4" d="M1125.15,495.84a1.73,1.73,0,0,0,0-3.46A1.73,1.73,0,0,0,1125.15,495.84Z" transform="translate(-4.55)"/><path class="cls-4" d="M1296.49,93a1.73,1.73,0,0,0,0-3.46A1.73,1.73,0,0,0,1296.49,93Z" transform="translate(-4.55)"/><path class="cls-4" d="M1185.3,189.61a1.73,1.73,0,0,0,0-3.46A1.73,1.73,0,0,0,1185.3,189.61Z" transform="translate(-4.55)"/><path class="cls-4" d="M1241.81,284.4a1.73,1.73,0,0,0,0-3.46A1.73,1.73,0,0,0,1241.81,284.4Z" transform="translate(-4.55)"/><path class="cls-4" d="M1267.33,461.21a1.73,1.73,0,0,0,0-3.46A1.73,1.73,0,0,0,1267.33,461.21Z" transform="translate(-4.55)"/><path class="cls-4" d="M1137.91,572.4a1.73,1.73,0,0,0,0-3.46A1.73,1.73,0,0,0,1137.91,572.4Z" transform="translate(-4.55)"/><path class="cls-4" d="M1021.25,530.48a1.73,1.73,0,0,0,0-3.46A1.73,1.73,0,0,0,1021.25,530.48Z" transform="translate(-4.55)"/><path class="cls-4" d="M995.73,322.67a1.73,1.73,0,0,0,0-3.45A1.73,1.73,0,0,0,995.73,322.67Z" transform="translate(-4.55)"/><path class="cls-4" d="M1097.81,399.23a1.73,1.73,0,0,0,0-3.45A1.73,1.73,0,0,0,1097.81,399.23Z" transform="translate(-4.55)"/><path class="cls-4" d="M1143.38,333.61a1.73,1.73,0,0,0,0-3.46A1.73,1.73,0,0,0,1143.38,333.61Z" transform="translate(-4.55)"/><path class="cls-4" d="M1066.82,273.46a1.73,1.73,0,0,0,0-3.46A1.73,1.73,0,0,0,1066.82,273.46Z" transform="translate(-4.55)"/><path class="cls-4" d="M977.5,65.66a1.73,1.73,0,0,0,0-3.46A1.73,1.73,0,0,0,977.5,65.66Z" transform="translate(-4.55)"/><path class="cls-4" d="M955.63,189.72a0,0,0,1,0,0,0A0,0,0,0,0,955.63,189.72Z" transform="translate(-4.55)"/><path class="cls-4" d="M1249.1,594.27a1.73,1.73,0,0,0,0-3.45A1.73,1.73,0,0,0,1249.1,594.27Z" transform="translate(-4.55)"/><path class="cls-4" d="M1327.48,62a1.73,1.73,0,0,0,0-3.45A1.73,1.73,0,0,0,1327.48,62Z" transform="translate(-4.55)"/><path class="cls-4" d="M1067.43,23.53s0,0,0,0A0,0,0,0,0,1067.43,23.53Z" transform="translate(-4.55)"/><path class="cls-4" d="M1085.65,125.61a0,0,0,1,0,0,0S1085.64,125.61,1085.65,125.61Z" transform="translate(-4.55)"/><path class="cls-4" d="M1141.55,190.52a1.73,1.73,0,0,0,0-3.46A1.73,1.73,0,0,0,1141.55,190.52Z" transform="translate(-4.55)"/><path class="cls-4" d="M805.55,98.77a1.73,1.73,0,0,0,0-3.46A1.73,1.73,0,0,0,805.55,98.77Z" transform="translate(-4.55)"/><path class="cls-4" d="M845.65,302.92a1.73,1.73,0,0,0,0-3.45A1.73,1.73,0,0,0,845.65,302.92Z" transform="translate(-4.55)"/><path class="cls-4" d="M966,385a1.73,1.73,0,0,0,0-3.46A1.73,1.73,0,0,0,966,385Z" transform="translate(-4.55)"/><path class="cls-4" d="M1272.19,518a1.73,1.73,0,0,0,0-3.45A1.73,1.73,0,0,0,1272.19,518Z" transform="translate(-4.55)"/><path class="cls-4" d="M1326.87,612.8a1.73,1.73,0,0,0,0-3.46A1.73,1.73,0,0,0,1326.87,612.8Z" transform="translate(-4.55)"/><path class="cls-4" d="M989.65,33.15a1.73,1.73,0,0,0,0-3.46A1.73,1.73,0,0,0,989.65,33.15Z" transform="translate(-4.55)"/><path class="cls-4" d="M964.13,151.63a1.73,1.73,0,0,0,0-3.46A1.73,1.73,0,0,0,964.13,151.63Z" transform="translate(-4.55)"/><path class="cls-4" d="M1046.16,261a1.73,1.73,0,0,0,0-3.46A1.73,1.73,0,0,0,1046.16,261Z" transform="translate(-4.55)"/><path class="cls-4" d="M1224.8,242.77a1.73,1.73,0,0,0,0-3.46A1.73,1.73,0,0,0,1224.8,242.77Z" transform="translate(-4.55)"/><path class="cls-4" d="M1252.14,111.53a1.73,1.73,0,0,0,0-3.46A1.73,1.73,0,0,0,1252.14,111.53Z" transform="translate(-4.55)"/><path class="cls-4" d="M1130,4a1.73,1.73,0,0,0,0-3.46A1.73,1.73,0,0,0,1130,4Z" transform="translate(-4.55)"/><path class="cls-4" d="M867.52,95.12a1.73,1.73,0,0,0,0-3.46A1.73,1.73,0,0,0,867.52,95.12Z" transform="translate(-4.55)"/><path class="cls-4" d="M792.79,9.45a1.73,1.73,0,0,0,0-3.46A1.73,1.73,0,0,0,792.79,9.45Z" transform="translate(-4.55)"/><path class="cls-4" d="M834.71,505.25a1.73,1.73,0,0,0,0-3.45A1.73,1.73,0,0,0,834.71,505.25Z" transform="translate(-4.55)"/><path class="cls-4" d="M825.6,574.52a1.73,1.73,0,0,0,0-3.46A1.73,1.73,0,0,0,825.6,574.52Z" transform="translate(-4.55)"/><path class="cls-4" d="M940.44,574.52a1.73,1.73,0,0,0,0-3.46A1.73,1.73,0,0,0,940.44,574.52Z" transform="translate(-4.55)"/><path class="cls-4" d="M1177.4,417.76a1.73,1.73,0,0,0,0-3.46A1.73,1.73,0,0,0,1177.4,417.76Z" transform="translate(-4.55)"/><path class="cls-4" d="M1337.81,321.15a1.73,1.73,0,0,0,0-3.46A1.73,1.73,0,0,0,1337.81,321.15Z" transform="translate(-4.55)"/><path class="cls-4" d="M1310.47,113.35a1.73,1.73,0,0,0,0-3.46A1.73,1.73,0,0,0,1310.47,113.35Z" transform="translate(-4.55)"/><path class="cls-4" d="M1048,67.78a1.73,1.73,0,0,0,0-3.46A1.73,1.73,0,0,0,1048,67.78Z" transform="translate(-4.55)"/><path class="cls-4" d="M918.49,149.52a1.73,1.73,0,0,0,0-3.46A1.73,1.73,0,0,0,918.49,149.52Z" transform="translate(-4.55)"/><path class="cls-4" d="M609.83,43.79a1.73,1.73,0,0,0,0-3.45A1.73,1.73,0,0,0,609.83,43.79Z" transform="translate(-4.55)"/><path class="cls-4" d="M434.23,238.23a1.73,1.73,0,0,0,0-3.46A1.73,1.73,0,0,0,434.23,238.23Z" transform="translate(-4.55)"/><path class="cls-4" d="M740.46,371.29a1.73,1.73,0,0,0,0-3.45A1.73,1.73,0,0,0,740.46,371.29Z" transform="translate(-4.55)"/><path class="cls-4" d="M795.14,466.08a1.73,1.73,0,0,0,0-3.46A1.73,1.73,0,0,0,795.14,466.08Z" transform="translate(-4.55)"/><path class="cls-4" d="M957.38,345.77a1.73,1.73,0,0,0,0-3.45A1.73,1.73,0,0,0,957.38,345.77Z" transform="translate(-4.55)"/><path class="cls-4" d="M432.4,4.91a1.73,1.73,0,0,0,0-3.46A1.73,1.73,0,0,0,432.4,4.91Z" transform="translate(-4.55)"/><path class="cls-4" d="M514.43,114.28a1.73,1.73,0,0,0,0-3.46A1.73,1.73,0,0,0,514.43,114.28Z" transform="translate(-4.55)"/><path class="cls-4" d="M693.07,96.05a1.73,1.73,0,0,0,0-3.46A1.73,1.73,0,0,0,693.07,96.05Z" transform="translate(-4.55)"/><path class="cls-4" d="M645.67,271a1.73,1.73,0,0,0,0-3.46A1.73,1.73,0,0,0,645.67,271Z" transform="translate(-4.55)"/><path class="cls-4" d="M806.08,174.43a1.73,1.73,0,0,0,0-3.46A1.73,1.73,0,0,0,806.08,174.43Z" transform="translate(-4.55)"/><path class="cls-4" d="M962.84,37.72a1.73,1.73,0,0,0,0-3.46A1.73,1.73,0,0,0,962.84,37.72Z" transform="translate(-4.55)"/><path class="cls-4" d="M426.45,479.75a1.73,1.73,0,0,0,0-3.46A1.73,1.73,0,0,0,426.45,479.75Z" transform="translate(-4.55)"/><path class="cls-4" d="M472,42.27a1.73,1.73,0,0,0,0-3.45A1.73,1.73,0,0,0,472,42.27Z" transform="translate(-4.55)"/><path class="cls-4" d="M796.06,44.76a1.73,1.73,0,0,0,0-3.45A1.73,1.73,0,0,0,796.06,44.76Z" transform="translate(-4.55)"/><path class="cls-4" d="M754.13,207.1a0,0,0,1,0,0,0A0,0,0,0,0,754.13,207.1Z" transform="translate(-4.55)"/><path class="cls-4" d="M781.47,458.54a1.73,1.73,0,0,0,0-3.46A1.73,1.73,0,0,0,781.47,458.54Z" transform="translate(-4.55)"/><path class="cls-4" d="M952.82,55.7a1.73,1.73,0,0,0,0-3.46A1.73,1.73,0,0,0,952.82,55.7Z" transform="translate(-4.55)"/><path class="cls-4" d="M841.63,152.31a1.73,1.73,0,0,0,0-3.46A1.73,1.73,0,0,0,841.63,152.31Z" transform="translate(-4.55)"/><path class="cls-4" d="M898.13,247.09a1.73,1.73,0,0,0,0-3.45A1.73,1.73,0,0,0,898.13,247.09Z" transform="translate(-4.55)"/><path class="cls-4" d="M923.65,423.91a1.73,1.73,0,0,0,0-3.46A1.73,1.73,0,0,0,923.65,423.91Z" transform="translate(-4.55)"/><path class="cls-4" d="M794.23,535.1a1.73,1.73,0,0,0,0-3.46A1.73,1.73,0,0,0,794.23,535.1Z" transform="translate(-4.55)"/><path class="cls-4" d="M677.57,493.17a1.73,1.73,0,0,0,0-3.45A1.73,1.73,0,0,0,677.57,493.17Z" transform="translate(-4.55)"/><path class="cls-4" d="M652.05,285.37a1.73,1.73,0,0,0,0-3.45A1.73,1.73,0,0,0,652.05,285.37Z" transform="translate(-4.55)"/><path class="cls-4" d="M754.13,361.93a1.73,1.73,0,0,0,0-3.46A1.73,1.73,0,0,0,754.13,361.93Z" transform="translate(-4.55)"/><path class="cls-4" d="M799.7,296.31a1.73,1.73,0,0,0,0-3.46A1.73,1.73,0,0,0,799.7,296.31Z" transform="translate(-4.55)"/><path class="cls-4" d="M723.14,236.16a1.73,1.73,0,0,0,0-3.46A1.73,1.73,0,0,0,723.14,236.16Z" transform="translate(-4.55)"/><path class="cls-4" d="M633.83,28.36a1.73,1.73,0,0,0,0-3.46A1.73,1.73,0,0,0,633.83,28.36Z" transform="translate(-4.55)"/><path class="cls-4" d="M612,152.42a0,0,0,0,0,0,0A0,0,0,1,0,612,152.42Z" transform="translate(-4.55)"/><path class="cls-4" d="M905.42,557a1.73,1.73,0,0,0,0-3.45A1.73,1.73,0,0,0,905.42,557Z" transform="translate(-4.55)"/><path class="cls-4" d="M947.35,706.55a0,0,0,0,0,0,0A0,0,0,0,0,947.35,706.55Z" transform="translate(-4.55)"/><path class="cls-4" d="M983.81,24.71a1.73,1.73,0,0,0,0-3.46A1.73,1.73,0,0,0,983.81,24.71Z" transform="translate(-4.55)"/><path class="cls-4" d="M742,88.31a0,0,0,0,0,0,0A0,0,0,1,0,742,88.31Z" transform="translate(-4.55)"/><path class="cls-4" d="M797.88,153.21a1.73,1.73,0,0,0,0-3.45A1.73,1.73,0,0,0,797.88,153.21Z" transform="translate(-4.55)"/><path class="cls-4" d="M461.87,61.47a1.73,1.73,0,0,0,0-3.46A1.73,1.73,0,0,0,461.87,61.47Z" transform="translate(-4.55)"/><path class="cls-4" d="M502,265.62a1.73,1.73,0,0,0,0-3.46A1.73,1.73,0,0,0,502,265.62Z" transform="translate(-4.55)"/><path class="cls-4" d="M622.28,347.65a1.73,1.73,0,0,0,0-3.46A1.73,1.73,0,0,0,622.28,347.65Z" transform="translate(-4.55)"/><path class="cls-4" d="M928.51,480.71a1.73,1.73,0,0,0,0-3.45A1.73,1.73,0,0,0,928.51,480.71Z" transform="translate(-4.55)"/><path class="cls-4" d="M983.2,575.5a1.73,1.73,0,0,0,0-3.46A1.73,1.73,0,0,0,983.2,575.5Z" transform="translate(-4.55)"/><path class="cls-4" d="M620.46,114.33a1.73,1.73,0,0,0,0-3.46A1.73,1.73,0,0,0,620.46,114.33Z" transform="translate(-4.55)"/><path class="cls-4" d="M702.48,223.7a1.73,1.73,0,0,0,0-3.46A1.73,1.73,0,0,0,702.48,223.7Z" transform="translate(-4.55)"/><path class="cls-4" d="M881.12,205.47a1.73,1.73,0,0,0,0-3.46A1.73,1.73,0,0,0,881.12,205.47Z" transform="translate(-4.55)"/><path class="cls-4" d="M908.46,74.23a1.73,1.73,0,0,0,0-3.46A1.73,1.73,0,0,0,908.46,74.23Z" transform="translate(-4.55)"/><path class="cls-4" d="M523.85,57.82a1.73,1.73,0,0,0,0-3.46A1.73,1.73,0,0,0,523.85,57.82Z" transform="translate(-4.55)"/><path class="cls-4" d="M491,468a1.73,1.73,0,0,0,0-3.45A1.73,1.73,0,0,0,491,468Z" transform="translate(-4.55)"/><path class="cls-4" d="M481.92,537.22a1.73,1.73,0,0,0,0-3.46A1.73,1.73,0,0,0,481.92,537.22Z" transform="translate(-4.55)"/><path class="cls-4" d="M596.76,537.22a1.73,1.73,0,0,0,0-3.46A1.73,1.73,0,0,0,596.76,537.22Z" transform="translate(-4.55)"/><path class="cls-4" d="M833.73,380.46a1.73,1.73,0,0,0,0-3.46A1.73,1.73,0,0,0,833.73,380.46Z" transform="translate(-4.55)"/><path class="cls-4" d="M994.14,283.85a1.73,1.73,0,0,0,0-3.46A1.73,1.73,0,0,0,994.14,283.85Z" transform="translate(-4.55)"/><path class="cls-4" d="M966.79,76.05a1.73,1.73,0,0,0,0-3.46A1.73,1.73,0,0,0,966.79,76.05Z" transform="translate(-4.55)"/><path class="cls-4" d="M704.31,30.48a1.73,1.73,0,0,0,0-3.46A1.73,1.73,0,0,0,704.31,30.48Z" transform="translate(-4.55)"/></g></g></g></svg>